<?xml version="1.0" encoding="UTF-8" standalone="no"?>
<svg
   xmlns:ns1="http://wanglongqi.github.io/WriteTeX"
   xmlns:dc="http://purl.org/dc/elements/1.1/"
   xmlns:cc="http://creativecommons.org/ns#"
   xmlns:rdf="http://www.w3.org/1999/02/22-rdf-syntax-ns#"
   xmlns:svg="http://www.w3.org/2000/svg"
   xmlns="http://www.w3.org/2000/svg"
   xmlns:sodipodi="http://sodipodi.sourceforge.net/DTD/sodipodi-0.dtd"
   xmlns:inkscape="http://www.inkscape.org/namespaces/inkscape"
   width="210mm"
   height="297mm"
   viewBox="0 0 210 297"
   version="1.1"
   id="svg8"
   sodipodi:docname="diagrama_MR.svg"
   inkscape:version="1.0.2 (e86c870879, 2021-01-15, custom)">
  <defs
     id="defs2">
    <marker
       style="overflow:visible;"
       id="marker5676"
       refX="0.0"
       refY="0.0"
       orient="auto"
       inkscape:stockid="Arrow2Lend"
       inkscape:isstock="true">
      <path
         transform="scale(1.1) rotate(180) translate(1,0)"
         d="M 8.7185878,4.0337352 L -2.2072895,0.016013256 L 8.7185884,-4.0017078 C 6.9730900,-1.6296469 6.9831476,1.6157441 8.7185878,4.0337352 z "
         style="fill-rule:evenodd;stroke-width:0.625;stroke-linejoin:round;stroke:#000000;stroke-opacity:1;fill:#000000;fill-opacity:1"
         id="path5674" />
    </marker>
    <marker
       style="overflow:visible"
       id="TriangleInL"
       refX="0.0"
       refY="0.0"
       orient="auto"
       inkscape:stockid="TriangleInL"
       inkscape:isstock="true">
      <path
         transform="scale(-0.8)"
         style="fill-rule:evenodd;stroke:#000000;stroke-width:1pt;stroke-opacity:1;fill:#000000;fill-opacity:1"
         d="M 5.77,0.0 L -2.88,5.0 L -2.88,-5.0 L 5.77,0.0 z "
         id="path1501" />
    </marker>
    <marker
       style="overflow:visible"
       id="marker5212"
       refX="0.0"
       refY="0.0"
       orient="auto"
       inkscape:stockid="TriangleOutL"
       inkscape:isstock="true">
      <path
         transform="scale(0.8)"
         style="fill-rule:evenodd;stroke:#000000;stroke-width:1pt;stroke-opacity:1;fill:#000000;fill-opacity:1"
         d="M 5.77,0.0 L -2.88,5.0 L -2.88,-5.0 L 5.77,0.0 z "
         id="path5210" />
    </marker>
    <marker
       style="overflow:visible"
       id="marker5202"
       refX="0.0"
       refY="0.0"
       orient="auto"
       inkscape:stockid="TriangleOutL"
       inkscape:isstock="true">
      <path
         transform="scale(0.8)"
         style="fill-rule:evenodd;stroke:#000000;stroke-width:1pt;stroke-opacity:1;fill:#000000;fill-opacity:1"
         d="M 5.77,0.0 L -2.88,5.0 L -2.88,-5.0 L 5.77,0.0 z "
         id="path5200" />
    </marker>
    <marker
       style="overflow:visible"
       id="marker5192"
       refX="0.0"
       refY="0.0"
       orient="auto"
       inkscape:stockid="TriangleOutL"
       inkscape:isstock="true">
      <path
         transform="scale(0.8)"
         style="fill-rule:evenodd;stroke:#000000;stroke-width:1pt;stroke-opacity:1;fill:#000000;fill-opacity:1"
         d="M 5.77,0.0 L -2.88,5.0 L -2.88,-5.0 L 5.77,0.0 z "
         id="path5190" />
    </marker>
    <marker
       style="overflow:visible"
       id="marker5116"
       refX="0.0"
       refY="0.0"
       orient="auto"
       inkscape:stockid="TriangleOutL"
       inkscape:isstock="true">
      <path
         transform="scale(0.8)"
         style="fill-rule:evenodd;stroke:#000000;stroke-width:1pt;stroke-opacity:1;fill:#000000;fill-opacity:1"
         d="M 5.77,0.0 L -2.88,5.0 L -2.88,-5.0 L 5.77,0.0 z "
         id="path5114" />
    </marker>
    <marker
       style="overflow:visible"
       id="Arrow2Lstart"
       refX="0.0"
       refY="0.0"
       orient="auto"
       inkscape:stockid="Arrow2Lstart"
       inkscape:isstock="true">
      <path
         transform="scale(1.1) translate(1,0)"
         d="M 8.7185878,4.0337352 L -2.2072895,0.016013256 L 8.7185884,-4.0017078 C 6.9730900,-1.6296469 6.9831476,1.6157441 8.7185878,4.0337352 z "
         style="fill-rule:evenodd;stroke-width:0.625;stroke-linejoin:round;stroke:#000000;stroke-opacity:1;fill:#000000;fill-opacity:1"
         id="path1386" />
    </marker>
    <marker
       style="overflow:visible;"
       id="marker3912"
       refX="0.0"
       refY="0.0"
       orient="auto"
       inkscape:stockid="Arrow2Lend"
       inkscape:isstock="true">
      <path
         transform="scale(1.1) rotate(180) translate(1,0)"
         d="M 8.7185878,4.0337352 L -2.2072895,0.016013256 L 8.7185884,-4.0017078 C 6.9730900,-1.6296469 6.9831476,1.6157441 8.7185878,4.0337352 z "
         style="fill-rule:evenodd;stroke-width:0.625;stroke-linejoin:round;stroke:#000000;stroke-opacity:1;fill:#000000;fill-opacity:1"
         id="path3910" />
    </marker>
    <marker
       style="overflow:visible;"
       id="marker1834"
       refX="0.0"
       refY="0.0"
       orient="auto"
       inkscape:stockid="Arrow2Lend"
       inkscape:isstock="true">
      <path
         transform="scale(1.1) rotate(180) translate(1,0)"
         d="M 8.7185878,4.0337352 L -2.2072895,0.016013256 L 8.7185884,-4.0017078 C 6.9730900,-1.6296469 6.9831476,1.6157441 8.7185878,4.0337352 z "
         style="fill-rule:evenodd;stroke-width:0.625;stroke-linejoin:round;stroke:#000000;stroke-opacity:1;fill:#000000;fill-opacity:1"
         id="path1832" />
    </marker>
    <marker
       style="overflow:visible;"
       id="marker1690"
       refX="0.0"
       refY="0.0"
       orient="auto"
       inkscape:stockid="Arrow2Lend"
       inkscape:isstock="true">
      <path
         transform="scale(1.1) rotate(180) translate(1,0)"
         d="M 8.7185878,4.0337352 L -2.2072895,0.016013256 L 8.7185884,-4.0017078 C 6.9730900,-1.6296469 6.9831476,1.6157441 8.7185878,4.0337352 z "
         style="fill-rule:evenodd;stroke-width:0.625;stroke-linejoin:round;stroke:#000000;stroke-opacity:1;fill:#000000;fill-opacity:1"
         id="path1688" />
    </marker>
    <marker
       style="overflow:visible;"
       id="marker1680"
       refX="0.0"
       refY="0.0"
       orient="auto"
       inkscape:stockid="Arrow2Lend"
       inkscape:isstock="true">
      <path
         transform="scale(1.1) rotate(180) translate(1,0)"
         d="M 8.7185878,4.0337352 L -2.2072895,0.016013256 L 8.7185884,-4.0017078 C 6.9730900,-1.6296469 6.9831476,1.6157441 8.7185878,4.0337352 z "
         style="fill-rule:evenodd;stroke-width:0.625;stroke-linejoin:round;stroke:#000000;stroke-opacity:1;fill:#000000;fill-opacity:1"
         id="path1678" />
    </marker>
    <marker
       style="overflow:visible;"
       id="Arrow2Lend"
       refX="0.0"
       refY="0.0"
       orient="auto"
       inkscape:stockid="Arrow2Lend"
       inkscape:isstock="true">
      <path
         transform="scale(1.1) rotate(180) translate(1,0)"
         d="M 8.7185878,4.0337352 L -2.2072895,0.016013256 L 8.7185884,-4.0017078 C 6.9730900,-1.6296469 6.9831476,1.6157441 8.7185878,4.0337352 z "
         style="fill-rule:evenodd;stroke-width:0.625;stroke-linejoin:round;stroke:#000000;stroke-opacity:1;fill:#000000;fill-opacity:1"
         id="path1389" />
    </marker>
    <symbol
       id="LogicalAnd">
      <title
         id="title6402">Logical And</title>
      <desc
         id="desc6404">Summing junction. Shows when multiple branches converge.</desc>
      <circle
         cx="19.84375"
         cy="19.84375"
         r="5.2916665"
         style="stroke-width:2"
         id="circle6406" />
      <path
         d="m 16.139583,16.139583 7.408334,7.408334"
         style="stroke-width:2"
         id="path6408" />
      <path
         d="m 16.139583,23.547917 7.408334,-7.408334"
         style="stroke-width:2"
         id="path6410" />
    </symbol>
  </defs>
  <sodipodi:namedview
     id="base"
     pagecolor="#ffffff"
     bordercolor="#666666"
     borderopacity="1.0"
     inkscape:pageopacity="0.0"
     inkscape:pageshadow="2"
     inkscape:zoom="2.4940621"
     inkscape:cx="435.85405"
     inkscape:cy="242.16193"
     inkscape:document-units="mm"
     inkscape:current-layer="layer1"
     inkscape:document-rotation="0"
     showgrid="false"
     inkscape:window-width="1491"
     inkscape:window-height="1056"
     inkscape:window-x="0"
     inkscape:window-y="18"
     inkscape:window-maximized="0"
     inkscape:snap-intersection-paths="true"
     inkscape:object-paths="false"
     inkscape:snap-smooth-nodes="true"
     inkscape:snap-midpoints="true"
     inkscape:snap-object-midpoints="false"
     inkscape:snap-nodes="true"
     inkscape:object-nodes="true"
     inkscape:snap-others="true"
     showguides="false"
     inkscape:guide-bbox="true"
     inkscape:snap-grids="true"
     inkscape:snap-to-guides="true"
     inkscape:snap-global="true"
     inkscape:snap-bbox="true"
     inkscape:bbox-paths="false"
     inkscape:bbox-nodes="false"
     inkscape:snap-bbox-edge-midpoints="true"
     inkscape:snap-bbox-midpoints="true">
    <inkscape:grid
       type="xygrid"
       id="grid6019"
       units="mm"
       spacingx="1"
       spacingy="1" />
  </sodipodi:namedview>
  <metadata
     id="metadata5">
    <rdf:RDF>
      <cc:Work
         rdf:about="">
        <dc:format>image/svg+xml</dc:format>
        <dc:type
           rdf:resource="http://purl.org/dc/dcmitype/StillImage" />
        <dc:title></dc:title>
      </cc:Work>
    </rdf:RDF>
  </metadata>
  <g
     inkscape:groupmode="layer"
     id="layer2"
     inkscape:label="virtual"
     style="display:inline">
    <g
       id="g6699"
       transform="rotate(45,128.28633,52.101601)"
       style="stroke:#000080;stroke-width:0.7;stroke-miterlimit:3.2;stroke-dasharray:2.1, 0.7;stroke-dashoffset:0" />
  </g>
  <g
     inkscape:groupmode="layer"
     id="layer3"
     inkscape:label="mr"
     style="display:inline">
    <rect
       style="display:inline;fill:#6d93cd;fill-opacity:0.0912376;stroke:#0044aa;stroke-width:0.433;stroke-linecap:butt;stroke-linejoin:miter;stroke-miterlimit:3.2;stroke-dasharray:none;stroke-dashoffset:0;stroke-opacity:1"
       id="rect7865"
       width="27.203619"
       height="12.365282"
       x="104.93542"
       y="41.506439" />
    <path
       style="display:inline;fill:#0044aa;fill-opacity:1;stroke:none;stroke-width:0.163582px;stroke-linecap:butt;stroke-linejoin:miter;stroke-opacity:1"
       d="m 104.71903,47.689081 -1.97845,1.236528 v -2.473056 z"
       id="path8139"
       sodipodi:nodetypes="cccc" />
    <path
       style="display:inline;fill:#0044aa;fill-opacity:1;stroke:none;stroke-width:0.163582px;stroke-linecap:butt;stroke-linejoin:miter;stroke-opacity:1"
       d="m 164.54979,47.9239 -1.97845,1.23652 v -2.47305 z"
       id="path8141"
       sodipodi:nodetypes="cccc"
       inkscape:transform-center-x="1.6229329"
       inkscape:transform-center-y="-0.0896128" />
    <g
       ns1:text="$M^{-1}$"
       transform="matrix(0.58952442,0,0,0.58952442,8.3083233,-15.299282)"
       style="display:inline;fill:#0044aa;fill-opacity:1;stroke-width:0.786952;stroke-miterlimit:3.2;stroke-dasharray:none;stroke-dashoffset:0"
       id="g5301">
      <g
         id="g5299"
         style="fill:#0044aa;fill-opacity:1">
        <g
           style="fill:#0044aa;fill-opacity:1"
           id="g5289"
           transform="translate(2.6928486)">
          <path
             style="fill:#0044aa;fill-opacity:1;stroke:none"
             d="M 9.34375,-6.625 9.375,-6.890625 H 9.09375 C 8.8125,-6.875 8.65625,-6.875 8.53125,-6.875 H 8.296875 l -0.59375,-0.015625 -0.15625,0.296875 c -0.265625,0.515625 -0.453125,0.859375 -0.6875,1.25 l -2.453125,4.203125 -1.5,-5.75 H 2.625 C 2.359375,-6.875 2.203125,-6.875 2.078125,-6.875 h -0.25 L 1.25,-6.890625 1.21875,-6.625 l 0.25,0.03125 C 2,-6.5625 2.171875,-6.453125 2.171875,-6.203125 c 0,0.0625 -0.015625,0.125 -0.03125,0.203125 l -1.4375,5.078125 c -0.171875,0.515625 -0.3125,0.640625 -0.859375,0.6875 L -0.1875,0.03125 0.203125,0.015625 C 0.53125,0.015625 0.78125,0 0.921875,0 c 0.140625,0 0.40625,0.015625 0.75,0.015625 L 2.03125,0.03125 2.046875,-0.25 1.671875,-0.28125 C 1.359375,-0.296875 1.1875,-0.40625 1.1875,-0.546875 c 0,-0.09375 0.015625,-0.234375 0.0625,-0.40625 l 1.25,-4.625 1.484375,5.75 h 0.21875 l 0.578125,-1.03125 c 0.765625,-1.40625 1.703125,-3.015625 2.375,-4.125 l 0.515625,-0.875 -0.359375,5.1875 C 7.265625,-0.390625 7.140625,-0.3125 6.640625,-0.28125 L 6.328125,-0.25 6.296875,0.03125 6.765625,0.015625 C 7.1875,0.015625 7.484375,0 7.640625,0 7.796875,0 8.09375,0.015625 8.5,0.015625 L 8.96875,0.03125 8.984375,-0.25 8.625,-0.28125 C 8.265625,-0.3125 8.078125,-0.421875 8.078125,-0.625 L 8.09375,-1 8.5,-6.296875 c 0.015625,-0.1875 0.171875,-0.28125 0.46875,-0.296875 z m 0,0"
             transform="translate(178.585,110.99)"
             id="path5287" />
        </g>
      </g>
    </g>
    <path
       style="display:inline;fill:#0044aa;fill-opacity:1;stroke:none;stroke-width:0.432785;stroke-linecap:round;stroke-linejoin:bevel;stroke-miterlimit:3.2;stroke-dasharray:none;stroke-dashoffset:0;paint-order:fill markers stroke"
       d="m 64.313807,47.694373 a 1.5456599,1.5456599 0 0 1 -1.54566,1.54566 1.5456599,1.5456599 0 0 1 -1.54566,-1.54566 1.5456599,1.5456599 0 0 1 1.54566,-1.54566 1.5456599,1.5456599 0 0 1 1.54566,1.54566 z"
       id="path1051" />
    <path
       style="fill:#0044aa;fill-opacity:1;stroke:#0044aa;stroke-width:0.264583;stroke-linecap:butt;stroke-linejoin:miter;stroke-miterlimit:4;stroke-dasharray:0.793749, 0.264583;stroke-dashoffset:0;stroke-opacity:0.590626"
       d="M 72.812171,58.541488 104.93542,53.871719"
       id="path3757" />
    <path
       style="fill:#0044aa;fill-opacity:1;stroke:#0044aa;stroke-width:0.264583;stroke-linecap:butt;stroke-linejoin:miter;stroke-miterlimit:4;stroke-dasharray:0.793749, 0.264583;stroke-dashoffset:0;stroke-opacity:0.590626"
       d="M 156.49426,58.541488 132.13904,53.871719"
       id="path3759" />
    <path
       style="fill:none;stroke:#0044aa;stroke-width:0.352778;stroke-linecap:butt;stroke-linejoin:miter;stroke-miterlimit:4;stroke-dasharray:none;stroke-opacity:1"
       d="m 64.313807,47.694373 38.426773,-0.0053 v 0"
       id="path3761"
       sodipodi:nodetypes="ccc" />
    <path
       style="fill:none;stroke:#0044aa;stroke-width:0.352778;stroke-linecap:butt;stroke-linejoin:miter;stroke-miterlimit:4;stroke-dasharray:none;stroke-opacity:1"
       d="m 132.13904,47.689079 30.4323,0.234815"
       id="path3763" />
    <g
       ns1:text="$\bm{r}(k)$"
       transform="matrix(0.4395761,0,0,0.42312476,-18.091362,-2.6935889)"
       style="display:inline;fill:#0044aa;fill-opacity:1;stroke-width:1.00351;stroke-miterlimit:3.2;stroke-dasharray:none;stroke-dashoffset:0"
       id="g4036">
      <g
         id="surface1"
         style="fill:#0044aa;fill-opacity:1">
        <g
           style="fill:#0044aa;fill-opacity:1"
           id="g4021">
          <path
             style="fill:#0044aa;fill-opacity:1;stroke:none"
             d="M 4.421875,-4 C 3.875,-3.890625 3.8125,-3.40625 3.8125,-3.3125 c 0,0.21875 0.171875,0.46875 0.5,0.46875 0.34375,0 0.71875,-0.28125 0.71875,-0.796875 C 5.03125,-4.09375 4.671875,-4.5 4.0625,-4.5 3.5,-4.5 3.03125,-4.234375 2.734375,-3.90625 2.5,-4.359375 1.921875,-4.5 1.5625,-4.5 c -0.359375,0 -0.640625,0.203125 -0.859375,0.5625 -0.25,0.390625 -0.390625,0.921875 -0.390625,0.984375 0,0.140625 0.15625,0.140625 0.25,0.140625 0.109375,0 0.140625,0 0.1875,-0.046875 C 0.78125,-2.875 0.78125,-2.90625 0.84375,-3.15625 c 0.1875,-0.75 0.40625,-0.984375 0.671875,-0.984375 0.15625,0 0.234375,0.09375 0.234375,0.359375 0,0.171875 -0.03125,0.28125 -0.140625,0.75 -0.046875,0.171875 -0.21875,0.828125 -0.28125,1.078125 -0.046875,0.1875 -0.15625,0.640625 -0.203125,0.8125 -0.0625,0.265625 -0.171875,0.71875 -0.171875,0.78125 0,0.203125 0.15625,0.4375 0.46875,0.4375 0.1875,0 0.546875,-0.125 0.65625,-0.53125 0,-0.03125 0.6875,-2.734375 0.6875,-2.796875 C 2.8125,-3.40625 2.8125,-3.421875 2.9375,-3.5625 c 0.234375,-0.296875 0.59375,-0.578125 1.09375,-0.578125 0.25,0 0.359375,0.109375 0.390625,0.140625 z m 0,0"
             transform="translate(178.585,110.99)"
             id="path4019" />
        </g>
        <g
           style="fill:#0044aa;fill-opacity:1"
           id="g4025">
          <path
             style="fill:#0044aa;fill-opacity:1;stroke:none"
             d="M 3,1.9375 C 2.28125,1.046875 2.03125,0.5625 1.765625,-0.328125 1.5625,-1.046875 1.453125,-1.796875 1.453125,-2.65625 1.453125,-3.484375 1.5625,-4.1875 1.75,-4.828125 2,-5.65625 2.265625,-6.125 3,-6.984375 l -0.1875,-0.25 c -1.03125,0.921875 -1.453125,1.46875 -1.828125,2.453125 -0.25,0.671875 -0.390625,1.375 -0.390625,2.125 0,1.078125 0.25,2.078125 0.734375,2.96875 C 1.671875,0.984375 2,1.375 2.8125,2.140625 Z m 0,0"
             transform="translate(184.17,110.99)"
             id="path4023" />
        </g>
        <g
           style="fill:#0044aa;fill-opacity:1"
           id="g4029">
          <path
             style="fill:#0044aa;fill-opacity:1;stroke:none"
             d="M 2.328125,-7.203125 2.21875,-7.3125 C 1.6875,-7.046875 1.328125,-6.953125 0.625,-6.890625 l -0.046875,0.21875 H 1.0625 c 0.234375,0 0.328125,0.0625 0.328125,0.234375 0,0.078125 0,0.171875 -0.015625,0.234375 L 0.890625,-3.53125 c -0.140625,0.75 -0.296875,1.4375 -0.8125,3.515625 L 0.171875,0.09375 0.84375,-0.078125 1.0625,-1.3125 c 0.09375,-0.484375 0.328125,-0.9375 0.671875,-1.265625 0.6875,1.984375 1,2.671875 1.25,2.671875 0.140625,0 0.375,-0.140625 0.8125,-0.4375 L 4.25,-0.671875 4.171875,-0.859375 3.75,-0.625 c -0.140625,0.09375 -0.21875,0.109375 -0.296875,0.109375 -0.09375,0 -0.15625,-0.0625 -0.25,-0.234375 C 2.84375,-1.390625 2.625,-1.921875 2.25,-3.15625 l 0.125,-0.140625 c 0.609375,-0.59375 1.078125,-0.84375 1.578125,-0.84375 0.078125,0 0.1875,0.015625 0.359375,0.046875 l 0.15625,-0.625 C 4.296875,-4.78125 4.109375,-4.8125 4,-4.8125 c -0.65625,0 -1.484375,0.78125 -2.734375,2.515625 z m 0,0"
             transform="translate(187.488,110.99)"
             id="path4027" />
        </g>
        <g
           style="fill:#0044aa;fill-opacity:1"
           id="g4033">
          <path
             style="fill:#0044aa;fill-opacity:1;stroke:none"
             d="m 0.515625,2.140625 c 0.6875,-0.640625 0.96875,-0.96875 1.28125,-1.46875 0.609375,-0.96875 0.921875,-2.125 0.921875,-3.3125 0,-0.765625 -0.125,-1.46875 -0.390625,-2.140625 -0.375,-0.96875 -0.78125,-1.515625 -1.8125,-2.453125 l -0.203125,0.25 c 0.734375,0.859375 1,1.328125 1.25,2.15625 0.203125,0.640625 0.296875,1.34375 0.296875,2.171875 0,0.859375 -0.09375,1.609375 -0.296875,2.328125 -0.265625,0.890625 -0.53125,1.375 -1.25,2.265625 z m 0,0"
             transform="translate(191.961,110.99)"
             id="path4031" />
        </g>
      </g>
    </g>
  </g>
  <g
     inkscape:label="real"
     inkscape:groupmode="layer"
     id="layer1"
     style="display:inline;opacity:1">
    <g
       inkscape:groupmode="layer"
       id="layer4"
       inkscape:label="MF"
       style="display:inline"
       transform="matrix(0.8,0,0,0.8,21.174011,12.465023)">
      <circle
         style="display:inline;fill:#ffffff;stroke:#808080;stroke-width:0.433;stroke-miterlimit:3.2;stroke-dasharray:none;stroke-dashoffset:0"
         id="path2248"
         cx="6.7379627"
         cy="105.1344"
         r="2.960454"
         transform="matrix(0.88388349,-0.88388349,0.88388349,0.88388349,-26.467514,-15.581279)"
         inkscape:transform-center-x="0.47720466"
         inkscape:transform-center-y="5.2243011" />
      <path
         style="display:inline;fill:#808080;fill-opacity:1;stroke:none;stroke-width:0.163582px;stroke-linecap:butt;stroke-linejoin:miter;stroke-opacity:1"
         d="m 79.105779,72.907851 -1.236527,1.978451 h 2.473055 z"
         id="path6735"
         sodipodi:nodetypes="cccc"
         transform="matrix(1.25,0,0,1.25,-26.467514,-15.581279)" />
      <path
         style="display:inline;fill:#0044aa;fill-opacity:1;stroke:none;stroke-width:0.163582px;stroke-linecap:butt;stroke-linejoin:miter;stroke-opacity:1"
         d="m 76.01439,69.57679 -1.978451,-1.236528 v 2.473056 z"
         id="path7074"
         sodipodi:nodetypes="cccc"
         inkscape:transform-center-x="1.6229395"
         inkscape:transform-center-y="0.089616257"
         transform="matrix(1.25,0,0,1.25,-26.467514,-15.581279)" />
      <g
         id="g7303"
         style="display:inline;fill:#000000;fill-opacity:0;stroke-width:1.00351;stroke-miterlimit:3.2;stroke-dasharray:none;stroke-dashoffset:0"
         transform="matrix(0.54947013,0,0,0.52890595,-20.479905,9.4320998)">
        <g
           style="fill:#000000;fill-opacity:0;stroke-width:1.00351"
           id="g7285">
          <path
             style="fill:#000000;fill-opacity:0;stroke:none;stroke-width:1.00351"
             d="M 4.28125,-5.578125 V -5.875 H 0.6875 v 0.296875 z m 0,0"
             transform="translate(178.967,110.99)"
             id="path7283" />
        </g>
        <g
           style="fill:#000000;fill-opacity:0;stroke-width:1.00351"
           id="g7289">
          <path
             style="fill:#000000;fill-opacity:0;stroke:none;stroke-width:1.00351"
             d="m 1.859375,-2.296875 c 0.296875,0 1.03125,-0.03125 1.53125,-0.234375 0.703125,-0.296875 0.75,-0.890625 0.75,-1.03125 0,-0.4375 -0.375,-0.84375 -1.0625,-0.84375 -1.109375,0 -2.625,0.96875 -2.625,2.71875 0,1.015625 0.59375,1.796875 1.578125,1.796875 1.421875,0 2.25,-1.0625 2.25,-1.171875 0,-0.0625 -0.046875,-0.140625 -0.109375,-0.140625 -0.0625,0 -0.078125,0.03125 -0.140625,0.109375 -0.78125,0.984375 -1.875,0.984375 -1.984375,0.984375 -0.78125,0 -0.875,-0.84375 -0.875,-1.15625 0,-0.125 0.015625,-0.421875 0.15625,-1.03125 z m -0.46875,-0.21875 C 1.78125,-4.03125 2.8125,-4.1875 3.078125,-4.1875 c 0.453125,0 0.734375,0.296875 0.734375,0.625 0,1.046875 -1.59375,1.046875 -2.015625,1.046875 z m 0,0"
             transform="translate(178.584,110.99)"
             id="path7287" />
        </g>
        <g
           style="fill:#000000;fill-opacity:0;stroke-width:1.00351"
           id="g7293">
          <path
             style="fill:#000000;fill-opacity:0;stroke:none;stroke-width:1.00351"
             d="m 3.296875,2.390625 c 0,-0.03125 0,-0.046875 -0.171875,-0.21875 C 1.890625,0.921875 1.5625,-0.96875 1.5625,-2.5 c 0,-1.734375 0.375,-3.46875 1.609375,-4.703125 0.125,-0.125 0.125,-0.140625 0.125,-0.171875 0,-0.078125 -0.03125,-0.109375 -0.09375,-0.109375 -0.109375,0 -1,0.6875 -1.59375,1.953125 -0.5,1.09375 -0.625,2.203125 -0.625,3.03125 0,0.78125 0.109375,1.984375 0.65625,3.125 C 2.25,1.84375 3.09375,2.5 3.203125,2.5 c 0.0625,0 0.09375,-0.03125 0.09375,-0.109375 z m 0,0"
             transform="translate(183.223,110.99)"
             id="path7291" />
        </g>
        <g
           style="fill:#000000;fill-opacity:0;stroke-width:1.00351"
           id="g7297">
          <path
             style="fill:#000000;fill-opacity:0;stroke:none;stroke-width:1.00351"
             d="m 2.859375,-6.8125 c 0,0 0,-0.109375 -0.125,-0.109375 -0.234375,0 -0.953125,0.078125 -1.21875,0.109375 -0.078125,0 -0.1875,0.015625 -0.1875,0.1875 0,0.125 0.09375,0.125 0.234375,0.125 0.484375,0 0.5,0.0625 0.5,0.171875 L 2.03125,-6.125 0.59375,-0.390625 c -0.046875,0.140625 -0.046875,0.15625 -0.046875,0.21875 0,0.234375 0.203125,0.28125 0.296875,0.28125 0.125,0 0.265625,-0.09375 0.328125,-0.203125 0.046875,-0.09375 0.5,-1.9375 0.5625,-2.1875 0.34375,0.03125 1.15625,0.1875 1.15625,0.84375 0,0.078125 0,0.109375 -0.03125,0.21875 -0.015625,0.109375 -0.03125,0.234375 -0.03125,0.34375 0,0.578125 0.390625,0.984375 0.90625,0.984375 0.296875,0 0.578125,-0.15625 0.796875,-0.53125 0.25,-0.4375 0.359375,-0.984375 0.359375,-1 0,-0.109375 -0.09375,-0.109375 -0.125,-0.109375 -0.09375,0 -0.109375,0.046875 -0.140625,0.1875 -0.203125,0.71875 -0.421875,1.234375 -0.859375,1.234375 -0.203125,0 -0.328125,-0.109375 -0.328125,-0.46875 0,-0.171875 0.046875,-0.40625 0.078125,-0.5625 C 3.5625,-1.3125 3.5625,-1.34375 3.5625,-1.453125 3.5625,-2.09375 2.9375,-2.375 2.078125,-2.5 2.390625,-2.671875 2.71875,-2.984375 2.9375,-3.234375 3.421875,-3.765625 3.875,-4.1875 4.359375,-4.1875 c 0.0625,0 0.078125,0 0.09375,0.015625 0.125,0.015625 0.125,0.015625 0.21875,0.078125 0.015625,0 0.015625,0.015625 0.03125,0.03125 -0.46875,0.03125 -0.5625,0.421875 -0.5625,0.546875 0,0.15625 0.109375,0.34375 0.375,0.34375 0.265625,0 0.546875,-0.21875 0.546875,-0.609375 0,-0.296875 -0.234375,-0.625 -0.671875,-0.625 -0.28125,0 -0.734375,0.078125 -1.453125,0.875 -0.34375,0.375 -0.734375,0.78125 -1.109375,0.921875 z m 0,0"
             transform="translate(187.098,110.99)"
             id="path7295" />
        </g>
        <g
           style="fill:#000000;fill-opacity:0;stroke-width:1.00351"
           id="g7301">
          <path
             style="fill:#000000;fill-opacity:0;stroke:none;stroke-width:1.00351"
             d="m 2.875,-2.5 c 0,-0.765625 -0.109375,-1.96875 -0.65625,-3.109375 -0.59375,-1.21875 -1.453125,-1.875 -1.546875,-1.875 -0.0625,0 -0.109375,0.046875 -0.109375,0.109375 0,0.03125 0,0.046875 0.1875,0.234375 0.984375,0.984375 1.546875,2.5625 1.546875,4.640625 0,1.71875 -0.359375,3.46875 -1.59375,4.71875 C 0.5625,2.34375 0.5625,2.359375 0.5625,2.390625 0.5625,2.453125 0.609375,2.5 0.671875,2.5 0.765625,2.5 1.671875,1.8125 2.25,0.546875 2.765625,-0.546875 2.875,-1.65625 2.875,-2.5 Z m 0,0"
             transform="translate(192.598,110.99)"
             id="path7299" />
        </g>
      </g>
      <path
         d="m 75.223359,71.41413 v 0.721261 h 0.721262 v 0.220133 h -0.721262 v 0.72126 h -0.217543 v -0.72126 h -0.721261 v -0.220133 h 0.721261 V 71.41413 Z"
         style="font-style:normal;font-weight:normal;font-size:4.28937px;line-height:1.25;font-family:sans-serif;display:inline;fill:#0044aa;fill-opacity:1;stroke:none;stroke-width:0.433;stroke-miterlimit:3.2;stroke-dasharray:none;stroke-dashoffset:0"
         id="path6859"
         transform="matrix(1.25,0,0,1.25,-26.467514,-15.581279)" />
      <path
         d="M 80.928632,73.640326 H 82.2289 v 0.264312 h -1.300268 z"
         style="font-style:normal;font-weight:normal;font-size:4.28937px;line-height:1.25;font-family:sans-serif;display:inline;fill:#808080;fill-opacity:1;stroke:none;stroke-width:0.433;stroke-miterlimit:3.2;stroke-dasharray:none;stroke-dashoffset:0"
         id="path6856"
         transform="matrix(1.25,0,0,1.25,-26.467514,-15.581279)" />
      <path
         style="display:inline;fill:none;fill-opacity:1;fill-rule:evenodd;stroke:#0044aa;stroke-width:0.352778;stroke-linecap:butt;stroke-linejoin:bevel;stroke-miterlimit:3.2;stroke-dasharray:none;stroke-dashoffset:0;stroke-opacity:1"
         d="M 75.396126,69.57679 H 66.74043 V 47.694039"
         id="path2252"
         sodipodi:nodetypes="cc"
         transform="matrix(1.25,0,0,1.25,-26.467514,-15.581279)" />
      <path
         style="display:inline;fill:none;fill-rule:evenodd;stroke:#808080;stroke-width:0.352778;stroke-linecap:butt;stroke-linejoin:miter;stroke-miterlimit:3.2;stroke-dasharray:none;stroke-dashoffset:0;stroke-opacity:1"
         d="m 79.10571,73.286374 v 11.747015 l 74.58888,0.05161 V 69.628396"
         id="path2334"
         sodipodi:nodetypes="cccc"
         transform="matrix(1.25,0,0,1.25,-26.467514,-15.581279)" />
      <rect
         style="display:inline;fill:#ffffff;stroke:#808080;stroke-width:0.352778;stroke-linecap:butt;stroke-linejoin:miter;stroke-miterlimit:3.2;stroke-dasharray:none;stroke-dashoffset:0;stroke-opacity:1"
         id="rect833"
         width="24.677658"
         height="11.939309"
         x="92.1912"
         y="63.663406"
         ry="2.2772419e-06"
         transform="matrix(1.25,0,0,1.25,-26.467514,-15.581279)" />
      <path
         style="display:inline;fill:#808080;fill-rule:evenodd;stroke:#808080;stroke-width:0.352778;stroke-linecap:butt;stroke-linejoin:bevel;stroke-miterlimit:3.2;stroke-dasharray:none;stroke-dashoffset:0;stroke-opacity:1"
         d="m 82.19729,69.602805 7.838117,-0.02603"
         id="path6151"
         inkscape:connector-curvature="0"
         inkscape:connector-type="polyline"
         sodipodi:nodetypes="cc"
         transform="matrix(1.25,0,0,1.25,-26.467514,-15.581279)" />
      <path
         style="display:inline;fill:#808080;fill-opacity:1;stroke:#808080;stroke-width:0.163582px;stroke-linecap:butt;stroke-linejoin:miter;stroke-opacity:1"
         d="M 91.961361,69.633059 89.98291,68.396532 v 2.473055 z"
         id="path6741"
         sodipodi:nodetypes="cccc"
         inkscape:transform-center-x="1.6229395"
         inkscape:transform-center-y="0.089616257"
         transform="matrix(1.25,0,0,1.25,-26.467514,-15.581279)" />
      <path
         id="path6784"
         style="display:inline;fill:#808080;fill-opacity:1;stroke:none;stroke-width:0.327165;stroke-linecap:round;stroke-linejoin:bevel;stroke-miterlimit:4;stroke-dasharray:none;stroke-dashoffset:0;paint-order:fill markers stroke"
         d="m 163.71877,71.454216 a 1.9320749,1.9320749 0 0 0 1.93216,1.932152 1.9320749,1.9320749 0 0 0 1.93175,-1.932152 z" />
      <g
         ns1:text="$C(\bm{\theta})$"
         transform="matrix(0.6,0,0,0.6,-8.6706399,6.3941722)"
         id="g3909"
         style="fill:#808080;fill-opacity:1">
        <g
           id="g3907"
           style="fill:#808080;fill-opacity:1">
          <g
             style="fill:#808080;fill-opacity:1"
             id="g3893">
            <path
               style="fill:#808080;fill-opacity:1;stroke:none"
               d="M 5.953125,-5.171875 H 6.21875 c 0.046875,-0.5625 0.125,-1 0.265625,-1.453125 -0.75,-0.296875 -1.328125,-0.40625 -1.9375,-0.40625 -0.8125,0 -1.640625,0.25 -2.328125,0.71875 -1.171875,0.78125 -1.765625,1.953125 -1.765625,3.484375 0,1.9375 1.0625,3 2.96875,3 0.953125,0 1.65625,-0.21875 2.5625,-0.84375 l 0.09375,-0.359375 -0.09375,-0.0625 c -0.9375,0.5625 -1.453125,0.75 -2.234375,0.75 -1.5625,0 -2.421875,-0.96875 -2.421875,-2.734375 0,-1.109375 0.34375,-2.09375 0.9375,-2.71875 0.46875,-0.46875 1.109375,-0.71875 1.90625,-0.71875 0.703125,0 1.21875,0.140625 1.78125,0.5 z m 0,0"
               transform="translate(178.585,110.99)"
               id="path3891" />
          </g>
          <g
             style="fill:#808080;fill-opacity:1"
             id="g3897">
            <path
               style="fill:#808080;fill-opacity:1;stroke:none"
               d="M 3,1.9375 C 2.28125,1.046875 2.03125,0.5625 1.765625,-0.328125 1.5625,-1.046875 1.453125,-1.796875 1.453125,-2.65625 1.453125,-3.484375 1.5625,-4.1875 1.75,-4.828125 2,-5.65625 2.265625,-6.125 3,-6.984375 l -0.1875,-0.25 c -1.03125,0.921875 -1.453125,1.46875 -1.828125,2.453125 -0.25,0.671875 -0.390625,1.375 -0.390625,2.125 0,1.078125 0.25,2.078125 0.734375,2.96875 C 1.671875,0.984375 2,1.375 2.8125,2.140625 Z m 0,0"
               transform="translate(185.23,110.99)"
               id="path3895" />
          </g>
          <g
             style="fill:#808080;fill-opacity:1"
             id="g3901">
            <path
               style="fill:#808080;fill-opacity:1;stroke:none"
               d="M 5.453125,-4.890625 C 5.453125,-6.640625 4.421875,-7 3.8125,-7 c -0.796875,0 -1.78125,0.515625 -2.53125,1.875 -0.515625,0.9375 -0.828125,2.296875 -0.828125,3.09375 0,1.453125 0.765625,2.109375 1.65625,2.109375 0.671875,0 1.546875,-0.390625 2.234375,-1.40625 0.84375,-1.21875 1.109375,-2.8125 1.109375,-3.5625 z m -3.484375,1.1875 c 0.140625,-0.578125 0.40625,-1.484375 0.703125,-2 0.234375,-0.40625 0.640625,-0.9375 1.109375,-0.9375 0.421875,0 0.609375,0.4375 0.609375,1.03125 0,0.625 -0.21875,1.5 -0.328125,1.90625 z M 3.9375,-3.21875 c -0.625,2.671875 -1.453125,2.9375 -1.796875,2.9375 C 2,-0.28125 1.78125,-0.3125 1.640625,-0.625 1.53125,-0.890625 1.53125,-1.28125 1.53125,-1.296875 c 0,-0.5625 0.21875,-1.5 0.328125,-1.921875 z m 0,0"
               transform="translate(188.547,110.99)"
               id="path3899" />
          </g>
          <g
             style="fill:#808080;fill-opacity:1"
             id="g3905">
            <path
               style="fill:#808080;fill-opacity:1;stroke:none"
               d="m 0.515625,2.140625 c 0.6875,-0.640625 0.96875,-0.96875 1.28125,-1.46875 0.609375,-0.96875 0.921875,-2.125 0.921875,-3.3125 0,-0.765625 -0.125,-1.46875 -0.390625,-2.140625 -0.375,-0.96875 -0.78125,-1.515625 -1.8125,-2.453125 l -0.203125,0.25 c 0.734375,0.859375 1,1.328125 1.25,2.15625 0.203125,0.640625 0.296875,1.34375 0.296875,2.171875 0,0.859375 -0.09375,1.609375 -0.296875,2.328125 -0.265625,0.890625 -0.53125,1.375 -1.25,2.265625 z m 0,0"
               transform="translate(194.462,110.99)"
               id="path3903" />
          </g>
        </g>
      </g>
      <g
         ns1:text="$\bm{y}_{RM}(k)$"
         transform="matrix(0.6,0,0,0.6,62.390005,-25.466062)"
         style="fill:#0044aa;fill-opacity:1"
         id="g4259">
        <g
           id="g4257"
           style="fill:#0044aa;fill-opacity:1">
          <g
             style="fill:#0044aa;fill-opacity:1"
             id="g4237">
            <path
               style="fill:#0044aa;fill-opacity:1;stroke:none"
               d="m 5.75,-3.765625 c 0.046875,-0.171875 0.046875,-0.1875 0.046875,-0.21875 0,-0.21875 -0.15625,-0.4375 -0.46875,-0.4375 -0.515625,0 -0.640625,0.46875 -0.703125,0.734375 L 4.359375,-2.65625 C 4.25,-2.171875 4.0625,-1.40625 3.953125,-1 3.890625,-0.78125 3.59375,-0.53125 3.5625,-0.515625 3.453125,-0.453125 3.203125,-0.28125 2.875,-0.28125 c -0.578125,0 -0.59375,-0.5 -0.59375,-0.71875 0,-0.609375 0.3125,-1.390625 0.59375,-2.109375 C 2.96875,-3.375 3,-3.4375 3,-3.609375 3,-4.1875 2.421875,-4.5 1.875,-4.5 c -1.0625,0 -1.5625,1.34375 -1.5625,1.546875 0,0.140625 0.15625,0.140625 0.25,0.140625 0.109375,0 0.1875,0 0.21875,-0.125 0.328125,-1.109375 0.890625,-1.203125 1.03125,-1.203125 0.078125,0 0.171875,0 0.171875,0.203125 0,0.234375 -0.109375,0.484375 -0.171875,0.640625 -0.390625,1 -0.59375,1.578125 -0.59375,2.078125 0,1.140625 1,1.296875 1.578125,1.296875 0.25,0 0.59375,-0.03125 0.96875,-0.296875 C 3.484375,1 2.734375,1.65625 2.046875,1.65625 1.90625,1.65625 1.640625,1.640625 1.4375,1.515625 1.75,1.390625 1.90625,1.109375 1.90625,0.84375 1.90625,0.484375 1.625,0.390625 1.421875,0.390625 c -0.359375,0 -0.71875,0.3125 -0.71875,0.75 0,0.515625 0.53125,0.875 1.34375,0.875 1.140625,0 2.453125,-0.765625 2.765625,-2 z m 0,0"
               transform="translate(178.585,110.99)"
               id="path4235" />
          </g>
          <g
             style="fill:#0044aa;fill-opacity:1"
             id="g4243">
            <path
               style="fill:#0044aa;fill-opacity:1;stroke:none"
               d="M 0.734375,-4.625 1.125,-4.609375 c 0.171875,0 0.234375,0.0625 0.234375,0.1875 0,0.09375 -0.015625,0.3125 -0.0625,0.53125 L 0.78125,-0.875 C 0.671875,-0.234375 0.65625,-0.21875 0.375,-0.1875 L 0.09375,-0.171875 0.0625,0.015625 H 0.359375 C 0.6875,0 0.8125,0 0.984375,0 L 1.65625,0.015625 h 0.1875 l 0.015625,-0.1875 -0.34375,-0.015625 c -0.1875,-0.015625 -0.25,-0.078125 -0.25,-0.21875 0,-0.0625 0.015625,-0.125 0.03125,-0.234375 l 0.59375,-3.40625 c 0,-0.015625 0.03125,-0.140625 0.0625,-0.28125 C 1.96875,-4.375 1.984375,-4.421875 2,-4.515625 c 0.203125,-0.046875 0.34375,-0.0625 0.53125,-0.0625 0.609375,0 0.921875,0.28125 0.921875,0.796875 0,0.65625 -0.546875,1.140625 -1.265625,1.140625 H 1.875 L 1.859375,-2.5625 c 0.9375,1.359375 1.15625,1.703125 1.671875,2.578125 L 4,0 h 0.125 c 0,0 0.109375,0 0.234375,0.015625 h 0.09375 v -0.1875 c -0.28125,-0.03125 -0.359375,-0.09375 -0.5625,-0.375 L 2.609375,-2.46875 C 3,-2.53125 3.203125,-2.625 3.453125,-2.796875 3.859375,-3.09375 4.0625,-3.484375 4.0625,-3.90625 4.0625,-4.5 3.625,-4.84375 2.84375,-4.828125 l -1.03125,0.03125 c -0.109375,0 -0.234375,0 -1.0625,-0.03125 z m 0,0"
               transform="translate(184.465,112.485)"
               id="path4239" />
            <path
               style="fill:#0044aa;fill-opacity:1;stroke:none"
               d="M 6.53125,-4.625 6.546875,-4.828125 6.359375,-4.8125 C 6.15625,-4.796875 6.0625,-4.796875 5.96875,-4.796875 H 5.796875 l -0.40625,-0.03125 -0.109375,0.21875 c -0.1875,0.359375 -0.328125,0.59375 -0.484375,0.875 l -1.71875,2.9375 L 2.03125,-4.828125 1.84375,-4.8125 C 1.640625,-4.796875 1.546875,-4.796875 1.453125,-4.796875 H 1.28125 L 0.875,-4.828125 0.84375,-4.625 l 0.1875,0.015625 c 0.359375,0.03125 0.484375,0.09375 0.484375,0.28125 0,0.03125 0,0.078125 -0.015625,0.140625 L 0.484375,-0.640625 C 0.375,-0.28125 0.265625,-0.1875 -0.109375,-0.15625 L -0.125,0.015625 H 0.140625 C 0.375,0 0.546875,0 0.640625,0 0.75,0 0.921875,0 1.171875,0.015625 h 0.25 L 1.4375,-0.171875 1.171875,-0.1875 c -0.21875,-0.015625 -0.34375,-0.09375 -0.34375,-0.203125 0,-0.0625 0.015625,-0.15625 0.046875,-0.28125 L 1.734375,-3.90625 2.78125,0.125 H 2.9375 L 3.34375,-0.59375 C 3.875,-1.578125 4.53125,-2.703125 5,-3.484375 l 0.359375,-0.609375 -0.25,3.625 C 5.078125,-0.265625 5,-0.21875 4.640625,-0.1875 l -0.21875,0.015625 -0.015625,0.1875 H 4.734375 C 5.03125,0 5.234375,0 5.34375,0 5.453125,0 5.65625,0 5.9375,0.015625 h 0.328125 l 0.015625,-0.1875 -0.25,-0.015625 c -0.25,-0.03125 -0.375,-0.109375 -0.375,-0.25 v -0.265625 l 0.28125,-3.6875 c 0.015625,-0.140625 0.125,-0.203125 0.328125,-0.21875 z m 0,0"
               transform="translate(189.11652,112.485)"
               id="path4241" />
          </g>
          <g
             style="fill:#0044aa;fill-opacity:1"
             id="g4247">
            <path
               style="fill:#0044aa;fill-opacity:1;stroke:none"
               d="M 3,1.9375 C 2.28125,1.046875 2.03125,0.5625 1.765625,-0.328125 1.5625,-1.046875 1.453125,-1.796875 1.453125,-2.65625 1.453125,-3.484375 1.5625,-4.1875 1.75,-4.828125 2,-5.65625 2.265625,-6.125 3,-6.984375 l -0.1875,-0.25 c -1.03125,0.921875 -1.453125,1.46875 -1.828125,2.453125 -0.25,0.671875 -0.390625,1.375 -0.390625,2.125 0,1.078125 0.25,2.078125 0.734375,2.96875 C 1.671875,0.984375 2,1.375 2.8125,2.140625 Z m 0,0"
               transform="translate(196.198,110.99)"
               id="path4245" />
          </g>
          <g
             style="fill:#0044aa;fill-opacity:1"
             id="g4251">
            <path
               style="fill:#0044aa;fill-opacity:1;stroke:none"
               d="M 2.328125,-7.203125 2.21875,-7.3125 C 1.6875,-7.046875 1.328125,-6.953125 0.625,-6.890625 l -0.046875,0.21875 H 1.0625 c 0.234375,0 0.328125,0.0625 0.328125,0.234375 0,0.078125 0,0.171875 -0.015625,0.234375 L 0.890625,-3.53125 c -0.140625,0.75 -0.296875,1.4375 -0.8125,3.515625 L 0.171875,0.09375 0.84375,-0.078125 1.0625,-1.3125 c 0.09375,-0.484375 0.328125,-0.9375 0.671875,-1.265625 0.6875,1.984375 1,2.671875 1.25,2.671875 0.140625,0 0.375,-0.140625 0.8125,-0.4375 L 4.25,-0.671875 4.171875,-0.859375 3.75,-0.625 c -0.140625,0.09375 -0.21875,0.109375 -0.296875,0.109375 -0.09375,0 -0.15625,-0.0625 -0.25,-0.234375 C 2.84375,-1.390625 2.625,-1.921875 2.25,-3.15625 l 0.125,-0.140625 c 0.609375,-0.59375 1.078125,-0.84375 1.578125,-0.84375 0.078125,0 0.1875,0.015625 0.359375,0.046875 l 0.15625,-0.625 C 4.296875,-4.78125 4.109375,-4.8125 4,-4.8125 c -0.65625,0 -1.484375,0.78125 -2.734375,2.515625 z m 0,0"
               transform="translate(199.516,110.99)"
               id="path4249" />
          </g>
          <g
             style="fill:#0044aa;fill-opacity:1"
             id="g4255">
            <path
               style="fill:#0044aa;fill-opacity:1;stroke:none"
               d="m 0.515625,2.140625 c 0.6875,-0.640625 0.96875,-0.96875 1.28125,-1.46875 0.609375,-0.96875 0.921875,-2.125 0.921875,-3.3125 0,-0.765625 -0.125,-1.46875 -0.390625,-2.140625 -0.375,-0.96875 -0.78125,-1.515625 -1.8125,-2.453125 l -0.203125,0.25 c 0.734375,0.859375 1,1.328125 1.25,2.15625 0.203125,0.640625 0.296875,1.34375 0.296875,2.171875 0,0.859375 -0.09375,1.609375 -0.296875,2.328125 -0.265625,0.890625 -0.53125,1.375 -1.25,2.265625 z m 0,0"
               transform="translate(203.989,110.99)"
               id="path4253" />
          </g>
        </g>
      </g>
    </g>
    <path
       style="fill:none;fill-rule:evenodd;stroke:#000000;stroke-width:0.352778;stroke-linecap:butt;stroke-linejoin:miter;stroke-miterlimit:3.2;stroke-dasharray:none;stroke-opacity:1"
       d="m 116.86886,69.637724 10.94233,-0.0093"
       id="path1786"
       inkscape:connector-type="polyline"
       inkscape:connector-curvature="0"
       sodipodi:nodetypes="cc" />
    <path
       style="fill:#000000;stroke:#000000;stroke-width:0.163582px;stroke-linecap:butt;stroke-linejoin:miter;stroke-opacity:1"
       d="m 128.27513,69.628396 -1.97845,-1.236528 v 2.473056 z"
       id="path6745"
       sodipodi:nodetypes="cccc"
       inkscape:transform-center-x="1.6229395"
       inkscape:transform-center-y="0.089616257" />
    <path
       style="fill:#000000;stroke:none;stroke-width:0.163582px;stroke-linecap:butt;stroke-linejoin:miter;stroke-opacity:1"
       d="m 164.54979,69.57679 -1.97845,-1.236528 v 2.473056 z"
       id="path6747"
       sodipodi:nodetypes="cccc"
       inkscape:transform-center-x="1.6229395"
       inkscape:transform-center-y="0.089616257" />
    <rect
       style="display:inline;fill:#ffffff;stroke:#000000;stroke-width:0.352778;stroke-linejoin:miter;stroke-miterlimit:3.2;stroke-dasharray:none"
       id="rect1322"
       width="21.824715"
       height="11.932495"
       x="128.64584"
       y="63.662148" />
    <path
       style="fill:#0044aa;fill-opacity:1;fill-rule:evenodd;stroke:#000000;stroke-width:0.352778;stroke-linecap:butt;stroke-linejoin:miter;stroke-miterlimit:3.2;stroke-dasharray:none;stroke-dashoffset:0;stroke-opacity:1"
       d="m 150.68695,69.628396 h 12.36528"
       id="path1784"
       inkscape:connector-curvature="0"
       inkscape:connector-type="polyline"
       sodipodi:nodetypes="cc" />
    <g
       id="g5136"
       transform="matrix(0.58952442,0,0,0.58952442,32.504809,6.2193594)">
      <g
         style="fill:#000000;fill-opacity:1"
         id="g5134">
        <path
           style="stroke:none"
           d="m 1.046875,-6.625 0.546875,0.03125 c 0.234375,0 0.34375,0.078125 0.34375,0.265625 0,0.140625 -0.03125,0.453125 -0.078125,0.75 L 1.109375,-1.25 C 0.953125,-0.34375 0.9375,-0.3125 0.53125,-0.28125 L 0.125,-0.25 0.09375,0.03125 0.515625,0.015625 C 0.921875,0.015625 1.21875,0 1.40625,0 1.578125,0 1.859375,0.015625 2.265625,0.015625 L 2.796875,0.03125 2.828125,-0.25 2.171875,-0.28125 C 1.90625,-0.296875 1.8125,-0.375 1.8125,-0.578125 c 0,-0.09375 0.015625,-0.15625 0.046875,-0.34375 l 0.8125,-4.859375 c 0,-0.015625 0.046875,-0.203125 0.09375,-0.40625 0,-0.046875 0.03125,-0.140625 0.0625,-0.265625 0.359375,-0.0625 0.515625,-0.09375 0.703125,-0.09375 1.03125,0 1.515625,0.453125 1.515625,1.375 0,1.078125 -0.71875,1.953125 -1.59375,1.953125 -0.21875,0 -0.421875,-0.046875 -0.796875,-0.1875 l 0.03125,0.3125 C 3.046875,-2.921875 3.25,-2.875 3.53125,-2.875 c 1.296875,0 2.390625,-1.15625 2.390625,-2.515625 0,-1.015625 -0.625,-1.53125 -1.8125,-1.5 l -1.375,0.015625 -1.125,-0.015625 h -0.53125 z m 0,0"
           transform="translate(178.585,110.99)"
           id="path5132" />
      </g>
    </g>
    <rect
       style="display:inline;fill:#6d93cd;fill-opacity:0.0912376;stroke:#0044aa;stroke-width:0.352777;stroke-miterlimit:3.2;stroke-dasharray:1.05833, 0.352777;stroke-dashoffset:0;stroke-opacity:0.588228"
       id="rect3755"
       width="83.682083"
       height="28.251217"
       x="72.812172"
       y="58.541489" />
    <g
       ns1:text="$\bm{e}(k)$"
       transform="matrix(0.43957611,0,0,0.42312475,4.5527385,20.156152)"
       style="display:inline;fill:#808080;fill-opacity:1;stroke-width:1.00351;stroke-miterlimit:3.2;stroke-dasharray:none;stroke-dashoffset:0"
       id="g5178">
      <g
         id="g5176"
         style="fill:#808080;fill-opacity:1">
        <g
           style="fill:#808080;fill-opacity:1"
           id="g5162">
          <path
             style="fill:#808080;fill-opacity:1;stroke:none"
             d="m 2.21875,-2.171875 c 0.65625,0 1.3125,-0.0625 1.734375,-0.203125 C 4.796875,-2.65625 4.9375,-3.234375 4.9375,-3.546875 4.9375,-4.125 4.390625,-4.5 3.5625,-4.5 c -1.796875,0 -3.078125,1.234375 -3.078125,2.78125 0,1.15625 0.765625,1.796875 2.09375,1.796875 0.25,0 0.9375,-0.015625 1.53125,-0.234375 0.578125,-0.234375 0.984375,-0.640625 0.984375,-0.765625 0,-0.078125 -0.15625,-0.25 -0.25,-0.25 -0.0625,0 -0.078125,0.03125 -0.15625,0.109375 C 4.15625,-0.5 3.375,-0.28125 2.609375,-0.28125 1.890625,-0.28125 1.625,-0.671875 1.625,-1.25 c 0,-0.1875 0.046875,-0.515625 0.15625,-0.921875 z M 1.859375,-2.53125 c 0.1875,-0.734375 0.421875,-1 0.59375,-1.15625 0.34375,-0.34375 0.8125,-0.453125 1.109375,-0.453125 0.359375,0 0.78125,0.15625 0.78125,0.609375 0,1 -1.515625,1 -2.484375,1 z m 0,0"
             transform="translate(178.585,110.99)"
             id="path5160" />
        </g>
        <g
           style="fill:#808080;fill-opacity:1"
           id="g5166">
          <path
             style="fill:#808080;fill-opacity:1;stroke:none"
             d="M 3,1.9375 C 2.28125,1.046875 2.03125,0.5625 1.765625,-0.328125 1.5625,-1.046875 1.453125,-1.796875 1.453125,-2.65625 1.453125,-3.484375 1.5625,-4.1875 1.75,-4.828125 2,-5.65625 2.265625,-6.125 3,-6.984375 l -0.1875,-0.25 c -1.03125,0.921875 -1.453125,1.46875 -1.828125,2.453125 -0.25,0.671875 -0.390625,1.375 -0.390625,2.125 0,1.078125 0.25,2.078125 0.734375,2.96875 C 1.671875,0.984375 2,1.375 2.8125,2.140625 Z m 0,0"
             transform="translate(184.1,110.99)"
             id="path5164" />
        </g>
        <g
           style="fill:#808080;fill-opacity:1"
           id="g5170">
          <path
             style="fill:#808080;fill-opacity:1;stroke:none"
             d="M 2.328125,-7.203125 2.21875,-7.3125 C 1.6875,-7.046875 1.328125,-6.953125 0.625,-6.890625 l -0.046875,0.21875 H 1.0625 c 0.234375,0 0.328125,0.0625 0.328125,0.234375 0,0.078125 0,0.171875 -0.015625,0.234375 L 0.890625,-3.53125 c -0.140625,0.75 -0.296875,1.4375 -0.8125,3.515625 L 0.171875,0.09375 0.84375,-0.078125 1.0625,-1.3125 c 0.09375,-0.484375 0.328125,-0.9375 0.671875,-1.265625 0.6875,1.984375 1,2.671875 1.25,2.671875 0.140625,0 0.375,-0.140625 0.8125,-0.4375 L 4.25,-0.671875 4.171875,-0.859375 3.75,-0.625 c -0.140625,0.09375 -0.21875,0.109375 -0.296875,0.109375 -0.09375,0 -0.15625,-0.0625 -0.25,-0.234375 C 2.84375,-1.390625 2.625,-1.921875 2.25,-3.15625 l 0.125,-0.140625 c 0.609375,-0.59375 1.078125,-0.84375 1.578125,-0.84375 0.078125,0 0.1875,0.015625 0.359375,0.046875 l 0.15625,-0.625 C 4.296875,-4.78125 4.109375,-4.8125 4,-4.8125 c -0.65625,0 -1.484375,0.78125 -2.734375,2.515625 z m 0,0"
             transform="translate(187.417,110.99)"
             id="path5168" />
        </g>
        <g
           style="fill:#808080;fill-opacity:1"
           id="g5174">
          <path
             style="fill:#808080;fill-opacity:1;stroke:none"
             d="m 0.515625,2.140625 c 0.6875,-0.640625 0.96875,-0.96875 1.28125,-1.46875 0.609375,-0.96875 0.921875,-2.125 0.921875,-3.3125 0,-0.765625 -0.125,-1.46875 -0.390625,-2.140625 -0.375,-0.96875 -0.78125,-1.515625 -1.8125,-2.453125 l -0.203125,0.25 c 0.734375,0.859375 1,1.328125 1.25,2.15625 0.203125,0.640625 0.296875,1.34375 0.296875,2.171875 0,0.859375 -0.09375,1.609375 -0.296875,2.328125 -0.265625,0.890625 -0.53125,1.375 -1.25,2.265625 z m 0,0"
             transform="translate(191.891,110.99)"
             id="path5172" />
        </g>
      </g>
    </g>
    <g
       ns1:text="$\bm{u}(k)$"
       transform="matrix(0.43957611,0,0,0.42312475,40.751518,20.156152)"
       style="display:inline;fill:#0044aa;fill-opacity:1;stroke-width:1.00351;stroke-miterlimit:3.2;stroke-dasharray:none;stroke-dashoffset:0"
       id="g5365">
      <g
         id="g5363">
        <g
           style="fill:#000000;fill-opacity:1"
           id="g5349">
          <path
             style="stroke:none"
             d="m 5.609375,-3.15625 c 0.078125,-0.28125 0.1875,-0.765625 0.1875,-0.828125 0,-0.21875 -0.15625,-0.4375 -0.46875,-0.4375 -0.15625,0 -0.515625,0.078125 -0.65625,0.53125 -0.03125,0.125 -0.484375,1.9375 -0.5625,2.265625 -0.0625,0.234375 -0.125,0.515625 -0.15625,0.703125 C 3.78125,-0.6875 3.390625,-0.28125 2.875,-0.28125 c -0.578125,0 -0.59375,-0.5 -0.59375,-0.71875 0,-0.609375 0.3125,-1.390625 0.59375,-2.109375 C 2.96875,-3.375 3,-3.4375 3,-3.609375 3,-4.1875 2.421875,-4.5 1.875,-4.5 c -1.0625,0 -1.5625,1.34375 -1.5625,1.546875 0,0.140625 0.15625,0.140625 0.25,0.140625 0.109375,0 0.1875,0 0.21875,-0.125 0.328125,-1.109375 0.875,-1.203125 1.03125,-1.203125 0.078125,0 0.171875,0 0.171875,0.203125 0,0.234375 -0.125,0.515625 -0.15625,0.625 -0.421875,1.046875 -0.609375,1.609375 -0.609375,2.09375 0,1.140625 1,1.296875 1.578125,1.296875 0.296875,0 0.734375,-0.03125 1.265625,-0.546875 0.328125,0.484375 0.90625,0.546875 1.140625,0.546875 0.375,0 0.65625,-0.203125 0.875,-0.5625 0.234375,-0.40625 0.375,-0.9375 0.375,-0.984375 0,-0.140625 -0.15625,-0.140625 -0.25,-0.140625 -0.109375,0 -0.140625,0 -0.1875,0.046875 -0.03125,0.015625 -0.03125,0.03125 -0.078125,0.28125 -0.203125,0.78125 -0.421875,1 -0.6875,1 -0.140625,0 -0.21875,-0.09375 -0.21875,-0.359375 0,-0.171875 0.03125,-0.34375 0.125,-0.734375 0.078125,-0.28125 0.171875,-0.671875 0.234375,-0.890625 z m 0,0"
             transform="translate(178.585,110.99)"
             id="path5347" />
        </g>
        <g
           style="fill:#000000;fill-opacity:1"
           id="g5353">
          <path
             style="stroke:none"
             d="M 3,1.9375 C 2.28125,1.046875 2.03125,0.5625 1.765625,-0.328125 1.5625,-1.046875 1.453125,-1.796875 1.453125,-2.65625 1.453125,-3.484375 1.5625,-4.1875 1.75,-4.828125 2,-5.65625 2.265625,-6.125 3,-6.984375 l -0.1875,-0.25 c -1.03125,0.921875 -1.453125,1.46875 -1.828125,2.453125 -0.25,0.671875 -0.390625,1.375 -0.390625,2.125 0,1.078125 0.25,2.078125 0.734375,2.96875 C 1.671875,0.984375 2,1.375 2.8125,2.140625 Z m 0,0"
             transform="translate(185.369,110.99)"
             id="path5351" />
        </g>
        <g
           style="fill:#000000;fill-opacity:1"
           id="g5357">
          <path
             style="stroke:none"
             d="M 2.328125,-7.203125 2.21875,-7.3125 C 1.6875,-7.046875 1.328125,-6.953125 0.625,-6.890625 l -0.046875,0.21875 H 1.0625 c 0.234375,0 0.328125,0.0625 0.328125,0.234375 0,0.078125 0,0.171875 -0.015625,0.234375 L 0.890625,-3.53125 c -0.140625,0.75 -0.296875,1.4375 -0.8125,3.515625 L 0.171875,0.09375 0.84375,-0.078125 1.0625,-1.3125 c 0.09375,-0.484375 0.328125,-0.9375 0.671875,-1.265625 0.6875,1.984375 1,2.671875 1.25,2.671875 0.140625,0 0.375,-0.140625 0.8125,-0.4375 L 4.25,-0.671875 4.171875,-0.859375 3.75,-0.625 c -0.140625,0.09375 -0.21875,0.109375 -0.296875,0.109375 -0.09375,0 -0.15625,-0.0625 -0.25,-0.234375 C 2.84375,-1.390625 2.625,-1.921875 2.25,-3.15625 l 0.125,-0.140625 c 0.609375,-0.59375 1.078125,-0.84375 1.578125,-0.84375 0.078125,0 0.1875,0.015625 0.359375,0.046875 l 0.15625,-0.625 C 4.296875,-4.78125 4.109375,-4.8125 4,-4.8125 c -0.65625,0 -1.484375,0.78125 -2.734375,2.515625 z m 0,0"
             transform="translate(188.687,110.99)"
             id="path5355" />
        </g>
        <g
           style="fill:#000000;fill-opacity:1"
           id="g5361">
          <path
             style="stroke:none"
             d="m 0.515625,2.140625 c 0.6875,-0.640625 0.96875,-0.96875 1.28125,-1.46875 0.609375,-0.96875 0.921875,-2.125 0.921875,-3.3125 0,-0.765625 -0.125,-1.46875 -0.390625,-2.140625 -0.375,-0.96875 -0.78125,-1.515625 -1.8125,-2.453125 l -0.203125,0.25 c 0.734375,0.859375 1,1.328125 1.25,2.15625 0.203125,0.640625 0.296875,1.34375 0.296875,2.171875 0,0.859375 -0.09375,1.609375 -0.296875,2.328125 -0.265625,0.890625 -0.53125,1.375 -1.25,2.265625 z m 0,0"
             transform="translate(193.16,110.99)"
             id="path5359" />
        </g>
      </g>
    </g>
    <g
       ns1:text="$\bm{y}_\theta(k)$"
       transform="matrix(0.43957611,0,0,0.42312475,82.025275,20.010703)"
       style="display:inline;fill:#0044aa;fill-opacity:1;stroke-width:1.00351;stroke-miterlimit:3.2;stroke-dasharray:none;stroke-dashoffset:0"
       id="g5536">
      <g
         id="g5534">
        <g
           style="fill:#000000;fill-opacity:1"
           id="g5516">
          <path
             style="stroke:none"
             d="m 5.75,-3.765625 c 0.046875,-0.171875 0.046875,-0.1875 0.046875,-0.21875 0,-0.21875 -0.15625,-0.4375 -0.46875,-0.4375 -0.515625,0 -0.640625,0.46875 -0.703125,0.734375 L 4.359375,-2.65625 C 4.25,-2.171875 4.0625,-1.40625 3.953125,-1 3.890625,-0.78125 3.59375,-0.53125 3.5625,-0.515625 3.453125,-0.453125 3.203125,-0.28125 2.875,-0.28125 c -0.578125,0 -0.59375,-0.5 -0.59375,-0.71875 0,-0.609375 0.3125,-1.390625 0.59375,-2.109375 C 2.96875,-3.375 3,-3.4375 3,-3.609375 3,-4.1875 2.421875,-4.5 1.875,-4.5 c -1.0625,0 -1.5625,1.34375 -1.5625,1.546875 0,0.140625 0.15625,0.140625 0.25,0.140625 0.109375,0 0.1875,0 0.21875,-0.125 0.328125,-1.109375 0.890625,-1.203125 1.03125,-1.203125 0.078125,0 0.171875,0 0.171875,0.203125 0,0.234375 -0.109375,0.484375 -0.171875,0.640625 -0.390625,1 -0.59375,1.578125 -0.59375,2.078125 0,1.140625 1,1.296875 1.578125,1.296875 0.25,0 0.59375,-0.03125 0.96875,-0.296875 C 3.484375,1 2.734375,1.65625 2.046875,1.65625 1.90625,1.65625 1.640625,1.640625 1.4375,1.515625 1.75,1.390625 1.90625,1.109375 1.90625,0.84375 1.90625,0.484375 1.625,0.390625 1.421875,0.390625 c -0.359375,0 -0.71875,0.3125 -0.71875,0.75 0,0.515625 0.53125,0.875 1.34375,0.875 1.140625,0 2.453125,-0.765625 2.765625,-2 z m 0,0"
             transform="translate(178.585,110.99)"
             id="path5514" />
        </g>
        <g
           style="fill:#000000;fill-opacity:1"
           id="g5520">
          <path
             style="stroke:none"
             d="m 4,-3.515625 c 0,-0.796875 -0.234375,-1.375 -1.125,-1.375 -1.8125,0 -2.375,2.015625 -2.375,3.5 0,0.828125 0.25,1.5 1.1875,1.5 1.65625,0 2.3125,-2.3125 2.3125,-3.625 z m -0.515625,-0.09375 c 0,0.3125 -0.0625,0.640625 -0.109375,0.953125 H 1.171875 C 1.34375,-3.375 1.84375,-4.703125 2.75,-4.703125 c 0.609375,0 0.734375,0.625 0.734375,1.09375 z M 3.34375,-2.4375 C 3.171875,-1.65625 2.796875,-0.09375 1.796875,-0.09375 1.09375,-0.09375 1.03125,-0.875 1.03125,-1.421875 1.03125,-1.75 1.09375,-2.09375 1.140625,-2.4375 Z m 0,0"
             transform="translate(184.465,112.485)"
             id="path5518" />
        </g>
        <g
           style="fill:#000000;fill-opacity:1"
           id="g5524">
          <path
             style="stroke:none"
             d="M 3,1.9375 C 2.28125,1.046875 2.03125,0.5625 1.765625,-0.328125 1.5625,-1.046875 1.453125,-1.796875 1.453125,-2.65625 1.453125,-3.484375 1.5625,-4.1875 1.75,-4.828125 2,-5.65625 2.265625,-6.125 3,-6.984375 l -0.1875,-0.25 c -1.03125,0.921875 -1.453125,1.46875 -1.828125,2.453125 -0.25,0.671875 -0.390625,1.375 -0.390625,2.125 0,1.078125 0.25,2.078125 0.734375,2.96875 C 1.671875,0.984375 2,1.375 2.8125,2.140625 Z m 0,0"
             transform="translate(189.245,110.99)"
             id="path5522" />
        </g>
        <g
           style="fill:#000000;fill-opacity:1"
           id="g5528">
          <path
             style="stroke:none"
             d="M 2.328125,-7.203125 2.21875,-7.3125 C 1.6875,-7.046875 1.328125,-6.953125 0.625,-6.890625 l -0.046875,0.21875 H 1.0625 c 0.234375,0 0.328125,0.0625 0.328125,0.234375 0,0.078125 0,0.171875 -0.015625,0.234375 L 0.890625,-3.53125 c -0.140625,0.75 -0.296875,1.4375 -0.8125,3.515625 L 0.171875,0.09375 0.84375,-0.078125 1.0625,-1.3125 c 0.09375,-0.484375 0.328125,-0.9375 0.671875,-1.265625 0.6875,1.984375 1,2.671875 1.25,2.671875 0.140625,0 0.375,-0.140625 0.8125,-0.4375 L 4.25,-0.671875 4.171875,-0.859375 3.75,-0.625 c -0.140625,0.09375 -0.21875,0.109375 -0.296875,0.109375 -0.09375,0 -0.15625,-0.0625 -0.25,-0.234375 C 2.84375,-1.390625 2.625,-1.921875 2.25,-3.15625 l 0.125,-0.140625 c 0.609375,-0.59375 1.078125,-0.84375 1.578125,-0.84375 0.078125,0 0.1875,0.015625 0.359375,0.046875 l 0.15625,-0.625 C 4.296875,-4.78125 4.109375,-4.8125 4,-4.8125 c -0.65625,0 -1.484375,0.78125 -2.734375,2.515625 z m 0,0"
             transform="translate(192.563,110.99)"
             id="path5526" />
        </g>
        <g
           style="fill:#000000;fill-opacity:1"
           id="g5532">
          <path
             style="stroke:none"
             d="m 0.515625,2.140625 c 0.6875,-0.640625 0.96875,-0.96875 1.28125,-1.46875 0.609375,-0.96875 0.921875,-2.125 0.921875,-3.3125 0,-0.765625 -0.125,-1.46875 -0.390625,-2.140625 -0.375,-0.96875 -0.78125,-1.515625 -1.8125,-2.453125 l -0.203125,0.25 c 0.734375,0.859375 1,1.328125 1.25,2.15625 0.203125,0.640625 0.296875,1.34375 0.296875,2.171875 0,0.859375 -0.09375,1.609375 -0.296875,2.328125 -0.265625,0.890625 -0.53125,1.375 -1.25,2.265625 z m 0,0"
             transform="translate(197.036,110.99)"
             id="path5530" />
        </g>
      </g>
    </g>
  </g>
</svg>
