<?xml version="1.0" encoding="UTF-8" standalone="no"?>
<svg
   xmlns:ns1="http://wanglongqi.github.io/WriteTeX"
   xmlns:dc="http://purl.org/dc/elements/1.1/"
   xmlns:cc="http://creativecommons.org/ns#"
   xmlns:rdf="http://www.w3.org/1999/02/22-rdf-syntax-ns#"
   xmlns:svg="http://www.w3.org/2000/svg"
   xmlns="http://www.w3.org/2000/svg"
   xmlns:sodipodi="http://sodipodi.sourceforge.net/DTD/sodipodi-0.dtd"
   xmlns:inkscape="http://www.inkscape.org/namespaces/inkscape"
   width="210mm"
   height="297mm"
   viewBox="0 0 210 297"
   version="1.1"
   id="svg8"
   sodipodi:docname="diagrama_VRFT.svg"
   inkscape:version="1.0.2 (e86c870879, 2021-01-15)">
  <defs
     id="defs2">
    <marker
       style="overflow:visible;"
       id="marker5676"
       refX="0.0"
       refY="0.0"
       orient="auto"
       inkscape:stockid="Arrow2Lend"
       inkscape:isstock="true">
      <path
         transform="scale(1.1) rotate(180) translate(1,0)"
         d="M 8.7185878,4.0337352 L -2.2072895,0.016013256 L 8.7185884,-4.0017078 C 6.9730900,-1.6296469 6.9831476,1.6157441 8.7185878,4.0337352 z "
         style="fill-rule:evenodd;stroke-width:0.625;stroke-linejoin:round;stroke:#000000;stroke-opacity:1;fill:#000000;fill-opacity:1"
         id="path5674" />
    </marker>
    <marker
       style="overflow:visible"
       id="TriangleInL"
       refX="0.0"
       refY="0.0"
       orient="auto"
       inkscape:stockid="TriangleInL"
       inkscape:isstock="true">
      <path
         transform="scale(-0.8)"
         style="fill-rule:evenodd;stroke:#000000;stroke-width:1pt;stroke-opacity:1;fill:#000000;fill-opacity:1"
         d="M 5.77,0.0 L -2.88,5.0 L -2.88,-5.0 L 5.77,0.0 z "
         id="path1501" />
    </marker>
    <marker
       style="overflow:visible"
       id="marker5212"
       refX="0.0"
       refY="0.0"
       orient="auto"
       inkscape:stockid="TriangleOutL"
       inkscape:isstock="true">
      <path
         transform="scale(0.8)"
         style="fill-rule:evenodd;stroke:#000000;stroke-width:1pt;stroke-opacity:1;fill:#000000;fill-opacity:1"
         d="M 5.77,0.0 L -2.88,5.0 L -2.88,-5.0 L 5.77,0.0 z "
         id="path5210" />
    </marker>
    <marker
       style="overflow:visible"
       id="marker5202"
       refX="0.0"
       refY="0.0"
       orient="auto"
       inkscape:stockid="TriangleOutL"
       inkscape:isstock="true">
      <path
         transform="scale(0.8)"
         style="fill-rule:evenodd;stroke:#000000;stroke-width:1pt;stroke-opacity:1;fill:#000000;fill-opacity:1"
         d="M 5.77,0.0 L -2.88,5.0 L -2.88,-5.0 L 5.77,0.0 z "
         id="path5200" />
    </marker>
    <marker
       style="overflow:visible"
       id="marker5192"
       refX="0.0"
       refY="0.0"
       orient="auto"
       inkscape:stockid="TriangleOutL"
       inkscape:isstock="true">
      <path
         transform="scale(0.8)"
         style="fill-rule:evenodd;stroke:#000000;stroke-width:1pt;stroke-opacity:1;fill:#000000;fill-opacity:1"
         d="M 5.77,0.0 L -2.88,5.0 L -2.88,-5.0 L 5.77,0.0 z "
         id="path5190" />
    </marker>
    <marker
       style="overflow:visible"
       id="marker5116"
       refX="0.0"
       refY="0.0"
       orient="auto"
       inkscape:stockid="TriangleOutL"
       inkscape:isstock="true">
      <path
         transform="scale(0.8)"
         style="fill-rule:evenodd;stroke:#000000;stroke-width:1pt;stroke-opacity:1;fill:#000000;fill-opacity:1"
         d="M 5.77,0.0 L -2.88,5.0 L -2.88,-5.0 L 5.77,0.0 z "
         id="path5114" />
    </marker>
    <marker
       style="overflow:visible"
       id="Arrow2Lstart"
       refX="0.0"
       refY="0.0"
       orient="auto"
       inkscape:stockid="Arrow2Lstart"
       inkscape:isstock="true">
      <path
         transform="scale(1.1) translate(1,0)"
         d="M 8.7185878,4.0337352 L -2.2072895,0.016013256 L 8.7185884,-4.0017078 C 6.9730900,-1.6296469 6.9831476,1.6157441 8.7185878,4.0337352 z "
         style="fill-rule:evenodd;stroke-width:0.625;stroke-linejoin:round;stroke:#000000;stroke-opacity:1;fill:#000000;fill-opacity:1"
         id="path1386" />
    </marker>
    <marker
       style="overflow:visible;"
       id="marker3912"
       refX="0.0"
       refY="0.0"
       orient="auto"
       inkscape:stockid="Arrow2Lend"
       inkscape:isstock="true">
      <path
         transform="scale(1.1) rotate(180) translate(1,0)"
         d="M 8.7185878,4.0337352 L -2.2072895,0.016013256 L 8.7185884,-4.0017078 C 6.9730900,-1.6296469 6.9831476,1.6157441 8.7185878,4.0337352 z "
         style="fill-rule:evenodd;stroke-width:0.625;stroke-linejoin:round;stroke:#000000;stroke-opacity:1;fill:#000000;fill-opacity:1"
         id="path3910" />
    </marker>
    <marker
       style="overflow:visible;"
       id="marker1834"
       refX="0.0"
       refY="0.0"
       orient="auto"
       inkscape:stockid="Arrow2Lend"
       inkscape:isstock="true">
      <path
         transform="scale(1.1) rotate(180) translate(1,0)"
         d="M 8.7185878,4.0337352 L -2.2072895,0.016013256 L 8.7185884,-4.0017078 C 6.9730900,-1.6296469 6.9831476,1.6157441 8.7185878,4.0337352 z "
         style="fill-rule:evenodd;stroke-width:0.625;stroke-linejoin:round;stroke:#000000;stroke-opacity:1;fill:#000000;fill-opacity:1"
         id="path1832" />
    </marker>
    <marker
       style="overflow:visible;"
       id="marker1690"
       refX="0.0"
       refY="0.0"
       orient="auto"
       inkscape:stockid="Arrow2Lend"
       inkscape:isstock="true">
      <path
         transform="scale(1.1) rotate(180) translate(1,0)"
         d="M 8.7185878,4.0337352 L -2.2072895,0.016013256 L 8.7185884,-4.0017078 C 6.9730900,-1.6296469 6.9831476,1.6157441 8.7185878,4.0337352 z "
         style="fill-rule:evenodd;stroke-width:0.625;stroke-linejoin:round;stroke:#000000;stroke-opacity:1;fill:#000000;fill-opacity:1"
         id="path1688" />
    </marker>
    <marker
       style="overflow:visible;"
       id="marker1680"
       refX="0.0"
       refY="0.0"
       orient="auto"
       inkscape:stockid="Arrow2Lend"
       inkscape:isstock="true">
      <path
         transform="scale(1.1) rotate(180) translate(1,0)"
         d="M 8.7185878,4.0337352 L -2.2072895,0.016013256 L 8.7185884,-4.0017078 C 6.9730900,-1.6296469 6.9831476,1.6157441 8.7185878,4.0337352 z "
         style="fill-rule:evenodd;stroke-width:0.625;stroke-linejoin:round;stroke:#000000;stroke-opacity:1;fill:#000000;fill-opacity:1"
         id="path1678" />
    </marker>
    <marker
       style="overflow:visible;"
       id="Arrow2Lend"
       refX="0.0"
       refY="0.0"
       orient="auto"
       inkscape:stockid="Arrow2Lend"
       inkscape:isstock="true">
      <path
         transform="scale(1.1) rotate(180) translate(1,0)"
         d="M 8.7185878,4.0337352 L -2.2072895,0.016013256 L 8.7185884,-4.0017078 C 6.9730900,-1.6296469 6.9831476,1.6157441 8.7185878,4.0337352 z "
         style="fill-rule:evenodd;stroke-width:0.625;stroke-linejoin:round;stroke:#000000;stroke-opacity:1;fill:#000000;fill-opacity:1"
         id="path1389" />
    </marker>
    <symbol
       id="LogicalAnd">
      <title
         id="title6402">Logical And</title>
      <desc
         id="desc6404">Summing junction. Shows when multiple branches converge.</desc>
      <circle
         cx="19.84375"
         cy="19.84375"
         r="5.2916665"
         style="stroke-width:2"
         id="circle6406" />
      <path
         d="m 16.139583,16.139583 7.408334,7.408334"
         style="stroke-width:2"
         id="path6408" />
      <path
         d="m 16.139583,23.547917 7.408334,-7.408334"
         style="stroke-width:2"
         id="path6410" />
    </symbol>
  </defs>
  <sodipodi:namedview
     id="base"
     pagecolor="#ffffff"
     bordercolor="#666666"
     borderopacity="1.0"
     inkscape:pageopacity="0.0"
     inkscape:pageshadow="2"
     inkscape:zoom="1.1036224"
     inkscape:cx="525.01941"
     inkscape:cy="218.26014"
     inkscape:document-units="mm"
     inkscape:current-layer="g3900"
     inkscape:document-rotation="0"
     showgrid="false"
     inkscape:window-width="1872"
     inkscape:window-height="1014"
     inkscape:window-x="24"
     inkscape:window-y="42"
     inkscape:window-maximized="0"
     inkscape:snap-intersection-paths="true"
     inkscape:object-paths="false"
     inkscape:snap-smooth-nodes="true"
     inkscape:snap-midpoints="false"
     inkscape:snap-object-midpoints="false"
     inkscape:snap-nodes="true"
     inkscape:object-nodes="true"
     inkscape:snap-others="true"
     showguides="true"
     inkscape:guide-bbox="true"
     inkscape:snap-grids="true"
     inkscape:snap-to-guides="true"
     inkscape:snap-global="true"
     inkscape:snap-bbox="true"
     inkscape:bbox-paths="false"
     inkscape:bbox-nodes="false"
     inkscape:snap-bbox-edge-midpoints="true"
     inkscape:snap-bbox-midpoints="true">
    <inkscape:grid
       type="xygrid"
       id="grid6019"
       units="mm"
       spacingx="1"
       spacingy="1" />
  </sodipodi:namedview>
  <metadata
     id="metadata5">
    <rdf:RDF>
      <cc:Work
         rdf:about="">
        <dc:format>image/svg+xml</dc:format>
        <dc:type
           rdf:resource="http://purl.org/dc/dcmitype/StillImage" />
        <dc:title />
      </cc:Work>
    </rdf:RDF>
  </metadata>
  <g
     inkscape:groupmode="layer"
     id="layer2"
     inkscape:label="virtual"
     style="display:inline">
    <g
       id="g6699"
       transform="rotate(45,128.28633,52.101601)"
       style="stroke:#000080;stroke-width:0.7;stroke-miterlimit:3.2;stroke-dasharray:2.1, 0.7;stroke-dashoffset:0" />
  </g>
  <g
     inkscape:groupmode="layer"
     id="layer3"
     inkscape:label="mr"
     style="display:inline" />
  <g
     inkscape:label="real"
     inkscape:groupmode="layer"
     id="layer1"
     style="display:inline">
    <g
       id="g3900"
       transform="matrix(0.8,0,0,0.8,21.174011,12.465023)">
      <g
         id="g9343"
         transform="matrix(0.77282996,0,0,0.77282996,23.926583,14.158399)">
        <path
           id="path6784"
           style="display:inline;fill:#0044aa;fill-opacity:1;stroke:none;stroke-width:0.423333;stroke-linecap:round;stroke-linejoin:bevel;stroke-miterlimit:4;stroke-dasharray:none;stroke-dashoffset:0;paint-order:fill markers stroke"
           d="m 174.50015,70 a 2.5,2.5 0 0 0 2.50011,2.5001 A 2.5,2.5 0 0 0 179.49985,70 Z" />
        <path
           style="display:inline;fill:#333333;fill-rule:evenodd;stroke:#0044aa;stroke-width:0.7;stroke-linecap:butt;stroke-linejoin:bevel;stroke-miterlimit:3.2;stroke-dasharray:2.1, 0.7;stroke-dashoffset:0;stroke-opacity:1"
           d="m 31.222195,69.916531 h 14"
           id="path2252"
           sodipodi:nodetypes="cc" />
        <path
           style="display:inline;fill:none;fill-rule:evenodd;stroke:#0044aa;stroke-width:0.7;stroke-linecap:butt;stroke-linejoin:miter;stroke-miterlimit:3.2;stroke-dasharray:2.1, 0.7;stroke-dashoffset:0;stroke-opacity:1"
           d="m 51.222195,75.916531 v 19 L 177,95 V 70"
           id="path2334"
           sodipodi:nodetypes="cccc" />
        <path
           style="display:inline;fill:none;fill-rule:evenodd;stroke:#0044aa;stroke-width:0.7;stroke-linecap:butt;stroke-linejoin:bevel;stroke-miterlimit:3.2;stroke-dasharray:2.1, 0.7;stroke-dashoffset:0;stroke-opacity:1"
           d="m 56.222195,69.958581 18,-0.04205"
           id="path6151"
           inkscape:connector-curvature="0"
           inkscape:connector-type="polyline"
           sodipodi:nodetypes="cc" />
        <circle
           style="display:inline;fill:#ffffff;stroke:#0044aa;stroke-width:0.7;stroke-miterlimit:3.2;stroke-dasharray:2.1, 0.7;stroke-dashoffset:0"
           id="path2248"
           cx="-13.218893"
           cy="85.658012"
           r="4.7883334"
           transform="rotate(-45)"
           inkscape:transform-center-x="0.47720466"
           inkscape:transform-center-y="5.2243011" />
        <g
           aria-label="+"
           id="text6703"
           style="font-style:normal;font-weight:normal;font-size:4.28937px;line-height:1.25;font-family:sans-serif;display:inline;fill:#0044aa;fill-opacity:1;stroke:none;stroke-width:0.7;stroke-miterlimit:3.2;stroke-dasharray:2.1, 0.7;stroke-dashoffset:0"
           transform="translate(2.7955862,-30.806446)">
          <path
             d="m 42.147171,103.69475 v 1.16659 h 1.166592 v 0.35605 h -1.166592 v 1.16659 h -0.351862 v -1.16659 h -1.166591 v -0.35605 h 1.166591 v -1.16659 z"
             style="fill:#0044aa;fill-opacity:1;stroke:none;stroke-width:0.7;stroke-miterlimit:3.2;stroke-dasharray:2.1, 0.7;stroke-dashoffset:0"
             id="path6859" />
        </g>
        <g
           aria-label="-"
           id="text6711"
           style="font-style:normal;font-weight:normal;font-size:4.28937px;line-height:1.25;font-family:sans-serif;display:inline;fill:#0044aa;fill-opacity:1;stroke:none;stroke-width:0.4597;stroke-miterlimit:3.2;stroke-dasharray:1.3791, 0.4597;stroke-dashoffset:0"
           transform="matrix(1.8629731,0,0,1.2446328,-28.063349,-57.391832)">
          <path
             d="m 44.141269,107.56655 h 1.128892 v 0.34348 h -1.128892 z"
             style="fill:#0044aa;fill-opacity:1;stroke:none;stroke-width:0.4597;stroke-miterlimit:3.2;stroke-dasharray:1.3791, 0.4597;stroke-dashoffset:0"
             id="path6856" />
        </g>
        <rect
           style="display:inline;fill:#ffffff;stroke:#c83737;stroke-width:0.7;stroke-linecap:butt;stroke-linejoin:miter;stroke-miterlimit:3.2;stroke-dasharray:2.1, 0.7;stroke-dashoffset:0;stroke-opacity:1"
           id="rect833"
           width="35.300003"
           height="19.354532"
           x="75.349998"
           y="60.295467"
           ry="3.6915833e-06" />
        <path
           style="display:inline;fill:#0044aa;fill-opacity:1;stroke:none;stroke-width:0.264583px;stroke-linecap:butt;stroke-linejoin:miter;stroke-opacity:1"
           d="m 51.222308,75.304296 -2,3.20001 h 4 z"
           id="path6735"
           sodipodi:nodetypes="cccc" />
        <path
           style="display:inline;fill:#0044aa;fill-opacity:1;stroke:none;stroke-width:0.264583px;stroke-linecap:butt;stroke-linejoin:miter;stroke-opacity:1"
           d="m 75,70 -3.20001,-2 v 4 z"
           id="path6741"
           sodipodi:nodetypes="cccc"
           inkscape:transform-center-x="1.6229395"
           inkscape:transform-center-y="0.089616257" />
        <path
           style="display:inline;fill:#0044aa;fill-opacity:1;stroke:none;stroke-width:0.7;stroke-linecap:round;stroke-linejoin:bevel;stroke-miterlimit:3.2;stroke-dasharray:none;stroke-dashoffset:0;paint-order:fill markers stroke"
           d="M 35,70 A 2.5,2.5 0 0 1 32.5,72.5 2.5,2.5 0 0 1 30,70 2.5,2.5 0 0 1 32.5,67.5 2.5,2.5 0 0 1 35,70 Z"
           id="path6786" />
        <path
           style="display:inline;fill:#0044aa;fill-opacity:1;stroke:none;stroke-width:0.264583px;stroke-linecap:butt;stroke-linejoin:miter;stroke-opacity:1"
           d="m 46.222195,69.916531 -3.20001,-2 v 4 z"
           id="path7074"
           sodipodi:nodetypes="cccc"
           inkscape:transform-center-x="1.6229395"
           inkscape:transform-center-y="0.089616257" />
        <g
           ns1:text="$\bar{e}(k)$"
           transform="matrix(0.71098452,0,0,0.68437556,-68.97828,-10.25325)"
           style="display:inline;fill:#000000;fill-opacity:0;stroke-width:1.00351;stroke-miterlimit:3.2;stroke-dasharray:none;stroke-dashoffset:0"
           id="g7305">
          <g
             id="g7303"
             style="fill:#000000;fill-opacity:0;stroke-width:1.00351">
            <g
               style="fill:#000000;fill-opacity:0;stroke-width:1.00351"
               id="g7285">
              <path
                 style="fill:#000000;fill-opacity:0;stroke:none;stroke-width:1.00351"
                 d="M 4.28125,-5.578125 V -5.875 H 0.6875 v 0.296875 z m 0,0"
                 transform="translate(178.967,110.99)"
                 id="path7283" />
            </g>
            <g
               style="fill:#000000;fill-opacity:0;stroke-width:1.00351"
               id="g7289">
              <path
                 style="fill:#000000;fill-opacity:0;stroke:none;stroke-width:1.00351"
                 d="m 1.859375,-2.296875 c 0.296875,0 1.03125,-0.03125 1.53125,-0.234375 0.703125,-0.296875 0.75,-0.890625 0.75,-1.03125 0,-0.4375 -0.375,-0.84375 -1.0625,-0.84375 -1.109375,0 -2.625,0.96875 -2.625,2.71875 0,1.015625 0.59375,1.796875 1.578125,1.796875 1.421875,0 2.25,-1.0625 2.25,-1.171875 0,-0.0625 -0.046875,-0.140625 -0.109375,-0.140625 -0.0625,0 -0.078125,0.03125 -0.140625,0.109375 -0.78125,0.984375 -1.875,0.984375 -1.984375,0.984375 -0.78125,0 -0.875,-0.84375 -0.875,-1.15625 0,-0.125 0.015625,-0.421875 0.15625,-1.03125 z m -0.46875,-0.21875 C 1.78125,-4.03125 2.8125,-4.1875 3.078125,-4.1875 c 0.453125,0 0.734375,0.296875 0.734375,0.625 0,1.046875 -1.59375,1.046875 -2.015625,1.046875 z m 0,0"
                 transform="translate(178.584,110.99)"
                 id="path7287" />
            </g>
            <g
               style="fill:#000000;fill-opacity:0;stroke-width:1.00351"
               id="g7293">
              <path
                 style="fill:#000000;fill-opacity:0;stroke:none;stroke-width:1.00351"
                 d="m 3.296875,2.390625 c 0,-0.03125 0,-0.046875 -0.171875,-0.21875 C 1.890625,0.921875 1.5625,-0.96875 1.5625,-2.5 c 0,-1.734375 0.375,-3.46875 1.609375,-4.703125 0.125,-0.125 0.125,-0.140625 0.125,-0.171875 0,-0.078125 -0.03125,-0.109375 -0.09375,-0.109375 -0.109375,0 -1,0.6875 -1.59375,1.953125 -0.5,1.09375 -0.625,2.203125 -0.625,3.03125 0,0.78125 0.109375,1.984375 0.65625,3.125 C 2.25,1.84375 3.09375,2.5 3.203125,2.5 c 0.0625,0 0.09375,-0.03125 0.09375,-0.109375 z m 0,0"
                 transform="translate(183.223,110.99)"
                 id="path7291" />
            </g>
            <g
               style="fill:#000000;fill-opacity:0;stroke-width:1.00351"
               id="g7297">
              <path
                 style="fill:#000000;fill-opacity:0;stroke:none;stroke-width:1.00351"
                 d="m 2.859375,-6.8125 c 0,0 0,-0.109375 -0.125,-0.109375 -0.234375,0 -0.953125,0.078125 -1.21875,0.109375 -0.078125,0 -0.1875,0.015625 -0.1875,0.1875 0,0.125 0.09375,0.125 0.234375,0.125 0.484375,0 0.5,0.0625 0.5,0.171875 L 2.03125,-6.125 0.59375,-0.390625 c -0.046875,0.140625 -0.046875,0.15625 -0.046875,0.21875 0,0.234375 0.203125,0.28125 0.296875,0.28125 0.125,0 0.265625,-0.09375 0.328125,-0.203125 0.046875,-0.09375 0.5,-1.9375 0.5625,-2.1875 0.34375,0.03125 1.15625,0.1875 1.15625,0.84375 0,0.078125 0,0.109375 -0.03125,0.21875 -0.015625,0.109375 -0.03125,0.234375 -0.03125,0.34375 0,0.578125 0.390625,0.984375 0.90625,0.984375 0.296875,0 0.578125,-0.15625 0.796875,-0.53125 0.25,-0.4375 0.359375,-0.984375 0.359375,-1 0,-0.109375 -0.09375,-0.109375 -0.125,-0.109375 -0.09375,0 -0.109375,0.046875 -0.140625,0.1875 -0.203125,0.71875 -0.421875,1.234375 -0.859375,1.234375 -0.203125,0 -0.328125,-0.109375 -0.328125,-0.46875 0,-0.171875 0.046875,-0.40625 0.078125,-0.5625 C 3.5625,-1.3125 3.5625,-1.34375 3.5625,-1.453125 3.5625,-2.09375 2.9375,-2.375 2.078125,-2.5 2.390625,-2.671875 2.71875,-2.984375 2.9375,-3.234375 3.421875,-3.765625 3.875,-4.1875 4.359375,-4.1875 c 0.0625,0 0.078125,0 0.09375,0.015625 0.125,0.015625 0.125,0.015625 0.21875,0.078125 0.015625,0 0.015625,0.015625 0.03125,0.03125 -0.46875,0.03125 -0.5625,0.421875 -0.5625,0.546875 0,0.15625 0.109375,0.34375 0.375,0.34375 0.265625,0 0.546875,-0.21875 0.546875,-0.609375 0,-0.296875 -0.234375,-0.625 -0.671875,-0.625 -0.28125,0 -0.734375,0.078125 -1.453125,0.875 -0.34375,0.375 -0.734375,0.78125 -1.109375,0.921875 z m 0,0"
                 transform="translate(187.098,110.99)"
                 id="path7295" />
            </g>
            <g
               style="fill:#000000;fill-opacity:0;stroke-width:1.00351"
               id="g7301">
              <path
                 style="fill:#000000;fill-opacity:0;stroke:none;stroke-width:1.00351"
                 d="m 2.875,-2.5 c 0,-0.765625 -0.109375,-1.96875 -0.65625,-3.109375 -0.59375,-1.21875 -1.453125,-1.875 -1.546875,-1.875 -0.0625,0 -0.109375,0.046875 -0.109375,0.109375 0,0.03125 0,0.046875 0.1875,0.234375 0.984375,0.984375 1.546875,2.5625 1.546875,4.640625 0,1.71875 -0.359375,3.46875 -1.59375,4.71875 C 0.5625,2.34375 0.5625,2.359375 0.5625,2.390625 0.5625,2.453125 0.609375,2.5 0.671875,2.5 0.765625,2.5 1.671875,1.8125 2.25,0.546875 2.765625,-0.546875 2.875,-1.65625 2.875,-2.5 Z m 0,0"
                 transform="translate(192.598,110.99)"
                 id="path7299" />
            </g>
          </g>
        </g>
        <g
           ns1:text="$u(k)$"
           transform="matrix(0.71098452,0,0,0.68437556,-12.3674,-10.25325)"
           style="display:inline;fill:#0044aa;fill-opacity:1;stroke-width:1.00351;stroke-miterlimit:3.2;stroke-dasharray:none;stroke-dashoffset:0"
           id="g7644">
          <g
             id="g7642">
            <g
               style="fill:#000000;fill-opacity:1"
               id="g7628">
              <path
                 style="stroke:none"
                 d="M 3.484375,-0.5625 C 3.59375,-0.15625 3.953125,0.109375 4.375,0.109375 4.71875,0.109375 4.953125,-0.125 5.109375,-0.4375 5.28125,-0.796875 5.40625,-1.40625 5.40625,-1.421875 c 0,-0.109375 -0.078125,-0.109375 -0.109375,-0.109375 -0.109375,0 -0.109375,0.046875 -0.140625,0.1875 -0.140625,0.5625 -0.328125,1.234375 -0.75,1.234375 -0.203125,0 -0.3125,-0.125 -0.3125,-0.453125 0,-0.21875 0.125,-0.6875 0.203125,-1.046875 L 4.578125,-2.6875 C 4.609375,-2.828125 4.703125,-3.203125 4.75,-3.359375 4.796875,-3.59375 4.890625,-3.96875 4.890625,-4.03125 c 0,-0.171875 -0.140625,-0.265625 -0.28125,-0.265625 -0.046875,0 -0.3125,0.015625 -0.390625,0.34375 -0.1875,0.734375 -0.625,2.484375 -0.75,3 -0.015625,0.046875 -0.40625,0.84375 -1.140625,0.84375 -0.515625,0 -0.609375,-0.453125 -0.609375,-0.8125 0,-0.5625 0.28125,-1.34375 0.53125,-2.03125 0.125,-0.3125 0.171875,-0.453125 0.171875,-0.640625 0,-0.4375 -0.3125,-0.8125 -0.8125,-0.8125 -0.953125,0 -1.3125,1.453125 -1.3125,1.53125 0,0.109375 0.09375,0.109375 0.109375,0.109375 0.109375,0 0.109375,-0.03125 0.15625,-0.1875 0.25,-0.859375 0.640625,-1.234375 1.015625,-1.234375 0.09375,0 0.25,0.015625 0.25,0.328125 0,0.234375 -0.109375,0.53125 -0.171875,0.671875 -0.375,1 -0.578125,1.609375 -0.578125,2.09375 0,0.953125 0.6875,1.203125 1.21875,1.203125 0.65625,0 1.015625,-0.453125 1.1875,-0.671875 z m 0,0"
                 transform="translate(178.585,110.99)"
                 id="path7626" />
            </g>
            <g
               style="fill:#000000;fill-opacity:1"
               id="g7632">
              <path
                 style="stroke:none"
                 d="m 3.296875,2.390625 c 0,-0.03125 0,-0.046875 -0.171875,-0.21875 C 1.890625,0.921875 1.5625,-0.96875 1.5625,-2.5 c 0,-1.734375 0.375,-3.46875 1.609375,-4.703125 0.125,-0.125 0.125,-0.140625 0.125,-0.171875 0,-0.078125 -0.03125,-0.109375 -0.09375,-0.109375 -0.109375,0 -1,0.6875 -1.59375,1.953125 -0.5,1.09375 -0.625,2.203125 -0.625,3.03125 0,0.78125 0.109375,1.984375 0.65625,3.125 C 2.25,1.84375 3.09375,2.5 3.203125,2.5 c 0.0625,0 0.09375,-0.03125 0.09375,-0.109375 z m 0,0"
                 transform="translate(184.288,110.99)"
                 id="path7630" />
            </g>
            <g
               style="fill:#000000;fill-opacity:1"
               id="g7636">
              <path
                 style="stroke:none"
                 d="m 2.859375,-6.8125 c 0,0 0,-0.109375 -0.125,-0.109375 -0.234375,0 -0.953125,0.078125 -1.21875,0.109375 -0.078125,0 -0.1875,0.015625 -0.1875,0.1875 0,0.125 0.09375,0.125 0.234375,0.125 0.484375,0 0.5,0.0625 0.5,0.171875 L 2.03125,-6.125 0.59375,-0.390625 c -0.046875,0.140625 -0.046875,0.15625 -0.046875,0.21875 0,0.234375 0.203125,0.28125 0.296875,0.28125 0.125,0 0.265625,-0.09375 0.328125,-0.203125 0.046875,-0.09375 0.5,-1.9375 0.5625,-2.1875 0.34375,0.03125 1.15625,0.1875 1.15625,0.84375 0,0.078125 0,0.109375 -0.03125,0.21875 -0.015625,0.109375 -0.03125,0.234375 -0.03125,0.34375 0,0.578125 0.390625,0.984375 0.90625,0.984375 0.296875,0 0.578125,-0.15625 0.796875,-0.53125 0.25,-0.4375 0.359375,-0.984375 0.359375,-1 0,-0.109375 -0.09375,-0.109375 -0.125,-0.109375 -0.09375,0 -0.109375,0.046875 -0.140625,0.1875 -0.203125,0.71875 -0.421875,1.234375 -0.859375,1.234375 -0.203125,0 -0.328125,-0.109375 -0.328125,-0.46875 0,-0.171875 0.046875,-0.40625 0.078125,-0.5625 C 3.5625,-1.3125 3.5625,-1.34375 3.5625,-1.453125 3.5625,-2.09375 2.9375,-2.375 2.078125,-2.5 2.390625,-2.671875 2.71875,-2.984375 2.9375,-3.234375 3.421875,-3.765625 3.875,-4.1875 4.359375,-4.1875 c 0.0625,0 0.078125,0 0.09375,0.015625 0.125,0.015625 0.125,0.015625 0.21875,0.078125 0.015625,0 0.015625,0.015625 0.03125,0.03125 -0.46875,0.03125 -0.5625,0.421875 -0.5625,0.546875 0,0.15625 0.109375,0.34375 0.375,0.34375 0.265625,0 0.546875,-0.21875 0.546875,-0.609375 0,-0.296875 -0.234375,-0.625 -0.671875,-0.625 -0.28125,0 -0.734375,0.078125 -1.453125,0.875 -0.34375,0.375 -0.734375,0.78125 -1.109375,0.921875 z m 0,0"
                 transform="translate(188.162,110.99)"
                 id="path7634" />
            </g>
            <g
               style="fill:#000000;fill-opacity:1"
               id="g7640">
              <path
                 style="stroke:none"
                 d="m 2.875,-2.5 c 0,-0.765625 -0.109375,-1.96875 -0.65625,-3.109375 -0.59375,-1.21875 -1.453125,-1.875 -1.546875,-1.875 -0.0625,0 -0.109375,0.046875 -0.109375,0.109375 0,0.03125 0,0.046875 0.1875,0.234375 0.984375,0.984375 1.546875,2.5625 1.546875,4.640625 0,1.71875 -0.359375,3.46875 -1.59375,4.71875 C 0.5625,2.34375 0.5625,2.359375 0.5625,2.390625 0.5625,2.453125 0.609375,2.5 0.671875,2.5 0.765625,2.5 1.671875,1.8125 2.25,0.546875 2.765625,-0.546875 2.875,-1.65625 2.875,-2.5 Z m 0,0"
                 transform="translate(193.662,110.99)"
                 id="path7638" />
            </g>
          </g>
        </g>
        <g
           ns1:text="$\bar{r}(k)$"
           transform="matrix(0.71098452,0,0,0.68437556,-110.4965,-4.336719)"
           style="display:inline;fill:#000000;fill-opacity:0;stroke-width:1.00351;stroke-miterlimit:3.2;stroke-dasharray:none;stroke-dashoffset:0"
           id="g7813">
          <g
             id="g7811"
             style="fill:#000000;fill-opacity:0">
            <g
               style="fill:#000000;fill-opacity:0"
               id="g7793">
              <path
                 style="fill:#000000;fill-opacity:0;stroke:none"
                 d="M 4.28125,-5.578125 V -5.875 H 0.6875 v 0.296875 z m 0,0"
                 transform="translate(179.033,110.99)"
                 id="path7791" />
            </g>
            <g
               style="fill:#000000;fill-opacity:0"
               id="g7797">
              <path
                 style="fill:#000000;fill-opacity:0;stroke:none"
                 d="m 0.875,-0.59375 c -0.03125,0.15625 -0.09375,0.390625 -0.09375,0.4375 0,0.171875 0.140625,0.265625 0.296875,0.265625 0.125,0 0.296875,-0.078125 0.375,-0.28125 C 1.46875,-0.203125 1.796875,-1.5625 1.84375,-1.75 c 0.078125,-0.328125 0.265625,-1.015625 0.3125,-1.296875 0.046875,-0.125 0.328125,-0.59375 0.5625,-0.8125 0.078125,-0.0625 0.375,-0.328125 0.796875,-0.328125 0.265625,0 0.40625,0.125 0.421875,0.125 -0.296875,0.046875 -0.515625,0.28125 -0.515625,0.546875 0,0.15625 0.109375,0.34375 0.375,0.34375 0.265625,0 0.546875,-0.234375 0.546875,-0.59375 0,-0.34375 -0.3125,-0.640625 -0.828125,-0.640625 C 2.875,-4.40625 2.4375,-3.921875 2.25,-3.640625 2.15625,-4.09375 1.796875,-4.40625 1.328125,-4.40625 0.875,-4.40625 0.6875,-4.015625 0.59375,-3.84375 0.421875,-3.5 0.296875,-2.90625 0.296875,-2.875 c 0,0.109375 0.09375,0.109375 0.109375,0.109375 0.109375,0 0.109375,-0.015625 0.171875,-0.234375 0.171875,-0.703125 0.375,-1.1875 0.734375,-1.1875 0.15625,0 0.296875,0.078125 0.296875,0.453125 0,0.21875 -0.03125,0.328125 -0.15625,0.84375 z m 0,0"
                 transform="translate(178.585,110.99)"
                 id="path7795" />
            </g>
            <g
               style="fill:#000000;fill-opacity:0"
               id="g7801">
              <path
                 style="fill:#000000;fill-opacity:0;stroke:none"
                 d="m 3.296875,2.390625 c 0,-0.03125 0,-0.046875 -0.171875,-0.21875 C 1.890625,0.921875 1.5625,-0.96875 1.5625,-2.5 c 0,-1.734375 0.375,-3.46875 1.609375,-4.703125 0.125,-0.125 0.125,-0.140625 0.125,-0.171875 0,-0.078125 -0.03125,-0.109375 -0.09375,-0.109375 -0.109375,0 -1,0.6875 -1.59375,1.953125 -0.5,1.09375 -0.625,2.203125 -0.625,3.03125 0,0.78125 0.109375,1.984375 0.65625,3.125 C 2.25,1.84375 3.09375,2.5 3.203125,2.5 c 0.0625,0 0.09375,-0.03125 0.09375,-0.109375 z m 0,0"
                 transform="translate(183.356,110.99)"
                 id="path7799" />
            </g>
            <g
               style="fill:#000000;fill-opacity:0"
               id="g7805">
              <path
                 style="fill:#000000;fill-opacity:0;stroke:none"
                 d="m 2.859375,-6.8125 c 0,0 0,-0.109375 -0.125,-0.109375 -0.234375,0 -0.953125,0.078125 -1.21875,0.109375 -0.078125,0 -0.1875,0.015625 -0.1875,0.1875 0,0.125 0.09375,0.125 0.234375,0.125 0.484375,0 0.5,0.0625 0.5,0.171875 L 2.03125,-6.125 0.59375,-0.390625 c -0.046875,0.140625 -0.046875,0.15625 -0.046875,0.21875 0,0.234375 0.203125,0.28125 0.296875,0.28125 0.125,0 0.265625,-0.09375 0.328125,-0.203125 0.046875,-0.09375 0.5,-1.9375 0.5625,-2.1875 0.34375,0.03125 1.15625,0.1875 1.15625,0.84375 0,0.078125 0,0.109375 -0.03125,0.21875 -0.015625,0.109375 -0.03125,0.234375 -0.03125,0.34375 0,0.578125 0.390625,0.984375 0.90625,0.984375 0.296875,0 0.578125,-0.15625 0.796875,-0.53125 0.25,-0.4375 0.359375,-0.984375 0.359375,-1 0,-0.109375 -0.09375,-0.109375 -0.125,-0.109375 -0.09375,0 -0.109375,0.046875 -0.140625,0.1875 -0.203125,0.71875 -0.421875,1.234375 -0.859375,1.234375 -0.203125,0 -0.328125,-0.109375 -0.328125,-0.46875 0,-0.171875 0.046875,-0.40625 0.078125,-0.5625 C 3.5625,-1.3125 3.5625,-1.34375 3.5625,-1.453125 3.5625,-2.09375 2.9375,-2.375 2.078125,-2.5 2.390625,-2.671875 2.71875,-2.984375 2.9375,-3.234375 3.421875,-3.765625 3.875,-4.1875 4.359375,-4.1875 c 0.0625,0 0.078125,0 0.09375,0.015625 0.125,0.015625 0.125,0.015625 0.21875,0.078125 0.015625,0 0.015625,0.015625 0.03125,0.03125 -0.46875,0.03125 -0.5625,0.421875 -0.5625,0.546875 0,0.15625 0.109375,0.34375 0.375,0.34375 0.265625,0 0.546875,-0.21875 0.546875,-0.609375 0,-0.296875 -0.234375,-0.625 -0.671875,-0.625 -0.28125,0 -0.734375,0.078125 -1.453125,0.875 -0.34375,0.375 -0.734375,0.78125 -1.109375,0.921875 z m 0,0"
                 transform="translate(187.23,110.99)"
                 id="path7803" />
            </g>
            <g
               style="fill:#000000;fill-opacity:0"
               id="g7809">
              <path
                 style="fill:#000000;fill-opacity:0;stroke:none"
                 d="m 2.875,-2.5 c 0,-0.765625 -0.109375,-1.96875 -0.65625,-3.109375 -0.59375,-1.21875 -1.453125,-1.875 -1.546875,-1.875 -0.0625,0 -0.109375,0.046875 -0.109375,0.109375 0,0.03125 0,0.046875 0.1875,0.234375 0.984375,0.984375 1.546875,2.5625 1.546875,4.640625 0,1.71875 -0.359375,3.46875 -1.59375,4.71875 C 0.5625,2.34375 0.5625,2.359375 0.5625,2.390625 0.5625,2.453125 0.609375,2.5 0.671875,2.5 0.765625,2.5 1.671875,1.8125 2.25,0.546875 2.765625,-0.546875 2.875,-1.65625 2.875,-2.5 Z m 0,0"
                 transform="translate(192.731,110.99)"
                 id="path7807" />
            </g>
          </g>
        </g>
        <path
           style="display:inline;fill:none;fill-rule:evenodd;stroke:#0044aa;stroke-width:0.7;stroke-linecap:butt;stroke-linejoin:miter;stroke-miterlimit:3.2;stroke-dasharray:2.1, 0.7;stroke-dashoffset:0;stroke-opacity:1"
           d="M 32.5,66.339676 V 40 H 177 v 29.627748"
           id="path7863"
           sodipodi:nodetypes="cccc" />
        <rect
           style="display:inline;fill:#ffffff;stroke:#0044aa;stroke-width:0.7;stroke-linecap:butt;stroke-linejoin:miter;stroke-miterlimit:3.2;stroke-dasharray:2.1, 0.7;stroke-dashoffset:0;stroke-opacity:1"
           id="rect7865"
           width="44.000008"
           height="20.000004"
           x="93"
           y="29.649996" />
        <path
           style="display:inline;fill:#0044aa;fill-opacity:1;stroke:none;stroke-width:0.264583px;stroke-linecap:butt;stroke-linejoin:miter;stroke-opacity:1"
           d="m 32.5,67.5 -2,-3.20001 h 4 z"
           id="path8139"
           sodipodi:nodetypes="cccc" />
        <path
           style="display:inline;fill:#0044aa;fill-opacity:1;stroke:none;stroke-width:0.264583px;stroke-linecap:butt;stroke-linejoin:miter;stroke-opacity:1"
           d="m 137,40 3.20001,-2 v 4 z"
           id="path8141"
           sodipodi:nodetypes="cccc"
           inkscape:transform-center-x="-1.6229395"
           inkscape:transform-center-y="0.089616257" />
        <path
           id="path7867"
           style="display:inline;fill:#0044aa;fill-opacity:1;stroke:none;stroke-width:0.423333;stroke-linecap:round;stroke-linejoin:bevel;stroke-miterlimit:4;stroke-dasharray:none;stroke-dashoffset:0;paint-order:fill markers stroke"
           d="M 174.50015,70 A 2.5,2.5 0 0 1 177.00026,67.4999 2.5,2.5 0 0 1 179.49985,70 Z" />
        <path
           style="fill:none;fill-rule:evenodd;stroke:#000000;stroke-width:0.8;stroke-linecap:butt;stroke-linejoin:miter;stroke-miterlimit:3.2;stroke-dasharray:none;stroke-opacity:1"
           d="M 111.0006,70.015088 130,70"
           id="path1786"
           inkscape:connector-type="polyline"
           inkscape:connector-curvature="0"
           sodipodi:nodetypes="cc" />
        <path
           style="fill:#000000;stroke:#000000;stroke-width:0.264583px;stroke-linecap:butt;stroke-linejoin:miter;stroke-opacity:1"
           d="m 130.75039,70 -3.20001,-2 v 4 z"
           id="path6745"
           sodipodi:nodetypes="cccc"
           inkscape:transform-center-x="1.6229395"
           inkscape:transform-center-y="0.089616257" />
        <path
           style="fill:#000000;stroke:none;stroke-width:0.264583px;stroke-linecap:butt;stroke-linejoin:miter;stroke-opacity:1"
           d="m 189.4222,69.916531 -3.20001,-2 v 4 z"
           id="path6747"
           sodipodi:nodetypes="cccc"
           inkscape:transform-center-x="1.6229395"
           inkscape:transform-center-y="0.089616257" />
        <rect
           style="display:inline;fill:#ffffff;stroke:#000000;stroke-width:0.7;stroke-linejoin:miter;stroke-miterlimit:3.2;stroke-dasharray:none"
           id="rect1322"
           width="35.299995"
           height="19.300001"
           x="131.35001"
           y="60.349998" />
        <path
           style="fill:#0044aa;fill-opacity:1;fill-rule:evenodd;stroke:#000000;stroke-width:0.8;stroke-linecap:butt;stroke-linejoin:miter;stroke-miterlimit:3.2;stroke-dasharray:none;stroke-dashoffset:0;stroke-opacity:1"
           d="m 167,70 h 20"
           id="path1784"
           inkscape:connector-curvature="0"
           inkscape:connector-type="polyline"
           sodipodi:nodetypes="cc" />
        <g
           ns1:text="$\bar{e}(k)$"
           transform="matrix(0.71098452,0,0,0.68437556,-69.32444,-10.25325)"
           style="display:inline;fill:#0044aa;fill-opacity:1;stroke-width:1.00351;stroke-miterlimit:3.2;stroke-dasharray:none;stroke-dashoffset:0"
           id="g6038">
          <g
             id="g6036"
             style="fill:#0044aa;fill-opacity:1">
            <g
               style="fill:#0044aa;fill-opacity:1"
               id="g6018">
              <path
                 style="fill:#0044aa;fill-opacity:1;stroke:none"
                 d="m 3.21875,-5.359375 v -0.53125 H 0.109375 v 0.53125 z m 0,0"
                 transform="translate(179.411,110.856)"
                 id="path6016" />
            </g>
            <g
               style="fill:#0044aa;fill-opacity:1"
               id="g6022">
              <path
                 style="fill:#0044aa;fill-opacity:1;stroke:none"
                 d="M 3.265625,-1.109375 3.03125,-0.9375 c -0.53125,0.375 -1,0.578125 -1.359375,0.578125 -0.46875,0 -0.765625,-0.375 -0.765625,-0.96875 0,-0.25 0.03125,-0.515625 0.078125,-0.8125 l 0.8125,-0.1875 C 1.96875,-2.375 2.25,-2.46875 2.5,-2.578125 c 0.84375,-0.375 1.234375,-0.828125 1.234375,-1.453125 0,-0.46875 -0.34375,-0.78125 -0.84375,-0.78125 -0.640625,0 -1.75,0.703125 -2.140625,1.328125 -0.296875,0.5 -0.59375,1.6875 -0.59375,2.359375 0,0.78125 0.4375,1.234375 1.15625,1.234375 0.5625,0 1.125,-0.28125 2.03125,-1.03125 z M 1.125,-2.734375 c 0.171875,-0.6875 0.375,-1.109375 0.65625,-1.375 0.1875,-0.15625 0.484375,-0.28125 0.734375,-0.28125 0.28125,0 0.46875,0.203125 0.46875,0.515625 0,0.453125 -0.34375,0.921875 -0.859375,1.15625 -0.28125,0.140625 -0.640625,0.25 -1.09375,0.359375 z m 0,0"
                 transform="translate(178.584,110.99)"
                 id="path6020" />
            </g>
            <g
               style="fill:#0044aa;fill-opacity:1"
               id="g6026">
              <path
                 style="fill:#0044aa;fill-opacity:1;stroke:none"
                 d="M 3,1.9375 C 2.28125,1.046875 2.03125,0.5625 1.765625,-0.328125 1.5625,-1.046875 1.453125,-1.796875 1.453125,-2.65625 1.453125,-3.484375 1.5625,-4.1875 1.75,-4.828125 2,-5.65625 2.265625,-6.125 3,-6.984375 l -0.1875,-0.25 c -1.03125,0.921875 -1.453125,1.46875 -1.828125,2.453125 -0.25,0.671875 -0.390625,1.375 -0.390625,2.125 0,1.078125 0.25,2.078125 0.734375,2.96875 C 1.671875,0.984375 2,1.375 2.8125,2.140625 Z m 0,0"
                 transform="translate(182.46,110.99)"
                 id="path6024" />
            </g>
            <g
               style="fill:#0044aa;fill-opacity:1"
               id="g6030">
              <path
                 style="fill:#0044aa;fill-opacity:1;stroke:none"
                 d="M 2.328125,-7.203125 2.21875,-7.3125 C 1.6875,-7.046875 1.328125,-6.953125 0.625,-6.890625 l -0.046875,0.21875 H 1.0625 c 0.234375,0 0.328125,0.0625 0.328125,0.234375 0,0.078125 0,0.171875 -0.015625,0.234375 L 0.890625,-3.53125 c -0.140625,0.75 -0.296875,1.4375 -0.8125,3.515625 L 0.171875,0.09375 0.84375,-0.078125 1.0625,-1.3125 c 0.09375,-0.484375 0.328125,-0.9375 0.671875,-1.265625 0.6875,1.984375 1,2.671875 1.25,2.671875 0.140625,0 0.375,-0.140625 0.8125,-0.4375 L 4.25,-0.671875 4.171875,-0.859375 3.75,-0.625 c -0.140625,0.09375 -0.21875,0.109375 -0.296875,0.109375 -0.09375,0 -0.15625,-0.0625 -0.25,-0.234375 C 2.84375,-1.390625 2.625,-1.921875 2.25,-3.15625 l 0.125,-0.140625 c 0.609375,-0.59375 1.078125,-0.84375 1.578125,-0.84375 0.078125,0 0.1875,0.015625 0.359375,0.046875 l 0.15625,-0.625 C 4.296875,-4.78125 4.109375,-4.8125 4,-4.8125 c -0.65625,0 -1.484375,0.78125 -2.734375,2.515625 z m 0,0"
                 transform="translate(185.777,110.99)"
                 id="path6028" />
            </g>
            <g
               style="fill:#0044aa;fill-opacity:1"
               id="g6034">
              <path
                 style="fill:#0044aa;fill-opacity:1;stroke:none"
                 d="m 0.515625,2.140625 c 0.6875,-0.640625 0.96875,-0.96875 1.28125,-1.46875 0.609375,-0.96875 0.921875,-2.125 0.921875,-3.3125 0,-0.765625 -0.125,-1.46875 -0.390625,-2.140625 -0.375,-0.96875 -0.78125,-1.515625 -1.8125,-2.453125 l -0.203125,0.25 c 0.734375,0.859375 1,1.328125 1.25,2.15625 0.203125,0.640625 0.296875,1.34375 0.296875,2.171875 0,0.859375 -0.09375,1.609375 -0.296875,2.328125 -0.265625,0.890625 -0.53125,1.375 -1.25,2.265625 z m 0,0"
                 transform="translate(190.25,110.99)"
                 id="path6032" />
            </g>
          </g>
        </g>
        <g
           ns1:text="$\bar{r}(k)$"
           transform="matrix(0.71098452,0,0,0.68437556,-110.79353,-10.25325)"
           style="display:inline;fill:#0044aa;fill-opacity:1;stroke-width:1.00351;stroke-miterlimit:3.2;stroke-dasharray:none;stroke-dashoffset:0"
           id="g6252">
          <g
             id="g6250"
             style="fill:#0044aa;fill-opacity:1">
            <g
               style="fill:#0044aa;fill-opacity:1"
               id="g6232">
              <path
                 style="fill:#0044aa;fill-opacity:1;stroke:none"
                 d="m 3.21875,-5.359375 v -0.53125 H 0.109375 v 0.53125 z m 0,0"
                 transform="translate(179.411,110.856)"
                 id="path6230" />
            </g>
            <g
               style="fill:#0044aa;fill-opacity:1"
               id="g6236">
              <path
                 style="fill:#0044aa;fill-opacity:1;stroke:none"
                 d="M 3.671875,-3.640625 C 3.703125,-4.015625 3.75,-4.34375 3.828125,-4.75 3.71875,-4.796875 3.671875,-4.8125 3.625,-4.8125 c -0.3125,0 -0.609375,0.25 -0.96875,0.75 L 2.375,-3.671875 c -0.375,0.5625 -0.5,0.765625 -0.65625,1.125 l 0.078125,-0.40625 C 1.828125,-3.1875 1.90625,-3.59375 1.96875,-3.8125 l 0.0625,-0.25 c 0.046875,-0.171875 0.0625,-0.296875 0.0625,-0.421875 0,-0.203125 -0.078125,-0.328125 -0.234375,-0.328125 -0.203125,0 -0.578125,0.21875 -1.328125,0.75 l -0.265625,0.1875 0.0625,0.203125 0.3125,-0.203125 C 0.921875,-4.0625 1.03125,-4.109375 1.125,-4.109375 c 0.09375,0 0.171875,0.09375 0.171875,0.21875 C 1.296875,-3.3125 0.875,-1.25 0.46875,0.015625 L 0.5625,0.09375 C 0.71875,0.046875 0.875,0.015625 1.109375,-0.046875 L 1.234375,-0.0625 1.5,-1.25 c 0.171875,-0.828125 0.40625,-1.359375 0.84375,-1.9375 0.34375,-0.4375 0.609375,-0.640625 0.828125,-0.640625 0.140625,0 0.25,0.046875 0.359375,0.1875 z m 0,0"
                 transform="translate(178.584,110.99)"
                 id="path6234" />
            </g>
            <g
               style="fill:#0044aa;fill-opacity:1"
               id="g6240">
              <path
                 style="fill:#0044aa;fill-opacity:1;stroke:none"
                 d="M 3,1.9375 C 2.28125,1.046875 2.03125,0.5625 1.765625,-0.328125 1.5625,-1.046875 1.453125,-1.796875 1.453125,-2.65625 1.453125,-3.484375 1.5625,-4.1875 1.75,-4.828125 2,-5.65625 2.265625,-6.125 3,-6.984375 l -0.1875,-0.25 c -1.03125,0.921875 -1.453125,1.46875 -1.828125,2.453125 -0.25,0.671875 -0.390625,1.375 -0.390625,2.125 0,1.078125 0.25,2.078125 0.734375,2.96875 C 1.671875,0.984375 2,1.375 2.8125,2.140625 Z m 0,0"
                 transform="translate(182.46,110.99)"
                 id="path6238" />
            </g>
            <g
               style="fill:#0044aa;fill-opacity:1"
               id="g6244">
              <path
                 style="fill:#0044aa;fill-opacity:1;stroke:none"
                 d="M 2.328125,-7.203125 2.21875,-7.3125 C 1.6875,-7.046875 1.328125,-6.953125 0.625,-6.890625 l -0.046875,0.21875 H 1.0625 c 0.234375,0 0.328125,0.0625 0.328125,0.234375 0,0.078125 0,0.171875 -0.015625,0.234375 L 0.890625,-3.53125 c -0.140625,0.75 -0.296875,1.4375 -0.8125,3.515625 L 0.171875,0.09375 0.84375,-0.078125 1.0625,-1.3125 c 0.09375,-0.484375 0.328125,-0.9375 0.671875,-1.265625 0.6875,1.984375 1,2.671875 1.25,2.671875 0.140625,0 0.375,-0.140625 0.8125,-0.4375 L 4.25,-0.671875 4.171875,-0.859375 3.75,-0.625 c -0.140625,0.09375 -0.21875,0.109375 -0.296875,0.109375 -0.09375,0 -0.15625,-0.0625 -0.25,-0.234375 C 2.84375,-1.390625 2.625,-1.921875 2.25,-3.15625 l 0.125,-0.140625 c 0.609375,-0.59375 1.078125,-0.84375 1.578125,-0.84375 0.078125,0 0.1875,0.015625 0.359375,0.046875 l 0.15625,-0.625 C 4.296875,-4.78125 4.109375,-4.8125 4,-4.8125 c -0.65625,0 -1.484375,0.78125 -2.734375,2.515625 z m 0,0"
                 transform="translate(185.777,110.99)"
                 id="path6242" />
            </g>
            <g
               style="fill:#0044aa;fill-opacity:1"
               id="g6248">
              <path
                 style="fill:#0044aa;fill-opacity:1;stroke:none"
                 d="m 0.515625,2.140625 c 0.6875,-0.640625 0.96875,-0.96875 1.28125,-1.46875 0.609375,-0.96875 0.921875,-2.125 0.921875,-3.3125 0,-0.765625 -0.125,-1.46875 -0.390625,-2.140625 -0.375,-0.96875 -0.78125,-1.515625 -1.8125,-2.453125 l -0.203125,0.25 c 0.734375,0.859375 1,1.328125 1.25,2.15625 0.203125,0.640625 0.296875,1.34375 0.296875,2.171875 0,0.859375 -0.09375,1.609375 -0.296875,2.328125 -0.265625,0.890625 -0.53125,1.375 -1.25,2.265625 z m 0,0"
                 transform="translate(190.25,110.99)"
                 id="path6246" />
            </g>
          </g>
        </g>
        <g
           ns1:text="$y(k)$"
           transform="matrix(0.71098452,0,0,0.68437556,55.944394,-10.25325)"
           style="display:inline;fill:#0044aa;fill-opacity:1;stroke-width:1.00351;stroke-miterlimit:3.2;stroke-dasharray:none;stroke-dashoffset:0"
           id="g6902">
          <g
             id="g6900">
            <g
               style="fill:#000000;fill-opacity:1"
               id="g6886">
              <path
                 style="stroke:none"
                 d="m -0.0625,1.796875 c -0.015625,0.0625 -0.015625,0.125 -0.015625,0.171875 0,0.4375 0.375,0.78125 0.8125,0.78125 1.0625,0 2.15625,-1.234375 2.75,-3.078125 L 4.890625,-4.71875 4.78125,-4.8125 c -0.296875,0.125 -0.53125,0.171875 -0.75,0.203125 l -0.34375,1.3125 c -0.125,0.46875 -0.46875,1.1875 -0.796875,1.6875 -0.34375,0.5 -0.84375,0.9375 -1.0625,0.9375 -0.109375,0 -0.203125,-0.21875 -0.1875,-0.46875 V -1.28125 l 0.15625,-1.921875 c 0.015625,-0.3125 0.03125,-0.6875 0.03125,-0.96875 0,-0.453125 -0.0625,-0.640625 -0.234375,-0.640625 -0.125,0 -0.265625,0.078125 -0.75,0.40625 l -0.8125,0.5625 0.109375,0.171875 0.5,-0.296875 L 0.671875,-4 c 0.109375,-0.0625 0.171875,-0.09375 0.21875,-0.09375 0.140625,0 0.21875,0.203125 0.21875,0.53125 0,0 0,0.0625 -0.015625,0.140625 L 0.921875,-1 v 0.40625 c 0,0.421875 0.171875,0.703125 0.421875,0.703125 0.375,0 1.203125,-0.84375 1.953125,-1.96875 L 2.8125,-0.15625 C 2.296875,1.609375 1.796875,2.328125 1.109375,2.328125 0.75,2.328125 0.484375,2.0625 0.484375,1.71875 0.484375,1.671875 0.5,1.578125 0.515625,1.5 L 0.40625,1.453125 Z m 0,0"
                 transform="translate(179.083,110.99)"
                 id="path6884" />
            </g>
            <g
               style="fill:#000000;fill-opacity:1"
               id="g6890">
              <path
                 style="stroke:none"
                 d="M 3,1.9375 C 2.28125,1.046875 2.03125,0.5625 1.765625,-0.328125 1.5625,-1.046875 1.453125,-1.796875 1.453125,-2.65625 1.453125,-3.484375 1.5625,-4.1875 1.75,-4.828125 2,-5.65625 2.265625,-6.125 3,-6.984375 l -0.1875,-0.25 c -1.03125,0.921875 -1.453125,1.46875 -1.828125,2.453125 -0.25,0.671875 -0.390625,1.375 -0.390625,2.125 0,1.078125 0.25,2.078125 0.734375,2.96875 C 1.671875,0.984375 2,1.375 2.8125,2.140625 Z m 0,0"
                 transform="translate(184.064,110.99)"
                 id="path6888" />
            </g>
            <g
               style="fill:#000000;fill-opacity:1"
               id="g6894">
              <path
                 style="stroke:none"
                 d="M 2.328125,-7.203125 2.21875,-7.3125 C 1.6875,-7.046875 1.328125,-6.953125 0.625,-6.890625 l -0.046875,0.21875 H 1.0625 c 0.234375,0 0.328125,0.0625 0.328125,0.234375 0,0.078125 0,0.171875 -0.015625,0.234375 L 0.890625,-3.53125 c -0.140625,0.75 -0.296875,1.4375 -0.8125,3.515625 L 0.171875,0.09375 0.84375,-0.078125 1.0625,-1.3125 c 0.09375,-0.484375 0.328125,-0.9375 0.671875,-1.265625 0.6875,1.984375 1,2.671875 1.25,2.671875 0.140625,0 0.375,-0.140625 0.8125,-0.4375 L 4.25,-0.671875 4.171875,-0.859375 3.75,-0.625 c -0.140625,0.09375 -0.21875,0.109375 -0.296875,0.109375 -0.09375,0 -0.15625,-0.0625 -0.25,-0.234375 C 2.84375,-1.390625 2.625,-1.921875 2.25,-3.15625 l 0.125,-0.140625 c 0.609375,-0.59375 1.078125,-0.84375 1.578125,-0.84375 0.078125,0 0.1875,0.015625 0.359375,0.046875 l 0.15625,-0.625 C 4.296875,-4.78125 4.109375,-4.8125 4,-4.8125 c -0.65625,0 -1.484375,0.78125 -2.734375,2.515625 z m 0,0"
                 transform="translate(187.381,110.99)"
                 id="path6892" />
            </g>
            <g
               style="fill:#000000;fill-opacity:1"
               id="g6898">
              <path
                 style="stroke:none"
                 d="m 0.515625,2.140625 c 0.6875,-0.640625 0.96875,-0.96875 1.28125,-1.46875 0.609375,-0.96875 0.921875,-2.125 0.921875,-3.3125 0,-0.765625 -0.125,-1.46875 -0.390625,-2.140625 -0.375,-0.96875 -0.78125,-1.515625 -1.8125,-2.453125 l -0.203125,0.25 c 0.734375,0.859375 1,1.328125 1.25,2.15625 0.203125,0.640625 0.296875,1.34375 0.296875,2.171875 0,0.859375 -0.09375,1.609375 -0.296875,2.328125 -0.265625,0.890625 -0.53125,1.375 -1.25,2.265625 z m 0,0"
                 transform="translate(191.855,110.99)"
                 id="path6896" />
            </g>
          </g>
        </g>
        <g
           ns1:text="$c(\bar{e}(k), \bm{\hat{\theta}})$"
           transform="matrix(0.7,0,0,0.7,-44.396262,-5.175329)"
           style="display:inline;fill:#c83737;fill-opacity:0.952941;stroke-width:0.786952;stroke-miterlimit:3.2;stroke-dasharray:none;stroke-dashoffset:0"
           id="g8450">
          <g
             id="surface1"
             style="fill:#c83737;fill-opacity:0.952941">
            <g
               style="fill:#c83737;fill-opacity:0.952941"
               id="g8407">
              <path
                 style="fill:#c83737;fill-opacity:0.952941;stroke:none"
                 d="M 3.40625,-3.296875 H 3.640625 C 3.71875,-3.9375 3.78125,-4.3125 3.875,-4.5625 c -0.234375,-0.15625 -0.578125,-0.25 -0.953125,-0.25 -0.453125,0 -1.1875,0.359375 -1.75,0.875 C 0.625,-3.453125 0.25,-2.40625 0.25,-1.359375 c 0,0.953125 0.421875,1.46875 1.21875,1.46875 0.53125,0 1.015625,-0.203125 1.5625,-0.640625 l 0.5,-0.421875 -0.078125,-0.1875 -0.15625,0.09375 C 2.578125,-0.5625 2.203125,-0.40625 1.859375,-0.40625 1.296875,-0.40625 1,-0.796875 1,-1.578125 c 0,-1.078125 0.359375,-2.125 0.84375,-2.5 0.203125,-0.15625 0.453125,-0.234375 0.765625,-0.234375 0.4375,0 0.796875,0.1875 0.796875,0.421875 z m 0,0"
                 transform="translate(178.585,110.99)"
                 id="path8405" />
            </g>
            <g
               style="fill:#c83737;fill-opacity:0.952941"
               id="g8411">
              <path
                 style="fill:#c83737;fill-opacity:0.952941;stroke:none"
                 d="M 3,1.9375 C 2.28125,1.046875 2.03125,0.5625 1.765625,-0.328125 1.5625,-1.046875 1.453125,-1.796875 1.453125,-2.65625 1.453125,-3.484375 1.5625,-4.1875 1.75,-4.828125 2,-5.65625 2.265625,-6.125 3,-6.984375 l -0.1875,-0.25 c -1.03125,0.921875 -1.453125,1.46875 -1.828125,2.453125 -0.25,0.671875 -0.390625,1.375 -0.390625,2.125 0,1.078125 0.25,2.078125 0.734375,2.96875 C 1.671875,0.984375 2,1.375 2.8125,2.140625 Z m 0,0"
                 transform="translate(182.639,110.99)"
                 id="path8409" />
            </g>
            <g
               style="fill:#c83737;fill-opacity:0.952941"
               id="g8415">
              <path
                 style="fill:#c83737;fill-opacity:0.952941;stroke:none"
                 d="m 3.21875,-5.359375 v -0.53125 H 0.109375 v 0.53125 z m 0,0"
                 transform="translate(186.784,110.856)"
                 id="path8413" />
            </g>
            <g
               style="fill:#c83737;fill-opacity:0.952941"
               id="g8419">
              <path
                 style="fill:#c83737;fill-opacity:0.952941;stroke:none"
                 d="M 3.265625,-1.109375 3.03125,-0.9375 c -0.53125,0.375 -1,0.578125 -1.359375,0.578125 -0.46875,0 -0.765625,-0.375 -0.765625,-0.96875 0,-0.25 0.03125,-0.515625 0.078125,-0.8125 l 0.8125,-0.1875 C 1.96875,-2.375 2.25,-2.46875 2.5,-2.578125 c 0.84375,-0.375 1.234375,-0.828125 1.234375,-1.453125 0,-0.46875 -0.34375,-0.78125 -0.84375,-0.78125 -0.640625,0 -1.75,0.703125 -2.140625,1.328125 -0.296875,0.5 -0.59375,1.6875 -0.59375,2.359375 0,0.78125 0.4375,1.234375 1.15625,1.234375 0.5625,0 1.125,-0.28125 2.03125,-1.03125 z M 1.125,-2.734375 c 0.171875,-0.6875 0.375,-1.109375 0.65625,-1.375 0.1875,-0.15625 0.484375,-0.28125 0.734375,-0.28125 0.28125,0 0.46875,0.203125 0.46875,0.515625 0,0.453125 -0.34375,0.921875 -0.859375,1.15625 -0.28125,0.140625 -0.640625,0.25 -1.09375,0.359375 z m 0,0"
                 transform="translate(185.957,110.99)"
                 id="path8417" />
            </g>
            <g
               style="fill:#c83737;fill-opacity:0.952941"
               id="g8423">
              <path
                 style="fill:#c83737;fill-opacity:0.952941;stroke:none"
                 d="M 3,1.9375 C 2.28125,1.046875 2.03125,0.5625 1.765625,-0.328125 1.5625,-1.046875 1.453125,-1.796875 1.453125,-2.65625 1.453125,-3.484375 1.5625,-4.1875 1.75,-4.828125 2,-5.65625 2.265625,-6.125 3,-6.984375 l -0.1875,-0.25 c -1.03125,0.921875 -1.453125,1.46875 -1.828125,2.453125 -0.25,0.671875 -0.390625,1.375 -0.390625,2.125 0,1.078125 0.25,2.078125 0.734375,2.96875 C 1.671875,0.984375 2,1.375 2.8125,2.140625 Z m 0,0"
                 transform="translate(189.832,110.99)"
                 id="path8421" />
            </g>
            <g
               style="fill:#c83737;fill-opacity:0.952941"
               id="g8427">
              <path
                 style="fill:#c83737;fill-opacity:0.952941;stroke:none"
                 d="M 2.328125,-7.203125 2.21875,-7.3125 C 1.6875,-7.046875 1.328125,-6.953125 0.625,-6.890625 l -0.046875,0.21875 H 1.0625 c 0.234375,0 0.328125,0.0625 0.328125,0.234375 0,0.078125 0,0.171875 -0.015625,0.234375 L 0.890625,-3.53125 c -0.140625,0.75 -0.296875,1.4375 -0.8125,3.515625 L 0.171875,0.09375 0.84375,-0.078125 1.0625,-1.3125 c 0.09375,-0.484375 0.328125,-0.9375 0.671875,-1.265625 0.6875,1.984375 1,2.671875 1.25,2.671875 0.140625,0 0.375,-0.140625 0.8125,-0.4375 L 4.25,-0.671875 4.171875,-0.859375 3.75,-0.625 c -0.140625,0.09375 -0.21875,0.109375 -0.296875,0.109375 -0.09375,0 -0.15625,-0.0625 -0.25,-0.234375 C 2.84375,-1.390625 2.625,-1.921875 2.25,-3.15625 l 0.125,-0.140625 c 0.609375,-0.59375 1.078125,-0.84375 1.578125,-0.84375 0.078125,0 0.1875,0.015625 0.359375,0.046875 l 0.15625,-0.625 C 4.296875,-4.78125 4.109375,-4.8125 4,-4.8125 c -0.65625,0 -1.484375,0.78125 -2.734375,2.515625 z m 0,0"
                 transform="translate(193.15,110.99)"
                 id="path8425" />
            </g>
            <g
               style="fill:#c83737;fill-opacity:0.952941"
               id="g8431">
              <path
                 style="fill:#c83737;fill-opacity:0.952941;stroke:none"
                 d="m 0.515625,2.140625 c 0.6875,-0.640625 0.96875,-0.96875 1.28125,-1.46875 0.609375,-0.96875 0.921875,-2.125 0.921875,-3.3125 0,-0.765625 -0.125,-1.46875 -0.390625,-2.140625 -0.375,-0.96875 -0.78125,-1.515625 -1.8125,-2.453125 l -0.203125,0.25 c 0.734375,0.859375 1,1.328125 1.25,2.15625 0.203125,0.640625 0.296875,1.34375 0.296875,2.171875 0,0.859375 -0.09375,1.609375 -0.296875,2.328125 -0.265625,0.890625 -0.53125,1.375 -1.25,2.265625 z m 0,0"
                 transform="translate(197.623,110.99)"
                 id="path8429" />
            </g>
            <g
               style="fill:#c83737;fill-opacity:0.952941"
               id="g8435">
              <path
                 style="fill:#c83737;fill-opacity:0.952941;stroke:none"
                 d="M 2.171875,-1.09375 2.03125,-1.21875 C 1.703125,-1.109375 1.390625,-1 1.0625,-0.921875 0.984375,-0.0625 0.59375,0.71875 0.15625,1.4375 l 0.140625,0.109375 0.40625,-0.1875 c 0.578125,-0.75 1.15625,-1.546875 1.46875,-2.453125 z m 0,0"
                 transform="translate(200.94,110.99)"
                 id="path8433" />
            </g>
            <g
               style="fill:#c83737;fill-opacity:0.952941"
               id="g8439">
              <path
                 style="fill:#c83737;fill-opacity:0.952941;stroke:none"
                 d="m 2.859375,-6.921875 -1.5625,1.265625 0.28125,0.375 1.28125,-0.8125 1.28125,0.8125 0.28125,-0.375 z m 0,0"
                 transform="translate(206.14,108.5)"
                 id="path8437" />
            </g>
            <g
               style="fill:#c83737;fill-opacity:0.952941"
               id="g8443">
              <path
                 style="fill:#c83737;fill-opacity:0.952941;stroke:none"
                 d="M 5.453125,-4.890625 C 5.453125,-6.640625 4.421875,-7 3.8125,-7 c -0.796875,0 -1.78125,0.515625 -2.53125,1.875 -0.515625,0.9375 -0.828125,2.296875 -0.828125,3.09375 0,1.453125 0.765625,2.109375 1.65625,2.109375 0.671875,0 1.546875,-0.390625 2.234375,-1.40625 0.84375,-1.21875 1.109375,-2.8125 1.109375,-3.5625 z m -3.484375,1.1875 c 0.140625,-0.578125 0.40625,-1.484375 0.703125,-2 0.234375,-0.40625 0.640625,-0.9375 1.109375,-0.9375 0.421875,0 0.609375,0.4375 0.609375,1.03125 0,0.625 -0.21875,1.5 -0.328125,1.90625 z M 3.9375,-3.21875 c -0.625,2.671875 -1.453125,2.9375 -1.796875,2.9375 C 2,-0.28125 1.78125,-0.3125 1.640625,-0.625 1.53125,-0.890625 1.53125,-1.28125 1.53125,-1.296875 c 0,-0.5625 0.21875,-1.5 0.328125,-1.921875 z m 0,0"
                 transform="translate(205.091,110.99)"
                 id="path8441" />
            </g>
            <g
               style="fill:#c83737;fill-opacity:0.952941"
               id="g8447">
              <path
                 style="fill:#c83737;fill-opacity:0.952941;stroke:none"
                 d="m 0.515625,2.140625 c 0.6875,-0.640625 0.96875,-0.96875 1.28125,-1.46875 0.609375,-0.96875 0.921875,-2.125 0.921875,-3.3125 0,-0.765625 -0.125,-1.46875 -0.390625,-2.140625 -0.375,-0.96875 -0.78125,-1.515625 -1.8125,-2.453125 l -0.203125,0.25 c 0.734375,0.859375 1,1.328125 1.25,2.15625 0.203125,0.640625 0.296875,1.34375 0.296875,2.171875 0,0.859375 -0.09375,1.609375 -0.296875,2.328125 -0.265625,0.890625 -0.53125,1.375 -1.25,2.265625 z m 0,0"
                 transform="translate(211.007,110.99)"
                 id="path8445" />
            </g>
          </g>
        </g>
        <g
           ns1:text="$f(u(k))$"
           transform="matrix(0.7,0,0,0.7,14.12858,-6.096126)"
           id="g8682">
          <g
             id="g8680">
            <g
               style="fill:#000000;fill-opacity:1"
               id="g8656">
              <path
                 style="stroke:none"
                 d="M 2.84375,-3.8125 C 2.890625,-4 2.953125,-4.234375 3.015625,-4.375 l -0.03125,-0.078125 -0.078125,0.03125 c -0.234375,0.0625 -0.34375,0.0625 -0.828125,0.0625 H 1.90625 L 2.125,-5.46875 c 0.15625,-0.859375 0.4375,-1.234375 0.890625,-1.234375 0.296875,0 0.578125,0.140625 0.71875,0.390625 L 3.84375,-6.359375 C 3.890625,-6.515625 3.984375,-6.828125 4.0625,-7.03125 L 4.109375,-7.171875 C 3.953125,-7.25 3.65625,-7.3125 3.421875,-7.3125 c -0.109375,0 -0.265625,0.03125 -0.34375,0.078125 -0.25,0.109375 -1.0625,0.71875 -1.296875,0.953125 C 1.5625,-6.0625 1.453125,-5.765625 1.328125,-5.1875 L 1.1875,-4.40625 C 0.78125,-4.203125 0.578125,-4.125 0.328125,-4.03125 L 0.28125,-3.8125 h 0.8125 L 1,-3.265625 C 0.703125,-1.3125 0.328125,0.53125 0.109375,1.21875 -0.0625,1.8125 -0.375,2.125 -0.734375,2.125 -0.953125,2.125 -1.0625,2.046875 -1.25,1.828125 L -1.390625,1.875 C -1.421875,2.109375 -1.5625,2.578125 -1.609375,2.671875 -1.53125,2.71875 -1.375,2.75 -1.265625,2.75 -0.859375,2.75 -0.3125,2.4375 0.0625,1.96875 0.671875,1.25 0.890625,0.5625 1.625,-2.9375 c 0.03125,-0.125 0.109375,-0.5 0.1875,-0.875 z m 0,0"
                 transform="translate(180.079,110.99)"
                 id="path8654" />
            </g>
            <g
               style="fill:#000000;fill-opacity:1"
               id="g8660">
              <path
                 style="stroke:none"
                 d="M 3,1.9375 C 2.28125,1.046875 2.03125,0.5625 1.765625,-0.328125 1.5625,-1.046875 1.453125,-1.796875 1.453125,-2.65625 1.453125,-3.484375 1.5625,-4.1875 1.75,-4.828125 2,-5.65625 2.265625,-6.125 3,-6.984375 l -0.1875,-0.25 c -1.03125,0.921875 -1.453125,1.46875 -1.828125,2.453125 -0.25,0.671875 -0.390625,1.375 -0.390625,2.125 0,1.078125 0.25,2.078125 0.734375,2.96875 C 1.671875,0.984375 2,1.375 2.8125,2.140625 Z m 0,0"
                 transform="translate(184.193,110.99)"
                 id="path8658" />
            </g>
            <g
               style="fill:#000000;fill-opacity:1"
               id="g8664">
              <path
                 style="stroke:none"
                 d="M 3.3125,-0.96875 C 3.25,-0.734375 3.203125,-0.453125 3.203125,-0.3125 c 0,0.25 0.109375,0.40625 0.3125,0.40625 0.25,0 0.609375,-0.21875 1.59375,-0.9375 L 5,-1.03125 4.75,-0.859375 C 4.5,-0.703125 4.25,-0.59375 4.140625,-0.59375 4.0625,-0.59375 4,-0.65625 4,-0.75 4,-0.84375 4.03125,-0.953125 4.0625,-1.09375 v -0.0625 C 4.296875,-2.25 4.609375,-3.5625 4.90625,-4.71875 L 4.828125,-4.8125 4.15625,-4.640625 4.0625,-4.125 c -0.15625,0.78125 -0.40625,1.453125 -0.71875,1.921875 -0.578125,0.90625 -1.359375,1.609375 -1.765625,1.609375 -0.078125,0 -0.125,-0.078125 -0.125,-0.25 0,-0.140625 0.015625,-0.265625 0.078125,-0.515625 L 2.09375,-4.0625 C 2.125,-4.234375 2.140625,-4.359375 2.140625,-4.5 c 0,-0.1875 -0.09375,-0.3125 -0.234375,-0.3125 -0.1875,0 -0.578125,0.21875 -1.3125,0.75 L 0.3125,-3.875 0.390625,-3.671875 0.703125,-3.875 c 0.28125,-0.1875 0.390625,-0.234375 0.484375,-0.234375 0.09375,0 0.171875,0.09375 0.171875,0.203125 0,0.03125 -0.015625,0.140625 -0.03125,0.171875 l -0.625,2.96875 c -0.015625,0.09375 -0.03125,0.328125 -0.03125,0.46875 0,0.234375 0.140625,0.40625 0.34375,0.40625 C 1.640625,0.109375 2.84375,-1 3.6875,-2.375 Z m 0,0"
                 transform="translate(187.511,110.99)"
                 id="path8662" />
            </g>
            <g
               style="fill:#000000;fill-opacity:1"
               id="g8668">
              <path
                 style="stroke:none"
                 d="M 3,1.9375 C 2.28125,1.046875 2.03125,0.5625 1.765625,-0.328125 1.5625,-1.046875 1.453125,-1.796875 1.453125,-2.65625 1.453125,-3.484375 1.5625,-4.1875 1.75,-4.828125 2,-5.65625 2.265625,-6.125 3,-6.984375 l -0.1875,-0.25 c -1.03125,0.921875 -1.453125,1.46875 -1.828125,2.453125 -0.25,0.671875 -0.390625,1.375 -0.390625,2.125 0,1.078125 0.25,2.078125 0.734375,2.96875 C 1.671875,0.984375 2,1.375 2.8125,2.140625 Z m 0,0"
                 transform="translate(193.05,110.99)"
                 id="path8666" />
            </g>
            <g
               style="fill:#000000;fill-opacity:1"
               id="g8672">
              <path
                 style="stroke:none"
                 d="M 2.328125,-7.203125 2.21875,-7.3125 C 1.6875,-7.046875 1.328125,-6.953125 0.625,-6.890625 l -0.046875,0.21875 H 1.0625 c 0.234375,0 0.328125,0.0625 0.328125,0.234375 0,0.078125 0,0.171875 -0.015625,0.234375 L 0.890625,-3.53125 c -0.140625,0.75 -0.296875,1.4375 -0.8125,3.515625 L 0.171875,0.09375 0.84375,-0.078125 1.0625,-1.3125 c 0.09375,-0.484375 0.328125,-0.9375 0.671875,-1.265625 0.6875,1.984375 1,2.671875 1.25,2.671875 0.140625,0 0.375,-0.140625 0.8125,-0.4375 L 4.25,-0.671875 4.171875,-0.859375 3.75,-0.625 c -0.140625,0.09375 -0.21875,0.109375 -0.296875,0.109375 -0.09375,0 -0.15625,-0.0625 -0.25,-0.234375 C 2.84375,-1.390625 2.625,-1.921875 2.25,-3.15625 l 0.125,-0.140625 c 0.609375,-0.59375 1.078125,-0.84375 1.578125,-0.84375 0.078125,0 0.1875,0.015625 0.359375,0.046875 l 0.15625,-0.625 C 4.296875,-4.78125 4.109375,-4.8125 4,-4.8125 c -0.65625,0 -1.484375,0.78125 -2.734375,2.515625 z m 0,0"
                 transform="translate(196.368,110.99)"
                 id="path8670" />
            </g>
            <g
               style="fill:#000000;fill-opacity:1"
               id="g8678">
              <path
                 style="stroke:none"
                 d="m 0.515625,2.140625 c 0.6875,-0.640625 0.96875,-0.96875 1.28125,-1.46875 0.609375,-0.96875 0.921875,-2.125 0.921875,-3.3125 0,-0.765625 -0.125,-1.46875 -0.390625,-2.140625 -0.375,-0.96875 -0.78125,-1.515625 -1.8125,-2.453125 l -0.203125,0.25 c 0.734375,0.859375 1,1.328125 1.25,2.15625 0.203125,0.640625 0.296875,1.34375 0.296875,2.171875 0,0.859375 -0.09375,1.609375 -0.296875,2.328125 -0.265625,0.890625 -0.53125,1.375 -1.25,2.265625 z m 0,0"
                 transform="translate(200.841,110.99)"
                 id="path8674" />
              <path
                 style="stroke:none"
                 d="m 0.515625,2.140625 c 0.6875,-0.640625 0.96875,-0.96875 1.28125,-1.46875 0.609375,-0.96875 0.921875,-2.125 0.921875,-3.3125 0,-0.765625 -0.125,-1.46875 -0.390625,-2.140625 -0.375,-0.96875 -0.78125,-1.515625 -1.8125,-2.453125 l -0.203125,0.25 c 0.734375,0.859375 1,1.328125 1.25,2.15625 0.203125,0.640625 0.296875,1.34375 0.296875,2.171875 0,0.859375 -0.09375,1.609375 -0.296875,2.328125 -0.265625,0.890625 -0.53125,1.375 -1.25,2.265625 z m 0,0"
                 transform="translate(204.15855,110.99)"
                 id="path8676" />
            </g>
          </g>
        </g>
        <g
           ns1:text="$t_d^{-1}(y(k))$"
           transform="matrix(0.7,0,0,0.7,-22.258639,-36.467434)"
           style="display:inline;fill:#0044aa;fill-opacity:1;stroke-width:0.786952;stroke-miterlimit:3.2;stroke-dasharray:none;stroke-dashoffset:0"
           id="g9146">
          <g
             id="g9144"
             style="fill:#0044aa;fill-opacity:1">
            <g
               style="fill:#0044aa;fill-opacity:1"
               id="g9108">
              <path
                 style="fill:#0044aa;fill-opacity:1;stroke:none"
                 d="M 1.25,-3.890625 0.6875,-1.0625 C 0.671875,-1 0.671875,-0.984375 0.640625,-0.859375 0.578125,-0.578125 0.5625,-0.421875 0.5625,-0.3125 c 0,0.25 0.109375,0.40625 0.296875,0.40625 0.34375,0 0.703125,-0.203125 1.46875,-0.828125 l 0.3125,-0.25 -0.09375,-0.1875 -0.453125,0.3125 C 1.796875,-0.65625 1.609375,-0.5625 1.5,-0.5625 c -0.09375,0 -0.140625,-0.078125 -0.140625,-0.1875 0,-0.265625 0.140625,-1.078125 0.421875,-2.515625 l 0.125,-0.625 h 1.078125 l 0.109375,-0.5 C 2.71875,-4.34375 2.375,-4.328125 2,-4.328125 2.15625,-5.265625 2.265625,-5.75 2.4375,-6.296875 L 2.328125,-6.4375 c -0.1875,0.125 -0.46875,0.234375 -0.765625,0.359375 l -0.25,1.6875 c -0.4375,0.21875 -0.703125,0.328125 -0.890625,0.375 l -0.015625,0.125 z m 0,0"
                 transform="translate(178.585,110.99)"
                 id="path9106" />
            </g>
            <g
               style="fill:#0044aa;fill-opacity:1"
               id="g9112">
              <path
                 style="fill:#0044aa;fill-opacity:1;stroke:none"
                 d="M 4.203125,-1.671875 V -2.09375 h -3.75 v 0.421875 z m 0,0"
                 transform="translate(181.902,107.374)"
                 id="path9110" />
            </g>
            <g
               style="fill:#0044aa;fill-opacity:1"
               id="g9116">
              <path
                 style="fill:#0044aa;fill-opacity:1;stroke:none"
                 d="m 0.46875,-3.875 h 0.0625 L 1.4375,-4.265625 c 0,-0.015625 0.015625,-0.015625 0.015625,-0.015625 0.046875,0 0.0625,0.0625 0.0625,0.234375 v 3.375 c 0,0.359375 -0.078125,0.4375 -0.453125,0.46875 L 0.671875,-0.1875 V 0.015625 C 1.734375,0 1.734375,0 1.8125,0 1.90625,0 2.0625,0 2.296875,0 2.390625,0.015625 2.625,0.015625 2.90625,0.015625 V -0.1875 L 2.546875,-0.203125 C 2.171875,-0.234375 2.09375,-0.3125 2.09375,-0.671875 v -4.125 L 2,-4.84375 c -0.453125,0.25 -0.953125,0.453125 -1.578125,0.671875 z m 0,0"
                 transform="translate(186.568,107.374)"
                 id="path9114" />
            </g>
            <g
               style="fill:#0044aa;fill-opacity:1"
               id="g9120">
              <path
                 style="fill:#0044aa;fill-opacity:1;stroke:none"
                 d="M 3.359375,-5.03125 3.28125,-5.109375 c -0.359375,0.1875 -0.609375,0.25 -1.109375,0.296875 l -0.03125,0.140625 H 2.46875 c 0.171875,0 0.234375,0.046875 0.234375,0.171875 0,0.046875 0,0.109375 0,0.171875 L 2.5,-3.265625 c -0.203125,-0.0625 -0.390625,-0.09375 -0.5625,-0.09375 -0.484375,0 -1.140625,0.5 -1.46875,1.109375 -0.203125,0.40625 -0.34375,1.0625 -0.34375,1.65625 0,0.453125 0.09375,0.671875 0.296875,0.671875 0.1875,0 0.453125,-0.125 0.6875,-0.3125 C 1.484375,-0.53125 1.71875,-0.8125 2.1875,-1.515625 L 2.015625,-0.875 C 1.9375,-0.578125 1.90625,-0.34375 1.90625,-0.171875 c 0,0.15625 0.0625,0.234375 0.1875,0.234375 0.109375,0 0.28125,-0.078125 0.515625,-0.25 l 0.5625,-0.421875 -0.0625,-0.140625 -0.3125,0.21875 c -0.09375,0.078125 -0.203125,0.125 -0.265625,0.125 -0.0625,0 -0.09375,-0.0625 -0.09375,-0.171875 0,-0.046875 0,-0.109375 0.046875,-0.3125 z M 2.34375,-2.453125 c -0.125,0.625 -0.46875,1.234375 -0.890625,1.640625 -0.25,0.234375 -0.53125,0.40625 -0.65625,0.40625 C 0.6875,-0.40625 0.625,-0.515625 0.625,-0.6875 c 0,-0.875 0.3125,-1.953125 0.65625,-2.21875 C 1.375,-2.984375 1.5,-3.015625 1.6875,-3.015625 c 0.3125,0 0.515625,0.046875 0.75,0.15625 z m 0,0"
                 transform="translate(181.902,114.87)"
                 id="path9118" />
            </g>
            <g
               style="fill:#0044aa;fill-opacity:1"
               id="g9124">
              <path
                 style="fill:#0044aa;fill-opacity:1;stroke:none"
                 d="M 3,1.9375 C 2.28125,1.046875 2.03125,0.5625 1.765625,-0.328125 1.5625,-1.046875 1.453125,-1.796875 1.453125,-2.65625 1.453125,-3.484375 1.5625,-4.1875 1.75,-4.828125 2,-5.65625 2.265625,-6.125 3,-6.984375 l -0.1875,-0.25 c -1.03125,0.921875 -1.453125,1.46875 -1.828125,2.453125 -0.25,0.671875 -0.390625,1.375 -0.390625,2.125 0,1.078125 0.25,2.078125 0.734375,2.96875 C 1.671875,0.984375 2,1.375 2.8125,2.140625 Z m 0,0"
                 transform="translate(190.553,110.99)"
                 id="path9122" />
            </g>
            <g
               style="fill:#0044aa;fill-opacity:1"
               id="g9128">
              <path
                 style="fill:#0044aa;fill-opacity:1;stroke:none"
                 d="m -0.0625,1.796875 c -0.015625,0.0625 -0.015625,0.125 -0.015625,0.171875 0,0.4375 0.375,0.78125 0.8125,0.78125 1.0625,0 2.15625,-1.234375 2.75,-3.078125 L 4.890625,-4.71875 4.78125,-4.8125 c -0.296875,0.125 -0.53125,0.171875 -0.75,0.203125 l -0.34375,1.3125 c -0.125,0.46875 -0.46875,1.1875 -0.796875,1.6875 -0.34375,0.5 -0.84375,0.9375 -1.0625,0.9375 -0.109375,0 -0.203125,-0.21875 -0.1875,-0.46875 V -1.28125 l 0.15625,-1.921875 c 0.015625,-0.3125 0.03125,-0.6875 0.03125,-0.96875 0,-0.453125 -0.0625,-0.640625 -0.234375,-0.640625 -0.125,0 -0.265625,0.078125 -0.75,0.40625 l -0.8125,0.5625 0.109375,0.171875 0.5,-0.296875 L 0.671875,-4 c 0.109375,-0.0625 0.171875,-0.09375 0.21875,-0.09375 0.140625,0 0.21875,0.203125 0.21875,0.53125 0,0 0,0.0625 -0.015625,0.140625 L 0.921875,-1 v 0.40625 c 0,0.421875 0.171875,0.703125 0.421875,0.703125 0.375,0 1.203125,-0.84375 1.953125,-1.96875 L 2.8125,-0.15625 C 2.296875,1.609375 1.796875,2.328125 1.109375,2.328125 0.75,2.328125 0.484375,2.0625 0.484375,1.71875 0.484375,1.671875 0.5,1.578125 0.515625,1.5 L 0.40625,1.453125 Z m 0,0"
                 transform="translate(194.368,110.99)"
                 id="path9126" />
            </g>
            <g
               style="fill:#0044aa;fill-opacity:1"
               id="g9132">
              <path
                 style="fill:#0044aa;fill-opacity:1;stroke:none"
                 d="M 3,1.9375 C 2.28125,1.046875 2.03125,0.5625 1.765625,-0.328125 1.5625,-1.046875 1.453125,-1.796875 1.453125,-2.65625 1.453125,-3.484375 1.5625,-4.1875 1.75,-4.828125 2,-5.65625 2.265625,-6.125 3,-6.984375 l -0.1875,-0.25 c -1.03125,0.921875 -1.453125,1.46875 -1.828125,2.453125 -0.25,0.671875 -0.390625,1.375 -0.390625,2.125 0,1.078125 0.25,2.078125 0.734375,2.96875 C 1.671875,0.984375 2,1.375 2.8125,2.140625 Z m 0,0"
                 transform="translate(199.35,110.99)"
                 id="path9130" />
            </g>
            <g
               style="fill:#0044aa;fill-opacity:1"
               id="g9136">
              <path
                 style="fill:#0044aa;fill-opacity:1;stroke:none"
                 d="M 2.328125,-7.203125 2.21875,-7.3125 C 1.6875,-7.046875 1.328125,-6.953125 0.625,-6.890625 l -0.046875,0.21875 H 1.0625 c 0.234375,0 0.328125,0.0625 0.328125,0.234375 0,0.078125 0,0.171875 -0.015625,0.234375 L 0.890625,-3.53125 c -0.140625,0.75 -0.296875,1.4375 -0.8125,3.515625 L 0.171875,0.09375 0.84375,-0.078125 1.0625,-1.3125 c 0.09375,-0.484375 0.328125,-0.9375 0.671875,-1.265625 0.6875,1.984375 1,2.671875 1.25,2.671875 0.140625,0 0.375,-0.140625 0.8125,-0.4375 L 4.25,-0.671875 4.171875,-0.859375 3.75,-0.625 c -0.140625,0.09375 -0.21875,0.109375 -0.296875,0.109375 -0.09375,0 -0.15625,-0.0625 -0.25,-0.234375 C 2.84375,-1.390625 2.625,-1.921875 2.25,-3.15625 l 0.125,-0.140625 c 0.609375,-0.59375 1.078125,-0.84375 1.578125,-0.84375 0.078125,0 0.1875,0.015625 0.359375,0.046875 l 0.15625,-0.625 C 4.296875,-4.78125 4.109375,-4.8125 4,-4.8125 c -0.65625,0 -1.484375,0.78125 -2.734375,2.515625 z m 0,0"
                 transform="translate(202.667,110.99)"
                 id="path9134" />
            </g>
            <g
               style="fill:#0044aa;fill-opacity:1"
               id="g9142">
              <path
                 style="fill:#0044aa;fill-opacity:1;stroke:none"
                 d="m 0.515625,2.140625 c 0.6875,-0.640625 0.96875,-0.96875 1.28125,-1.46875 0.609375,-0.96875 0.921875,-2.125 0.921875,-3.3125 0,-0.765625 -0.125,-1.46875 -0.390625,-2.140625 -0.375,-0.96875 -0.78125,-1.515625 -1.8125,-2.453125 l -0.203125,0.25 c 0.734375,0.859375 1,1.328125 1.25,2.15625 0.203125,0.640625 0.296875,1.34375 0.296875,2.171875 0,0.859375 -0.09375,1.609375 -0.296875,2.328125 -0.265625,0.890625 -0.53125,1.375 -1.25,2.265625 z m 0,0"
                 transform="translate(207.14,110.99)"
                 id="path9138" />
              <path
                 style="fill:#0044aa;fill-opacity:1;stroke:none"
                 d="m 0.515625,2.140625 c 0.6875,-0.640625 0.96875,-0.96875 1.28125,-1.46875 0.609375,-0.96875 0.921875,-2.125 0.921875,-3.3125 0,-0.765625 -0.125,-1.46875 -0.390625,-2.140625 -0.375,-0.96875 -0.78125,-1.515625 -1.8125,-2.453125 l -0.203125,0.25 c 0.734375,0.859375 1,1.328125 1.25,2.15625 0.203125,0.640625 0.296875,1.34375 0.296875,2.171875 0,0.859375 -0.09375,1.609375 -0.296875,2.328125 -0.265625,0.890625 -0.53125,1.375 -1.25,2.265625 z m 0,0"
                 transform="translate(210.45755,110.99)"
                 id="path9140" />
            </g>
          </g>
        </g>
      </g>
    </g>
  </g>
</svg>
