<?xml version="1.0" encoding="UTF-8" standalone="no"?>
<svg
   xmlns:ns1="http://wanglongqi.github.io/WriteTeX"
   xmlns:dc="http://purl.org/dc/elements/1.1/"
   xmlns:cc="http://creativecommons.org/ns#"
   xmlns:rdf="http://www.w3.org/1999/02/22-rdf-syntax-ns#"
   xmlns:svg="http://www.w3.org/2000/svg"
   xmlns="http://www.w3.org/2000/svg"
   xmlns:sodipodi="http://sodipodi.sourceforge.net/DTD/sodipodi-0.dtd"
   xmlns:inkscape="http://www.inkscape.org/namespaces/inkscape"
   inkscape:version="1.0.2 (e86c870879, 2021-01-15, custom)"
   sodipodi:docname="diagrama_VRFT2_maps.svg"
   id="svg8"
   version="1.1"
   viewBox="0 0 210 297"
   height="297mm"
   width="210mm">
  <defs
     id="defs2">
    <marker
       style="overflow:visible;"
       id="marker5676"
       refX="0.0"
       refY="0.0"
       orient="auto"
       inkscape:stockid="Arrow2Lend"
       inkscape:isstock="true">
      <path
         transform="scale(1.1) rotate(180) translate(1,0)"
         d="M 8.7185878,4.0337352 L -2.2072895,0.016013256 L 8.7185884,-4.0017078 C 6.9730900,-1.6296469 6.9831476,1.6157441 8.7185878,4.0337352 z "
         style="fill-rule:evenodd;stroke-width:0.625;stroke-linejoin:round;stroke:#000000;stroke-opacity:1;fill:#000000;fill-opacity:1"
         id="path5674" />
    </marker>
    <marker
       style="overflow:visible"
       id="TriangleInL"
       refX="0.0"
       refY="0.0"
       orient="auto"
       inkscape:stockid="TriangleInL"
       inkscape:isstock="true">
      <path
         transform="scale(-0.8)"
         style="fill-rule:evenodd;stroke:#000000;stroke-width:1pt;stroke-opacity:1;fill:#000000;fill-opacity:1"
         d="M 5.77,0.0 L -2.88,5.0 L -2.88,-5.0 L 5.77,0.0 z "
         id="path1501" />
    </marker>
    <marker
       style="overflow:visible"
       id="marker5212"
       refX="0.0"
       refY="0.0"
       orient="auto"
       inkscape:stockid="TriangleOutL"
       inkscape:isstock="true">
      <path
         transform="scale(0.8)"
         style="fill-rule:evenodd;stroke:#000000;stroke-width:1pt;stroke-opacity:1;fill:#000000;fill-opacity:1"
         d="M 5.77,0.0 L -2.88,5.0 L -2.88,-5.0 L 5.77,0.0 z "
         id="path5210" />
    </marker>
    <marker
       style="overflow:visible"
       id="marker5202"
       refX="0.0"
       refY="0.0"
       orient="auto"
       inkscape:stockid="TriangleOutL"
       inkscape:isstock="true">
      <path
         transform="scale(0.8)"
         style="fill-rule:evenodd;stroke:#000000;stroke-width:1pt;stroke-opacity:1;fill:#000000;fill-opacity:1"
         d="M 5.77,0.0 L -2.88,5.0 L -2.88,-5.0 L 5.77,0.0 z "
         id="path5200" />
    </marker>
    <marker
       style="overflow:visible"
       id="marker5192"
       refX="0.0"
       refY="0.0"
       orient="auto"
       inkscape:stockid="TriangleOutL"
       inkscape:isstock="true">
      <path
         transform="scale(0.8)"
         style="fill-rule:evenodd;stroke:#000000;stroke-width:1pt;stroke-opacity:1;fill:#000000;fill-opacity:1"
         d="M 5.77,0.0 L -2.88,5.0 L -2.88,-5.0 L 5.77,0.0 z "
         id="path5190" />
    </marker>
    <marker
       style="overflow:visible"
       id="marker5116"
       refX="0.0"
       refY="0.0"
       orient="auto"
       inkscape:stockid="TriangleOutL"
       inkscape:isstock="true">
      <path
         transform="scale(0.8)"
         style="fill-rule:evenodd;stroke:#000000;stroke-width:1pt;stroke-opacity:1;fill:#000000;fill-opacity:1"
         d="M 5.77,0.0 L -2.88,5.0 L -2.88,-5.0 L 5.77,0.0 z "
         id="path5114" />
    </marker>
    <marker
       style="overflow:visible"
       id="Arrow2Lstart"
       refX="0.0"
       refY="0.0"
       orient="auto"
       inkscape:stockid="Arrow2Lstart"
       inkscape:isstock="true">
      <path
         transform="scale(1.1) translate(1,0)"
         d="M 8.7185878,4.0337352 L -2.2072895,0.016013256 L 8.7185884,-4.0017078 C 6.9730900,-1.6296469 6.9831476,1.6157441 8.7185878,4.0337352 z "
         style="fill-rule:evenodd;stroke-width:0.625;stroke-linejoin:round;stroke:#000000;stroke-opacity:1;fill:#000000;fill-opacity:1"
         id="path1386" />
    </marker>
    <marker
       style="overflow:visible;"
       id="marker3912"
       refX="0.0"
       refY="0.0"
       orient="auto"
       inkscape:stockid="Arrow2Lend"
       inkscape:isstock="true">
      <path
         transform="scale(1.1) rotate(180) translate(1,0)"
         d="M 8.7185878,4.0337352 L -2.2072895,0.016013256 L 8.7185884,-4.0017078 C 6.9730900,-1.6296469 6.9831476,1.6157441 8.7185878,4.0337352 z "
         style="fill-rule:evenodd;stroke-width:0.625;stroke-linejoin:round;stroke:#000000;stroke-opacity:1;fill:#000000;fill-opacity:1"
         id="path3910" />
    </marker>
    <marker
       style="overflow:visible;"
       id="marker1834"
       refX="0.0"
       refY="0.0"
       orient="auto"
       inkscape:stockid="Arrow2Lend"
       inkscape:isstock="true">
      <path
         transform="scale(1.1) rotate(180) translate(1,0)"
         d="M 8.7185878,4.0337352 L -2.2072895,0.016013256 L 8.7185884,-4.0017078 C 6.9730900,-1.6296469 6.9831476,1.6157441 8.7185878,4.0337352 z "
         style="fill-rule:evenodd;stroke-width:0.625;stroke-linejoin:round;stroke:#000000;stroke-opacity:1;fill:#000000;fill-opacity:1"
         id="path1832" />
    </marker>
    <marker
       style="overflow:visible;"
       id="marker1690"
       refX="0.0"
       refY="0.0"
       orient="auto"
       inkscape:stockid="Arrow2Lend"
       inkscape:isstock="true">
      <path
         transform="scale(1.1) rotate(180) translate(1,0)"
         d="M 8.7185878,4.0337352 L -2.2072895,0.016013256 L 8.7185884,-4.0017078 C 6.9730900,-1.6296469 6.9831476,1.6157441 8.7185878,4.0337352 z "
         style="fill-rule:evenodd;stroke-width:0.625;stroke-linejoin:round;stroke:#000000;stroke-opacity:1;fill:#000000;fill-opacity:1"
         id="path1688" />
    </marker>
    <marker
       style="overflow:visible;"
       id="marker1680"
       refX="0.0"
       refY="0.0"
       orient="auto"
       inkscape:stockid="Arrow2Lend"
       inkscape:isstock="true">
      <path
         transform="scale(1.1) rotate(180) translate(1,0)"
         d="M 8.7185878,4.0337352 L -2.2072895,0.016013256 L 8.7185884,-4.0017078 C 6.9730900,-1.6296469 6.9831476,1.6157441 8.7185878,4.0337352 z "
         style="fill-rule:evenodd;stroke-width:0.625;stroke-linejoin:round;stroke:#000000;stroke-opacity:1;fill:#000000;fill-opacity:1"
         id="path1678" />
    </marker>
    <marker
       style="overflow:visible;"
       id="Arrow2Lend"
       refX="0.0"
       refY="0.0"
       orient="auto"
       inkscape:stockid="Arrow2Lend"
       inkscape:isstock="true">
      <path
         transform="scale(1.1) rotate(180) translate(1,0)"
         d="M 8.7185878,4.0337352 L -2.2072895,0.016013256 L 8.7185884,-4.0017078 C 6.9730900,-1.6296469 6.9831476,1.6157441 8.7185878,4.0337352 z "
         style="fill-rule:evenodd;stroke-width:0.625;stroke-linejoin:round;stroke:#000000;stroke-opacity:1;fill:#000000;fill-opacity:1"
         id="path1389" />
    </marker>
    <symbol
       id="LogicalAnd">
      <title
         id="title6402">Logical And</title>
      <desc
         id="desc6404">Summing junction. Shows when multiple branches converge.</desc>
      <circle
         cx="19.84375"
         cy="19.84375"
         r="5.2916665"
         style="stroke-width:2"
         id="circle6406" />
      <path
         d="m 16.139583,16.139583 7.408334,7.408334"
         style="stroke-width:2"
         id="path6408" />
      <path
         d="m 16.139583,23.547917 7.408334,-7.408334"
         style="stroke-width:2"
         id="path6410" />
    </symbol>
  </defs>
  <sodipodi:namedview
     id="base"
     pagecolor="#ffffff"
     bordercolor="#666666"
     borderopacity="1.0"
     inkscape:pageopacity="0.0"
     inkscape:pageshadow="2"
     inkscape:zoom="1.2814962"
     inkscape:cx="394.48569"
     inkscape:cy="202.25584"
     inkscape:document-units="mm"
     inkscape:current-layer="layer2"
     inkscape:document-rotation="0"
     showgrid="false"
     inkscape:window-width="1914"
     inkscape:window-height="1056"
     inkscape:window-x="0"
     inkscape:window-y="18"
     inkscape:window-maximized="0"
     inkscape:snap-intersection-paths="false"
     inkscape:object-paths="false"
     inkscape:snap-smooth-nodes="true"
     inkscape:snap-midpoints="true"
     inkscape:snap-object-midpoints="true"
     inkscape:snap-nodes="true"
     inkscape:object-nodes="true"
     inkscape:snap-others="true"
     showguides="true"
     inkscape:guide-bbox="true"
     inkscape:snap-grids="true"
     inkscape:snap-to-guides="true"
     inkscape:snap-global="true"
     inkscape:snap-bbox="true"
     inkscape:bbox-paths="false"
     inkscape:bbox-nodes="false"
     inkscape:snap-bbox-edge-midpoints="false"
     inkscape:snap-bbox-midpoints="true">
    <inkscape:grid
       type="xygrid"
       id="grid6019"
       units="mm"
       spacingx="1"
       spacingy="1" />
    <sodipodi:guide
       position="24.56354,226.60285"
       orientation="1,0"
       id="guide12118" />
  </sodipodi:namedview>
  <metadata
     id="metadata5">
    <rdf:RDF>
      <cc:Work
         rdf:about="">
        <dc:format>image/svg+xml</dc:format>
        <dc:type
           rdf:resource="http://purl.org/dc/dcmitype/StillImage" />
        <dc:title></dc:title>
      </cc:Work>
    </rdf:RDF>
  </metadata>
  <g
     inkscape:groupmode="layer"
     id="layer2"
     inkscape:label="virtual"
     style="display:inline">
    <path
       style="fill:#333333;fill-rule:evenodd;stroke:#0044aa;stroke-width:0.7;stroke-linecap:butt;stroke-linejoin:bevel;stroke-miterlimit:3.2;stroke-dasharray:2.1, 0.7;stroke-dashoffset:0;stroke-opacity:1"
       d="M 24.56354,70.397152 H 37.285736"
       id="path2252"
       sodipodi:nodetypes="cc" />
    <path
       style="fill:none;fill-rule:evenodd;stroke:#0044aa;stroke-width:0.724883;stroke-linecap:butt;stroke-linejoin:miter;stroke-miterlimit:3.2;stroke-dasharray:2.17465, 0.724883;stroke-dashoffset:0;stroke-opacity:1"
       d="m 43.063541,77.225643 v 18.175145 l 140.999999,0.07983 V 71.565966"
       id="path2334"
       sodipodi:nodetypes="cccc" />
    <path
       style="fill:none;fill-rule:evenodd;stroke:#0044aa;stroke-width:0.7;stroke-linecap:butt;stroke-linejoin:bevel;stroke-miterlimit:3.2;stroke-dasharray:2.1, 0.7;stroke-dashoffset:0;stroke-opacity:1"
       d="m 48.285736,70.439202 18,-0.04205"
       id="path6151"
       inkscape:connector-curvature="0"
       inkscape:connector-type="polyline"
       sodipodi:nodetypes="cc" />
    <g
       id="g6699"
       transform="rotate(45,128.28633,52.101601)"
       style="stroke:#000080;stroke-width:0.7;stroke-miterlimit:3.2;stroke-dasharray:2.1, 0.7;stroke-dashoffset:0" />
    <circle
       style="fill:#ffffff;stroke:#0044aa;stroke-width:0.7;stroke-miterlimit:3.2;stroke-dasharray:2.1, 0.7;stroke-dashoffset:0"
       id="path2248"
       cx="-19.484802"
       cy="80.190063"
       r="4.7883334"
       transform="rotate(-45)"
       inkscape:transform-center-x="0.47720466"
       inkscape:transform-center-y="5.2243011" />
    <g
       aria-label="+"
       id="text6703"
       style="font-style:normal;font-weight:normal;font-size:4.28937px;line-height:1.25;font-family:sans-serif;fill:#0044aa;fill-opacity:1;stroke:none;stroke-width:0.7;stroke-miterlimit:3.2;stroke-dasharray:2.1, 0.7;stroke-dashoffset:0"
       transform="translate(-5.1408726,-30.325824)">
      <path
         d="m 42.147171,103.69475 v 1.16659 h 1.166592 v 0.35605 h -1.166592 v 1.16659 h -0.351862 v -1.16659 h -1.166591 v -0.35605 h 1.166591 v -1.16659 z"
         style="fill:#0044aa;fill-opacity:1;stroke:none;stroke-width:0.7;stroke-miterlimit:3.2;stroke-dasharray:2.1, 0.7;stroke-dashoffset:0"
         id="path6859" />
    </g>
    <g
       aria-label="-"
       id="text6711"
       style="font-style:normal;font-weight:normal;font-size:4.28937px;line-height:1.25;font-family:sans-serif;fill:#0044aa;fill-opacity:1;stroke:none;stroke-width:0.4597;stroke-miterlimit:3.2;stroke-dasharray:1.3791, 0.4597;stroke-dashoffset:0"
       transform="matrix(1.8629731,0,0,1.2446328,-35.999809,-56.911211)">
      <path
         d="m 44.141269,107.56655 h 1.128892 v 0.34348 h -1.128892 z"
         style="fill:#0044aa;fill-opacity:1;stroke:none;stroke-width:0.4597;stroke-miterlimit:3.2;stroke-dasharray:1.3791, 0.4597;stroke-dashoffset:0"
         id="path6856" />
    </g>
    <rect
       style="fill:#000000;fill-opacity:0;stroke:#c83737;stroke-width:0.7;stroke-linecap:butt;stroke-linejoin:miter;stroke-miterlimit:3.2;stroke-dasharray:2.1, 0.7;stroke-dashoffset:0;stroke-opacity:1"
       id="rect833"
       width="35.300003"
       height="19.354532"
       x="67.413536"
       y="60.776089"
       ry="3.6915833e-06" />
    <path
       style="fill:#0044aa;fill-opacity:1;stroke:none;stroke-width:0.264583px;stroke-linecap:butt;stroke-linejoin:miter;stroke-opacity:1"
       d="m 43.063541,74.880616 -2,3.20001 h 4 z"
       id="path6735"
       sodipodi:nodetypes="cccc" />
    <path
       style="fill:#0044aa;fill-opacity:1;stroke:none;stroke-width:0.264583px;stroke-linecap:butt;stroke-linejoin:miter;stroke-opacity:1"
       d="m 67.063541,70.480621 -3.20001,-2 v 4 z"
       id="path6741"
       sodipodi:nodetypes="cccc"
       inkscape:transform-center-x="1.6229395"
       inkscape:transform-center-y="0.089616257" />
    <path
       style="fill:#0044aa;fill-opacity:1;stroke:none;stroke-width:0.350001;stroke-linecap:round;stroke-linejoin:bevel;stroke-miterlimit:3.2;stroke-dasharray:none;stroke-dashoffset:0;paint-order:fill markers stroke"
       d="m 25.81354,70.397151 a 1.25,1.25 0 0 1 -1.25,1.25 1.25,1.25 0 0 1 -1.25,-1.25 1.25,1.25 0 0 1 1.25,-1.25 1.25,1.25 0 0 1 1.25,1.25 z"
       id="path6786" />
    <path
       style="fill:#0044aa;fill-opacity:1;stroke:none;stroke-width:0.264583px;stroke-linecap:butt;stroke-linejoin:miter;stroke-opacity:1"
       d="m 38.063541,70.480621 -3.20001,-2 v 4 z"
       id="path7074"
       sodipodi:nodetypes="cccc"
       inkscape:transform-center-x="1.6229395"
       inkscape:transform-center-y="0.089616257" />
    <g
       ns1:text="$\bar{e}(k)$"
       transform="matrix(0.71098453,0,0,0.68437555,-76.914738,-9.7726287)"
       style="fill:#000000;fill-opacity:0;stroke-width:1.00351;stroke-miterlimit:3.2;stroke-dasharray:none;stroke-dashoffset:0"
       id="g7305">
      <g
         id="g7303"
         style="fill:#000000;fill-opacity:0;stroke-width:1.00351">
        <g
           style="fill:#000000;fill-opacity:0;stroke-width:1.00351"
           id="g7285">
          <path
             style="fill:#000000;fill-opacity:0;stroke:none;stroke-width:1.00351"
             d="M 4.28125,-5.578125 V -5.875 H 0.6875 v 0.296875 z m 0,0"
             transform="translate(178.967,110.99)"
             id="path7283" />
        </g>
        <g
           style="fill:#000000;fill-opacity:0;stroke-width:1.00351"
           id="g7289">
          <path
             style="fill:#000000;fill-opacity:0;stroke:none;stroke-width:1.00351"
             d="m 1.859375,-2.296875 c 0.296875,0 1.03125,-0.03125 1.53125,-0.234375 0.703125,-0.296875 0.75,-0.890625 0.75,-1.03125 0,-0.4375 -0.375,-0.84375 -1.0625,-0.84375 -1.109375,0 -2.625,0.96875 -2.625,2.71875 0,1.015625 0.59375,1.796875 1.578125,1.796875 1.421875,0 2.25,-1.0625 2.25,-1.171875 0,-0.0625 -0.046875,-0.140625 -0.109375,-0.140625 -0.0625,0 -0.078125,0.03125 -0.140625,0.109375 -0.78125,0.984375 -1.875,0.984375 -1.984375,0.984375 -0.78125,0 -0.875,-0.84375 -0.875,-1.15625 0,-0.125 0.015625,-0.421875 0.15625,-1.03125 z m -0.46875,-0.21875 C 1.78125,-4.03125 2.8125,-4.1875 3.078125,-4.1875 c 0.453125,0 0.734375,0.296875 0.734375,0.625 0,1.046875 -1.59375,1.046875 -2.015625,1.046875 z m 0,0"
             transform="translate(178.584,110.99)"
             id="path7287" />
        </g>
        <g
           style="fill:#000000;fill-opacity:0;stroke-width:1.00351"
           id="g7293">
          <path
             style="fill:#000000;fill-opacity:0;stroke:none;stroke-width:1.00351"
             d="m 3.296875,2.390625 c 0,-0.03125 0,-0.046875 -0.171875,-0.21875 C 1.890625,0.921875 1.5625,-0.96875 1.5625,-2.5 c 0,-1.734375 0.375,-3.46875 1.609375,-4.703125 0.125,-0.125 0.125,-0.140625 0.125,-0.171875 0,-0.078125 -0.03125,-0.109375 -0.09375,-0.109375 -0.109375,0 -1,0.6875 -1.59375,1.953125 -0.5,1.09375 -0.625,2.203125 -0.625,3.03125 0,0.78125 0.109375,1.984375 0.65625,3.125 C 2.25,1.84375 3.09375,2.5 3.203125,2.5 c 0.0625,0 0.09375,-0.03125 0.09375,-0.109375 z m 0,0"
             transform="translate(183.223,110.99)"
             id="path7291" />
        </g>
        <g
           style="fill:#000000;fill-opacity:0;stroke-width:1.00351"
           id="g7297">
          <path
             style="fill:#000000;fill-opacity:0;stroke:none;stroke-width:1.00351"
             d="m 2.859375,-6.8125 c 0,0 0,-0.109375 -0.125,-0.109375 -0.234375,0 -0.953125,0.078125 -1.21875,0.109375 -0.078125,0 -0.1875,0.015625 -0.1875,0.1875 0,0.125 0.09375,0.125 0.234375,0.125 0.484375,0 0.5,0.0625 0.5,0.171875 L 2.03125,-6.125 0.59375,-0.390625 c -0.046875,0.140625 -0.046875,0.15625 -0.046875,0.21875 0,0.234375 0.203125,0.28125 0.296875,0.28125 0.125,0 0.265625,-0.09375 0.328125,-0.203125 0.046875,-0.09375 0.5,-1.9375 0.5625,-2.1875 0.34375,0.03125 1.15625,0.1875 1.15625,0.84375 0,0.078125 0,0.109375 -0.03125,0.21875 -0.015625,0.109375 -0.03125,0.234375 -0.03125,0.34375 0,0.578125 0.390625,0.984375 0.90625,0.984375 0.296875,0 0.578125,-0.15625 0.796875,-0.53125 0.25,-0.4375 0.359375,-0.984375 0.359375,-1 0,-0.109375 -0.09375,-0.109375 -0.125,-0.109375 -0.09375,0 -0.109375,0.046875 -0.140625,0.1875 -0.203125,0.71875 -0.421875,1.234375 -0.859375,1.234375 -0.203125,0 -0.328125,-0.109375 -0.328125,-0.46875 0,-0.171875 0.046875,-0.40625 0.078125,-0.5625 C 3.5625,-1.3125 3.5625,-1.34375 3.5625,-1.453125 3.5625,-2.09375 2.9375,-2.375 2.078125,-2.5 2.390625,-2.671875 2.71875,-2.984375 2.9375,-3.234375 3.421875,-3.765625 3.875,-4.1875 4.359375,-4.1875 c 0.0625,0 0.078125,0 0.09375,0.015625 0.125,0.015625 0.125,0.015625 0.21875,0.078125 0.015625,0 0.015625,0.015625 0.03125,0.03125 -0.46875,0.03125 -0.5625,0.421875 -0.5625,0.546875 0,0.15625 0.109375,0.34375 0.375,0.34375 0.265625,0 0.546875,-0.21875 0.546875,-0.609375 0,-0.296875 -0.234375,-0.625 -0.671875,-0.625 -0.28125,0 -0.734375,0.078125 -1.453125,0.875 -0.34375,0.375 -0.734375,0.78125 -1.109375,0.921875 z m 0,0"
             transform="translate(187.098,110.99)"
             id="path7295" />
        </g>
        <g
           style="fill:#000000;fill-opacity:0;stroke-width:1.00351"
           id="g7301">
          <path
             style="fill:#000000;fill-opacity:0;stroke:none;stroke-width:1.00351"
             d="m 2.875,-2.5 c 0,-0.765625 -0.109375,-1.96875 -0.65625,-3.109375 -0.59375,-1.21875 -1.453125,-1.875 -1.546875,-1.875 -0.0625,0 -0.109375,0.046875 -0.109375,0.109375 0,0.03125 0,0.046875 0.1875,0.234375 0.984375,0.984375 1.546875,2.5625 1.546875,4.640625 0,1.71875 -0.359375,3.46875 -1.59375,4.71875 C 0.5625,2.34375 0.5625,2.359375 0.5625,2.390625 0.5625,2.453125 0.609375,2.5 0.671875,2.5 0.765625,2.5 1.671875,1.8125 2.25,0.546875 2.765625,-0.546875 2.875,-1.65625 2.875,-2.5 Z m 0,0"
             transform="translate(192.598,110.99)"
             id="path7299" />
        </g>
      </g>
    </g>
    <g
       id="g10466">
      <g
         style="fill:#000000;fill-opacity:1;stroke-width:1.00351;stroke-miterlimit:3.2;stroke-dasharray:none;stroke-dashoffset:0"
         id="g7461"
         transform="matrix(0.71098453,0,0,0.68437555,63.353778,-9.7726287)" />
      <g
         style="fill:#000000;fill-opacity:1;stroke-width:1.00351;stroke-miterlimit:3.2;stroke-dasharray:none;stroke-dashoffset:0"
         id="g7465"
         transform="matrix(0.71098453,0,0,0.68437555,63.353778,-9.7726287)" />
      <g
         style="fill:#000000;fill-opacity:1;stroke-width:1.00351;stroke-miterlimit:3.2;stroke-dasharray:none;stroke-dashoffset:0"
         id="g7469"
         transform="matrix(0.71098453,0,0,0.68437555,63.353778,-9.7726287)" />
      <g
         style="fill:#000000;fill-opacity:1;stroke-width:1.00351;stroke-miterlimit:3.2;stroke-dasharray:none;stroke-dashoffset:0"
         id="g7473"
         transform="matrix(0.71098453,0,0,0.68437555,63.353778,-9.7726287)" />
    </g>
    <g
       ns1:text="$\bar{r}(k)$"
       transform="matrix(0.71098453,0,0,0.68437555,-118.43296,-3.8560978)"
       style="fill:#000000;fill-opacity:0;stroke-width:1.00351;stroke-miterlimit:3.2;stroke-dasharray:none;stroke-dashoffset:0"
       id="g7813">
      <g
         id="g7811"
         style="fill:#000000;fill-opacity:0">
        <g
           style="fill:#000000;fill-opacity:0"
           id="g7793">
          <path
             style="fill:#000000;fill-opacity:0;stroke:none"
             d="M 4.28125,-5.578125 V -5.875 H 0.6875 v 0.296875 z m 0,0"
             transform="translate(179.033,110.99)"
             id="path7791" />
        </g>
        <g
           style="fill:#000000;fill-opacity:0"
           id="g7797">
          <path
             style="fill:#000000;fill-opacity:0;stroke:none"
             d="m 0.875,-0.59375 c -0.03125,0.15625 -0.09375,0.390625 -0.09375,0.4375 0,0.171875 0.140625,0.265625 0.296875,0.265625 0.125,0 0.296875,-0.078125 0.375,-0.28125 C 1.46875,-0.203125 1.796875,-1.5625 1.84375,-1.75 c 0.078125,-0.328125 0.265625,-1.015625 0.3125,-1.296875 0.046875,-0.125 0.328125,-0.59375 0.5625,-0.8125 0.078125,-0.0625 0.375,-0.328125 0.796875,-0.328125 0.265625,0 0.40625,0.125 0.421875,0.125 -0.296875,0.046875 -0.515625,0.28125 -0.515625,0.546875 0,0.15625 0.109375,0.34375 0.375,0.34375 0.265625,0 0.546875,-0.234375 0.546875,-0.59375 0,-0.34375 -0.3125,-0.640625 -0.828125,-0.640625 C 2.875,-4.40625 2.4375,-3.921875 2.25,-3.640625 2.15625,-4.09375 1.796875,-4.40625 1.328125,-4.40625 0.875,-4.40625 0.6875,-4.015625 0.59375,-3.84375 0.421875,-3.5 0.296875,-2.90625 0.296875,-2.875 c 0,0.109375 0.09375,0.109375 0.109375,0.109375 0.109375,0 0.109375,-0.015625 0.171875,-0.234375 0.171875,-0.703125 0.375,-1.1875 0.734375,-1.1875 0.15625,0 0.296875,0.078125 0.296875,0.453125 0,0.21875 -0.03125,0.328125 -0.15625,0.84375 z m 0,0"
             transform="translate(178.585,110.99)"
             id="path7795" />
        </g>
        <g
           style="fill:#000000;fill-opacity:0"
           id="g7801">
          <path
             style="fill:#000000;fill-opacity:0;stroke:none"
             d="m 3.296875,2.390625 c 0,-0.03125 0,-0.046875 -0.171875,-0.21875 C 1.890625,0.921875 1.5625,-0.96875 1.5625,-2.5 c 0,-1.734375 0.375,-3.46875 1.609375,-4.703125 0.125,-0.125 0.125,-0.140625 0.125,-0.171875 0,-0.078125 -0.03125,-0.109375 -0.09375,-0.109375 -0.109375,0 -1,0.6875 -1.59375,1.953125 -0.5,1.09375 -0.625,2.203125 -0.625,3.03125 0,0.78125 0.109375,1.984375 0.65625,3.125 C 2.25,1.84375 3.09375,2.5 3.203125,2.5 c 0.0625,0 0.09375,-0.03125 0.09375,-0.109375 z m 0,0"
             transform="translate(183.356,110.99)"
             id="path7799" />
        </g>
        <g
           style="fill:#000000;fill-opacity:0"
           id="g7805">
          <path
             style="fill:#000000;fill-opacity:0;stroke:none"
             d="m 2.859375,-6.8125 c 0,0 0,-0.109375 -0.125,-0.109375 -0.234375,0 -0.953125,0.078125 -1.21875,0.109375 -0.078125,0 -0.1875,0.015625 -0.1875,0.1875 0,0.125 0.09375,0.125 0.234375,0.125 0.484375,0 0.5,0.0625 0.5,0.171875 L 2.03125,-6.125 0.59375,-0.390625 c -0.046875,0.140625 -0.046875,0.15625 -0.046875,0.21875 0,0.234375 0.203125,0.28125 0.296875,0.28125 0.125,0 0.265625,-0.09375 0.328125,-0.203125 0.046875,-0.09375 0.5,-1.9375 0.5625,-2.1875 0.34375,0.03125 1.15625,0.1875 1.15625,0.84375 0,0.078125 0,0.109375 -0.03125,0.21875 -0.015625,0.109375 -0.03125,0.234375 -0.03125,0.34375 0,0.578125 0.390625,0.984375 0.90625,0.984375 0.296875,0 0.578125,-0.15625 0.796875,-0.53125 0.25,-0.4375 0.359375,-0.984375 0.359375,-1 0,-0.109375 -0.09375,-0.109375 -0.125,-0.109375 -0.09375,0 -0.109375,0.046875 -0.140625,0.1875 -0.203125,0.71875 -0.421875,1.234375 -0.859375,1.234375 -0.203125,0 -0.328125,-0.109375 -0.328125,-0.46875 0,-0.171875 0.046875,-0.40625 0.078125,-0.5625 C 3.5625,-1.3125 3.5625,-1.34375 3.5625,-1.453125 3.5625,-2.09375 2.9375,-2.375 2.078125,-2.5 2.390625,-2.671875 2.71875,-2.984375 2.9375,-3.234375 3.421875,-3.765625 3.875,-4.1875 4.359375,-4.1875 c 0.0625,0 0.078125,0 0.09375,0.015625 0.125,0.015625 0.125,0.015625 0.21875,0.078125 0.015625,0 0.015625,0.015625 0.03125,0.03125 -0.46875,0.03125 -0.5625,0.421875 -0.5625,0.546875 0,0.15625 0.109375,0.34375 0.375,0.34375 0.265625,0 0.546875,-0.21875 0.546875,-0.609375 0,-0.296875 -0.234375,-0.625 -0.671875,-0.625 -0.28125,0 -0.734375,0.078125 -1.453125,0.875 -0.34375,0.375 -0.734375,0.78125 -1.109375,0.921875 z m 0,0"
             transform="translate(187.23,110.99)"
             id="path7803" />
        </g>
        <g
           style="fill:#000000;fill-opacity:0"
           id="g7809">
          <path
             style="fill:#000000;fill-opacity:0;stroke:none"
             d="m 2.875,-2.5 c 0,-0.765625 -0.109375,-1.96875 -0.65625,-3.109375 -0.59375,-1.21875 -1.453125,-1.875 -1.546875,-1.875 -0.0625,0 -0.109375,0.046875 -0.109375,0.109375 0,0.03125 0,0.046875 0.1875,0.234375 0.984375,0.984375 1.546875,2.5625 1.546875,4.640625 0,1.71875 -0.359375,3.46875 -1.59375,4.71875 C 0.5625,2.34375 0.5625,2.359375 0.5625,2.390625 0.5625,2.453125 0.609375,2.5 0.671875,2.5 0.765625,2.5 1.671875,1.8125 2.25,0.546875 2.765625,-0.546875 2.875,-1.65625 2.875,-2.5 Z m 0,0"
             transform="translate(192.731,110.99)"
             id="path7807" />
        </g>
      </g>
    </g>
    <g
       id="g2073"
       transform="translate(-6.7771645,0.48062135)">
      <path
         id="path2060"
         style="fill:#000000;fill-opacity:1;stroke:none;stroke-width:0.423333;stroke-linecap:round;stroke-linejoin:bevel;stroke-miterlimit:4;stroke-dasharray:none;stroke-dashoffset:0;paint-order:fill markers stroke"
         d="M 129,72.49985 A 2.5,2.5 0 0 0 131.5001,69.99974 2.5,2.5 0 0 0 129,67.50015 Z" />
      <circle
         style="fill:#ffffff;fill-opacity:1;stroke:none;stroke-width:0.3"
         id="path2069"
         cx="128.99887"
         cy="70"
         r="1.9720693" />
    </g>
    <g
       id="g2545"
       transform="matrix(-1,0,0,1,247.05142,0.48062135)">
      <path
         id="path2541"
         style="fill:#0044aa;fill-opacity:1;stroke:none;stroke-width:0.423333;stroke-linecap:round;stroke-linejoin:bevel;stroke-miterlimit:4;stroke-dasharray:none;stroke-dashoffset:0;paint-order:fill markers stroke"
         d="M 129,72.49985 A 2.5,2.5 0 0 0 131.5001,69.99974 2.5,2.5 0 0 0 129,67.50015 Z" />
      <circle
         style="fill:#ffffff;fill-opacity:1;stroke:none;stroke-width:0.3"
         id="circle2543"
         cx="128.99887"
         cy="70"
         r="1.9720693" />
    </g>
    <g
       ns1:text="$\tilde{r}(k)$"
       transform="matrix(0.71098453,0,0,0.68437555,-116.04459,-9.8169379)"
       style="fill:#0044aa;fill-opacity:1;stroke-width:1.00351;stroke-miterlimit:3.2;stroke-dasharray:none;stroke-dashoffset:0"
       id="g10159">
      <g
         id="g10157"
         style="fill:#0044aa;fill-opacity:1">
        <g
           style="fill:#0044aa;fill-opacity:1"
           id="g10139">
          <path
             style="fill:#0044aa;fill-opacity:1;stroke:none"
             d="M 3.015625,-6.375 C 2.875,-6.015625 2.71875,-5.875 2.4375,-5.875 2.3125,-5.875 2.203125,-5.921875 1.96875,-6.03125 1.4375,-6.296875 1.3125,-6.328125 1.078125,-6.328125 c -0.546875,0 -0.921875,0.34375 -1.0625,1 H 0.3125 c 0.125,-0.3125 0.28125,-0.453125 0.53125,-0.453125 0.140625,0 0.328125,0.0625 0.703125,0.265625 0.296875,0.125 0.453125,0.1875 0.671875,0.1875 0.578125,0 1.046875,-0.46875 1.09375,-1.046875 z m 0,0"
             transform="translate(179.411,110.856)"
             id="path10137" />
        </g>
        <g
           style="fill:#0044aa;fill-opacity:1"
           id="g10143">
          <path
             style="fill:#0044aa;fill-opacity:1;stroke:none"
             d="M 3.671875,-3.640625 C 3.703125,-4.015625 3.75,-4.34375 3.828125,-4.75 3.71875,-4.796875 3.671875,-4.8125 3.625,-4.8125 c -0.3125,0 -0.609375,0.25 -0.96875,0.75 L 2.375,-3.671875 c -0.375,0.5625 -0.5,0.765625 -0.65625,1.125 l 0.078125,-0.40625 C 1.828125,-3.1875 1.90625,-3.59375 1.96875,-3.8125 l 0.0625,-0.25 c 0.046875,-0.171875 0.0625,-0.296875 0.0625,-0.421875 0,-0.203125 -0.078125,-0.328125 -0.234375,-0.328125 -0.203125,0 -0.578125,0.21875 -1.328125,0.75 l -0.265625,0.1875 0.0625,0.203125 0.3125,-0.203125 C 0.921875,-4.0625 1.03125,-4.109375 1.125,-4.109375 c 0.09375,0 0.171875,0.09375 0.171875,0.21875 C 1.296875,-3.3125 0.875,-1.25 0.46875,0.015625 L 0.5625,0.09375 C 0.71875,0.046875 0.875,0.015625 1.109375,-0.046875 L 1.234375,-0.0625 1.5,-1.25 c 0.171875,-0.828125 0.40625,-1.359375 0.84375,-1.9375 0.34375,-0.4375 0.609375,-0.640625 0.828125,-0.640625 0.140625,0 0.25,0.046875 0.359375,0.1875 z m 0,0"
             transform="translate(178.584,110.99)"
             id="path10141" />
        </g>
        <g
           style="fill:#0044aa;fill-opacity:1"
           id="g10147">
          <path
             style="fill:#0044aa;fill-opacity:1;stroke:none"
             d="M 3,1.9375 C 2.28125,1.046875 2.03125,0.5625 1.765625,-0.328125 1.5625,-1.046875 1.453125,-1.796875 1.453125,-2.65625 1.453125,-3.484375 1.5625,-4.1875 1.75,-4.828125 2,-5.65625 2.265625,-6.125 3,-6.984375 l -0.1875,-0.25 c -1.03125,0.921875 -1.453125,1.46875 -1.828125,2.453125 -0.25,0.671875 -0.390625,1.375 -0.390625,2.125 0,1.078125 0.25,2.078125 0.734375,2.96875 C 1.671875,0.984375 2,1.375 2.8125,2.140625 Z m 0,0"
             transform="translate(182.46,110.99)"
             id="path10145" />
        </g>
        <g
           style="fill:#0044aa;fill-opacity:1"
           id="g10151">
          <path
             style="fill:#0044aa;fill-opacity:1;stroke:none"
             d="M 2.328125,-7.203125 2.21875,-7.3125 C 1.6875,-7.046875 1.328125,-6.953125 0.625,-6.890625 l -0.046875,0.21875 H 1.0625 c 0.234375,0 0.328125,0.0625 0.328125,0.234375 0,0.078125 0,0.171875 -0.015625,0.234375 L 0.890625,-3.53125 c -0.140625,0.75 -0.296875,1.4375 -0.8125,3.515625 L 0.171875,0.09375 0.84375,-0.078125 1.0625,-1.3125 c 0.09375,-0.484375 0.328125,-0.9375 0.671875,-1.265625 0.6875,1.984375 1,2.671875 1.25,2.671875 0.140625,0 0.375,-0.140625 0.8125,-0.4375 L 4.25,-0.671875 4.171875,-0.859375 3.75,-0.625 c -0.140625,0.09375 -0.21875,0.109375 -0.296875,0.109375 -0.09375,0 -0.15625,-0.0625 -0.25,-0.234375 C 2.84375,-1.390625 2.625,-1.921875 2.25,-3.15625 l 0.125,-0.140625 c 0.609375,-0.59375 1.078125,-0.84375 1.578125,-0.84375 0.078125,0 0.1875,0.015625 0.359375,0.046875 l 0.15625,-0.625 C 4.296875,-4.78125 4.109375,-4.8125 4,-4.8125 c -0.65625,0 -1.484375,0.78125 -2.734375,2.515625 z m 0,0"
             transform="translate(185.777,110.99)"
             id="path10149" />
        </g>
        <g
           style="fill:#0044aa;fill-opacity:1"
           id="g10155">
          <path
             style="fill:#0044aa;fill-opacity:1;stroke:none"
             d="m 0.515625,2.140625 c 0.6875,-0.640625 0.96875,-0.96875 1.28125,-1.46875 0.609375,-0.96875 0.921875,-2.125 0.921875,-3.3125 0,-0.765625 -0.125,-1.46875 -0.390625,-2.140625 -0.375,-0.96875 -0.78125,-1.515625 -1.8125,-2.453125 l -0.203125,0.25 c 0.734375,0.859375 1,1.328125 1.25,2.15625 0.203125,0.640625 0.296875,1.34375 0.296875,2.171875 0,0.859375 -0.09375,1.609375 -0.296875,2.328125 -0.265625,0.890625 -0.53125,1.375 -1.25,2.265625 z m 0,0"
             transform="translate(190.25,110.99)"
             id="path10153" />
        </g>
      </g>
    </g>
    <g
       ns1:text="$\tilde{e}(k)$"
       transform="matrix(0.71098453,0,0,0.68437555,-77.260899,-9.8169379)"
       style="fill:#0044aa;fill-opacity:1;stroke-width:1.00351;stroke-miterlimit:3.2;stroke-dasharray:none;stroke-dashoffset:0"
       id="g10392">
      <g
         id="g10390"
         style="fill:#0044aa;fill-opacity:1">
        <g
           style="fill:#0044aa;fill-opacity:1"
           id="g10372">
          <path
             style="fill:#0044aa;fill-opacity:1;stroke:none"
             d="M 3.015625,-6.375 C 2.875,-6.015625 2.71875,-5.875 2.4375,-5.875 2.3125,-5.875 2.203125,-5.921875 1.96875,-6.03125 1.4375,-6.296875 1.3125,-6.328125 1.078125,-6.328125 c -0.546875,0 -0.921875,0.34375 -1.0625,1 H 0.3125 c 0.125,-0.3125 0.28125,-0.453125 0.53125,-0.453125 0.140625,0 0.328125,0.0625 0.703125,0.265625 0.296875,0.125 0.453125,0.1875 0.671875,0.1875 0.578125,0 1.046875,-0.46875 1.09375,-1.046875 z m 0,0"
             transform="translate(179.411,110.856)"
             id="path10370" />
        </g>
        <g
           style="fill:#0044aa;fill-opacity:1"
           id="g10376">
          <path
             style="fill:#0044aa;fill-opacity:1;stroke:none"
             d="M 3.265625,-1.109375 3.03125,-0.9375 c -0.53125,0.375 -1,0.578125 -1.359375,0.578125 -0.46875,0 -0.765625,-0.375 -0.765625,-0.96875 0,-0.25 0.03125,-0.515625 0.078125,-0.8125 l 0.8125,-0.1875 C 1.96875,-2.375 2.25,-2.46875 2.5,-2.578125 c 0.84375,-0.375 1.234375,-0.828125 1.234375,-1.453125 0,-0.46875 -0.34375,-0.78125 -0.84375,-0.78125 -0.640625,0 -1.75,0.703125 -2.140625,1.328125 -0.296875,0.5 -0.59375,1.6875 -0.59375,2.359375 0,0.78125 0.4375,1.234375 1.15625,1.234375 0.5625,0 1.125,-0.28125 2.03125,-1.03125 z M 1.125,-2.734375 c 0.171875,-0.6875 0.375,-1.109375 0.65625,-1.375 0.1875,-0.15625 0.484375,-0.28125 0.734375,-0.28125 0.28125,0 0.46875,0.203125 0.46875,0.515625 0,0.453125 -0.34375,0.921875 -0.859375,1.15625 -0.28125,0.140625 -0.640625,0.25 -1.09375,0.359375 z m 0,0"
             transform="translate(178.584,110.99)"
             id="path10374" />
        </g>
        <g
           style="fill:#0044aa;fill-opacity:1"
           id="g10380">
          <path
             style="fill:#0044aa;fill-opacity:1;stroke:none"
             d="M 3,1.9375 C 2.28125,1.046875 2.03125,0.5625 1.765625,-0.328125 1.5625,-1.046875 1.453125,-1.796875 1.453125,-2.65625 1.453125,-3.484375 1.5625,-4.1875 1.75,-4.828125 2,-5.65625 2.265625,-6.125 3,-6.984375 l -0.1875,-0.25 c -1.03125,0.921875 -1.453125,1.46875 -1.828125,2.453125 -0.25,0.671875 -0.390625,1.375 -0.390625,2.125 0,1.078125 0.25,2.078125 0.734375,2.96875 C 1.671875,0.984375 2,1.375 2.8125,2.140625 Z m 0,0"
             transform="translate(182.46,110.99)"
             id="path10378" />
        </g>
        <g
           style="fill:#0044aa;fill-opacity:1"
           id="g10384">
          <path
             style="fill:#0044aa;fill-opacity:1;stroke:none"
             d="M 2.328125,-7.203125 2.21875,-7.3125 C 1.6875,-7.046875 1.328125,-6.953125 0.625,-6.890625 l -0.046875,0.21875 H 1.0625 c 0.234375,0 0.328125,0.0625 0.328125,0.234375 0,0.078125 0,0.171875 -0.015625,0.234375 L 0.890625,-3.53125 c -0.140625,0.75 -0.296875,1.4375 -0.8125,3.515625 L 0.171875,0.09375 0.84375,-0.078125 1.0625,-1.3125 c 0.09375,-0.484375 0.328125,-0.9375 0.671875,-1.265625 0.6875,1.984375 1,2.671875 1.25,2.671875 0.140625,0 0.375,-0.140625 0.8125,-0.4375 L 4.25,-0.671875 4.171875,-0.859375 3.75,-0.625 c -0.140625,0.09375 -0.21875,0.109375 -0.296875,0.109375 -0.09375,0 -0.15625,-0.0625 -0.25,-0.234375 C 2.84375,-1.390625 2.625,-1.921875 2.25,-3.15625 l 0.125,-0.140625 c 0.609375,-0.59375 1.078125,-0.84375 1.578125,-0.84375 0.078125,0 0.1875,0.015625 0.359375,0.046875 l 0.15625,-0.625 C 4.296875,-4.78125 4.109375,-4.8125 4,-4.8125 c -0.65625,0 -1.484375,0.78125 -2.734375,2.515625 z m 0,0"
             transform="translate(185.777,110.99)"
             id="path10382" />
        </g>
        <g
           style="fill:#0044aa;fill-opacity:1"
           id="g10388">
          <path
             style="fill:#0044aa;fill-opacity:1;stroke:none"
             d="m 0.515625,2.140625 c 0.6875,-0.640625 0.96875,-0.96875 1.28125,-1.46875 0.609375,-0.96875 0.921875,-2.125 0.921875,-3.3125 0,-0.765625 -0.125,-1.46875 -0.390625,-2.140625 -0.375,-0.96875 -0.78125,-1.515625 -1.8125,-2.453125 l -0.203125,0.25 c 0.734375,0.859375 1,1.328125 1.25,2.15625 0.203125,0.640625 0.296875,1.34375 0.296875,2.171875 0,0.859375 -0.09375,1.609375 -0.296875,2.328125 -0.265625,0.890625 -0.53125,1.375 -1.25,2.265625 z m 0,0"
             transform="translate(190.25,110.99)"
             id="path10386" />
        </g>
      </g>
    </g>
    <g
       ns1:text="$\tilde{y}(k)$"
       transform="matrix(0.8,0,0,0.8,45.800215,-22.594848)"
       id="g10648">
      <g
         id="g10646">
        <g
           style="fill:#000000;fill-opacity:1"
           id="g10628">
          <path
             style="stroke:none"
             d="M 3.015625,-6.375 C 2.875,-6.015625 2.71875,-5.875 2.4375,-5.875 2.3125,-5.875 2.203125,-5.921875 1.96875,-6.03125 1.4375,-6.296875 1.3125,-6.328125 1.078125,-6.328125 c -0.546875,0 -0.921875,0.34375 -1.0625,1 H 0.3125 c 0.125,-0.3125 0.28125,-0.453125 0.53125,-0.453125 0.140625,0 0.328125,0.0625 0.703125,0.265625 0.296875,0.125 0.453125,0.1875 0.671875,0.1875 0.578125,0 1.046875,-0.46875 1.09375,-1.046875 z m 0,0"
             transform="translate(180.213,110.856)"
             id="path10626" />
        </g>
        <g
           style="fill:#000000;fill-opacity:1"
           id="g10632">
          <path
             style="stroke:none"
             d="m -0.0625,1.796875 c -0.015625,0.0625 -0.015625,0.125 -0.015625,0.171875 0,0.4375 0.375,0.78125 0.8125,0.78125 1.0625,0 2.15625,-1.234375 2.75,-3.078125 L 4.890625,-4.71875 4.78125,-4.8125 c -0.296875,0.125 -0.53125,0.171875 -0.75,0.203125 l -0.34375,1.3125 c -0.125,0.46875 -0.46875,1.1875 -0.796875,1.6875 -0.34375,0.5 -0.84375,0.9375 -1.0625,0.9375 -0.109375,0 -0.203125,-0.21875 -0.1875,-0.46875 V -1.28125 l 0.15625,-1.921875 c 0.015625,-0.3125 0.03125,-0.6875 0.03125,-0.96875 0,-0.453125 -0.0625,-0.640625 -0.234375,-0.640625 -0.125,0 -0.265625,0.078125 -0.75,0.40625 l -0.8125,0.5625 0.109375,0.171875 0.5,-0.296875 L 0.671875,-4 c 0.109375,-0.0625 0.171875,-0.09375 0.21875,-0.09375 0.140625,0 0.21875,0.203125 0.21875,0.53125 0,0 0,0.0625 -0.015625,0.140625 L 0.921875,-1 v 0.40625 c 0,0.421875 0.171875,0.703125 0.421875,0.703125 0.375,0 1.203125,-0.84375 1.953125,-1.96875 L 2.8125,-0.15625 C 2.296875,1.609375 1.796875,2.328125 1.109375,2.328125 0.75,2.328125 0.484375,2.0625 0.484375,1.71875 0.484375,1.671875 0.5,1.578125 0.515625,1.5 L 0.40625,1.453125 Z m 0,0"
             transform="translate(179.083,110.99)"
             id="path10630" />
        </g>
        <g
           style="fill:#000000;fill-opacity:1"
           id="g10636">
          <path
             style="stroke:none"
             d="M 3,1.9375 C 2.28125,1.046875 2.03125,0.5625 1.765625,-0.328125 1.5625,-1.046875 1.453125,-1.796875 1.453125,-2.65625 1.453125,-3.484375 1.5625,-4.1875 1.75,-4.828125 2,-5.65625 2.265625,-6.125 3,-6.984375 l -0.1875,-0.25 c -1.03125,0.921875 -1.453125,1.46875 -1.828125,2.453125 -0.25,0.671875 -0.390625,1.375 -0.390625,2.125 0,1.078125 0.25,2.078125 0.734375,2.96875 C 1.671875,0.984375 2,1.375 2.8125,2.140625 Z m 0,0"
             transform="translate(184.064,110.99)"
             id="path10634" />
        </g>
        <g
           style="fill:#000000;fill-opacity:1"
           id="g10640">
          <path
             style="stroke:none"
             d="M 2.328125,-7.203125 2.21875,-7.3125 C 1.6875,-7.046875 1.328125,-6.953125 0.625,-6.890625 l -0.046875,0.21875 H 1.0625 c 0.234375,0 0.328125,0.0625 0.328125,0.234375 0,0.078125 0,0.171875 -0.015625,0.234375 L 0.890625,-3.53125 c -0.140625,0.75 -0.296875,1.4375 -0.8125,3.515625 L 0.171875,0.09375 0.84375,-0.078125 1.0625,-1.3125 c 0.09375,-0.484375 0.328125,-0.9375 0.671875,-1.265625 0.6875,1.984375 1,2.671875 1.25,2.671875 0.140625,0 0.375,-0.140625 0.8125,-0.4375 L 4.25,-0.671875 4.171875,-0.859375 3.75,-0.625 c -0.140625,0.09375 -0.21875,0.109375 -0.296875,0.109375 -0.09375,0 -0.15625,-0.0625 -0.25,-0.234375 C 2.84375,-1.390625 2.625,-1.921875 2.25,-3.15625 l 0.125,-0.140625 c 0.609375,-0.59375 1.078125,-0.84375 1.578125,-0.84375 0.078125,0 0.1875,0.015625 0.359375,0.046875 l 0.15625,-0.625 C 4.296875,-4.78125 4.109375,-4.8125 4,-4.8125 c -0.65625,0 -1.484375,0.78125 -2.734375,2.515625 z m 0,0"
             transform="translate(187.381,110.99)"
             id="path10638" />
        </g>
        <g
           style="fill:#000000;fill-opacity:1"
           id="g10644">
          <path
             style="stroke:none"
             d="m 0.515625,2.140625 c 0.6875,-0.640625 0.96875,-0.96875 1.28125,-1.46875 0.609375,-0.96875 0.921875,-2.125 0.921875,-3.3125 0,-0.765625 -0.125,-1.46875 -0.390625,-2.140625 -0.375,-0.96875 -0.78125,-1.515625 -1.8125,-2.453125 l -0.203125,0.25 c 0.734375,0.859375 1,1.328125 1.25,2.15625 0.203125,0.640625 0.296875,1.34375 0.296875,2.171875 0,0.859375 -0.09375,1.609375 -0.296875,2.328125 -0.265625,0.890625 -0.53125,1.375 -1.25,2.265625 z m 0,0"
             transform="translate(191.855,110.99)"
             id="path10642" />
        </g>
      </g>
    </g>
    <g
       ns1:text="$\tilde{u}(k)$"
       transform="matrix(0.71098453,0,0,0.68437555,-4.1329126,-9.8169379)"
       style="fill:#0044aa;fill-opacity:1;stroke-width:1.00351;stroke-miterlimit:3.2;stroke-dasharray:none;stroke-dashoffset:0"
       id="g11520">
      <g
         id="g11518">
        <g
           style="fill:#000000;fill-opacity:1"
           id="g11500">
          <path
             style="stroke:none"
             d="M 3.015625,-6.375 C 2.875,-6.015625 2.71875,-5.875 2.4375,-5.875 2.3125,-5.875 2.203125,-5.921875 1.96875,-6.03125 1.4375,-6.296875 1.3125,-6.328125 1.078125,-6.328125 c -0.546875,0 -0.921875,0.34375 -1.0625,1 H 0.3125 c 0.125,-0.3125 0.28125,-0.453125 0.53125,-0.453125 0.140625,0 0.328125,0.0625 0.703125,0.265625 0.296875,0.125 0.453125,0.1875 0.671875,0.1875 0.578125,0 1.046875,-0.46875 1.09375,-1.046875 z m 0,0"
             transform="translate(180.243,110.856)"
             id="path11498" />
        </g>
        <g
           style="fill:#000000;fill-opacity:1"
           id="g11504">
          <path
             style="stroke:none"
             d="M 3.3125,-0.96875 C 3.25,-0.734375 3.203125,-0.453125 3.203125,-0.3125 c 0,0.25 0.109375,0.40625 0.3125,0.40625 0.25,0 0.609375,-0.21875 1.59375,-0.9375 L 5,-1.03125 4.75,-0.859375 C 4.5,-0.703125 4.25,-0.59375 4.140625,-0.59375 4.0625,-0.59375 4,-0.65625 4,-0.75 4,-0.84375 4.03125,-0.953125 4.0625,-1.09375 v -0.0625 C 4.296875,-2.25 4.609375,-3.5625 4.90625,-4.71875 L 4.828125,-4.8125 4.15625,-4.640625 4.0625,-4.125 c -0.15625,0.78125 -0.40625,1.453125 -0.71875,1.921875 -0.578125,0.90625 -1.359375,1.609375 -1.765625,1.609375 -0.078125,0 -0.125,-0.078125 -0.125,-0.25 0,-0.140625 0.015625,-0.265625 0.078125,-0.515625 L 2.09375,-4.0625 C 2.125,-4.234375 2.140625,-4.359375 2.140625,-4.5 c 0,-0.1875 -0.09375,-0.3125 -0.234375,-0.3125 -0.1875,0 -0.578125,0.21875 -1.3125,0.75 L 0.3125,-3.875 0.390625,-3.671875 0.703125,-3.875 c 0.28125,-0.1875 0.390625,-0.234375 0.484375,-0.234375 0.09375,0 0.171875,0.09375 0.171875,0.203125 0,0.03125 -0.015625,0.140625 -0.03125,0.171875 l -0.625,2.96875 c -0.015625,0.09375 -0.03125,0.328125 -0.03125,0.46875 0,0.234375 0.140625,0.40625 0.34375,0.40625 C 1.640625,0.109375 2.84375,-1 3.6875,-2.375 Z m 0,0"
             transform="translate(178.585,110.99)"
             id="path11502" />
        </g>
        <g
           style="fill:#000000;fill-opacity:1"
           id="g11508">
          <path
             style="stroke:none"
             d="M 3,1.9375 C 2.28125,1.046875 2.03125,0.5625 1.765625,-0.328125 1.5625,-1.046875 1.453125,-1.796875 1.453125,-2.65625 1.453125,-3.484375 1.5625,-4.1875 1.75,-4.828125 2,-5.65625 2.265625,-6.125 3,-6.984375 l -0.1875,-0.25 c -1.03125,0.921875 -1.453125,1.46875 -1.828125,2.453125 -0.25,0.671875 -0.390625,1.375 -0.390625,2.125 0,1.078125 0.25,2.078125 0.734375,2.96875 C 1.671875,0.984375 2,1.375 2.8125,2.140625 Z m 0,0"
             transform="translate(184.124,110.99)"
             id="path11506" />
        </g>
        <g
           style="fill:#000000;fill-opacity:1"
           id="g11512">
          <path
             style="stroke:none"
             d="M 2.328125,-7.203125 2.21875,-7.3125 C 1.6875,-7.046875 1.328125,-6.953125 0.625,-6.890625 l -0.046875,0.21875 H 1.0625 c 0.234375,0 0.328125,0.0625 0.328125,0.234375 0,0.078125 0,0.171875 -0.015625,0.234375 L 0.890625,-3.53125 c -0.140625,0.75 -0.296875,1.4375 -0.8125,3.515625 L 0.171875,0.09375 0.84375,-0.078125 1.0625,-1.3125 c 0.09375,-0.484375 0.328125,-0.9375 0.671875,-1.265625 0.6875,1.984375 1,2.671875 1.25,2.671875 0.140625,0 0.375,-0.140625 0.8125,-0.4375 L 4.25,-0.671875 4.171875,-0.859375 3.75,-0.625 c -0.140625,0.09375 -0.21875,0.109375 -0.296875,0.109375 -0.09375,0 -0.15625,-0.0625 -0.25,-0.234375 C 2.84375,-1.390625 2.625,-1.921875 2.25,-3.15625 l 0.125,-0.140625 c 0.609375,-0.59375 1.078125,-0.84375 1.578125,-0.84375 0.078125,0 0.1875,0.015625 0.359375,0.046875 l 0.15625,-0.625 C 4.296875,-4.78125 4.109375,-4.8125 4,-4.8125 c -0.65625,0 -1.484375,0.78125 -2.734375,2.515625 z m 0,0"
             transform="translate(187.441,110.99)"
             id="path11510" />
        </g>
        <g
           style="fill:#000000;fill-opacity:1"
           id="g11516">
          <path
             style="stroke:none"
             d="m 0.515625,2.140625 c 0.6875,-0.640625 0.96875,-0.96875 1.28125,-1.46875 0.609375,-0.96875 0.921875,-2.125 0.921875,-3.3125 0,-0.765625 -0.125,-1.46875 -0.390625,-2.140625 -0.375,-0.96875 -0.78125,-1.515625 -1.8125,-2.453125 l -0.203125,0.25 c 0.734375,0.859375 1,1.328125 1.25,2.15625 0.203125,0.640625 0.296875,1.34375 0.296875,2.171875 0,0.859375 -0.09375,1.609375 -0.296875,2.328125 -0.265625,0.890625 -0.53125,1.375 -1.25,2.265625 z m 0,0"
             transform="translate(191.914,110.99)"
             id="path11514" />
        </g>
      </g>
    </g>
    <g
       ns1:text="$C_\theta$"
       transform="matrix(0.90663492,0,0,0.87270362,-81.878833,-24.039993)"
       style="fill:#c83737;fill-opacity:1;stroke-width:0.786952;stroke-miterlimit:3.2;stroke-dasharray:none;stroke-dashoffset:0"
       id="g11720">
      <g
         id="surface1"
         style="fill:#c83737;fill-opacity:1">
        <g
           style="fill:#c83737;fill-opacity:1"
           id="g11713">
          <path
             style="stroke:none;fill:#c83737;fill-opacity:1"
             d="M 5.953125,-5.171875 H 6.21875 c 0.046875,-0.5625 0.125,-1 0.265625,-1.453125 -0.75,-0.296875 -1.328125,-0.40625 -1.9375,-0.40625 -0.8125,0 -1.640625,0.25 -2.328125,0.71875 -1.171875,0.78125 -1.765625,1.953125 -1.765625,3.484375 0,1.9375 1.0625,3 2.96875,3 0.953125,0 1.65625,-0.21875 2.5625,-0.84375 l 0.09375,-0.359375 -0.09375,-0.0625 c -0.9375,0.5625 -1.453125,0.75 -2.234375,0.75 -1.5625,0 -2.421875,-0.96875 -2.421875,-2.734375 0,-1.109375 0.34375,-2.09375 0.9375,-2.71875 0.46875,-0.46875 1.109375,-0.71875 1.90625,-0.71875 0.703125,0 1.21875,0.140625 1.78125,0.5 z m 0,0"
             transform="translate(178.585,110.99)"
             id="path11711" />
        </g>
        <g
           style="fill:#c83737;fill-opacity:1"
           id="g11717">
          <path
             style="stroke:none;fill:#c83737;fill-opacity:1"
             d="m 4,-3.515625 c 0,-0.796875 -0.234375,-1.375 -1.125,-1.375 -1.8125,0 -2.375,2.015625 -2.375,3.5 0,0.828125 0.25,1.5 1.1875,1.5 1.65625,0 2.3125,-2.3125 2.3125,-3.625 z m -0.515625,-0.09375 c 0,0.3125 -0.0625,0.640625 -0.109375,0.953125 H 1.171875 C 1.34375,-3.375 1.84375,-4.703125 2.75,-4.703125 c 0.609375,0 0.734375,0.625 0.734375,1.09375 z M 3.34375,-2.4375 C 3.171875,-1.65625 2.796875,-0.09375 1.796875,-0.09375 1.09375,-0.09375 1.03125,-0.875 1.03125,-1.421875 1.03125,-1.75 1.09375,-2.09375 1.140625,-2.4375 Z m 0,0"
             transform="translate(185.23,112.485)"
             id="path11715" />
        </g>
      </g>
    </g>
    <g
       ns1:text="$\cdots$"
       transform="matrix(0.53114192,0,0,0.68437555,22.500182,-3.639235)"
       style="fill:#0044aa;fill-opacity:1;stroke-width:1.00351;stroke-miterlimit:3.2;stroke-dasharray:none;stroke-dashoffset:0"
       id="g11908">
      <g
         id="g11906">
        <g
           style="fill:#000000;fill-opacity:1"
           id="g11896">
          <path
             style="stroke:none"
             d="m 1.828125,-2.703125 c 0,-0.296875 -0.28125,-0.578125 -0.59375,-0.578125 -0.296875,0 -0.5625,0.28125 -0.5625,0.578125 0,0.296875 0.25,0.578125 0.5625,0.578125 0.328125,0 0.59375,-0.28125 0.59375,-0.578125 z m 0,0"
             transform="translate(178.585,110.99)"
             id="path11894" />
        </g>
        <g
           style="fill:#000000;fill-opacity:1"
           id="g11900">
          <path
             style="stroke:none"
             d="m 1.828125,-2.703125 c 0,-0.296875 -0.28125,-0.578125 -0.59375,-0.578125 -0.296875,0 -0.5625,0.28125 -0.5625,0.578125 0,0.296875 0.25,0.578125 0.5625,0.578125 0.328125,0 0.59375,-0.28125 0.59375,-0.578125 z m 0,0"
             transform="translate(182.72944,110.99)"
             id="path11898" />
        </g>
        <g
           style="fill:#000000;fill-opacity:1"
           id="g11904">
          <path
             style="stroke:none"
             d="m 1.828125,-2.703125 c 0,-0.296875 -0.28125,-0.578125 -0.59375,-0.578125 -0.296875,0 -0.5625,0.28125 -0.5625,0.578125 0,0.296875 0.25,0.578125 0.5625,0.578125 0.328125,0 0.59375,-0.28125 0.59375,-0.578125 z m 0,0"
             transform="translate(186.88385,110.99)"
             id="path11902" />
        </g>
      </g>
    </g>
    <path
       style="display:inline;fill:none;fill-rule:evenodd;stroke:#0044aa;stroke-width:0.735068;stroke-linecap:butt;stroke-linejoin:miter;stroke-miterlimit:3.2;stroke-dasharray:2.2052, 0.735068;stroke-dashoffset:0;stroke-opacity:1"
       d="M 24.586878,66.810323 V 40.4931 H 184.06354 v 29.602492"
       id="path7863"
       sodipodi:nodetypes="cccc" />
    <path
       style="fill:#0044aa;fill-opacity:1;stroke:none;stroke-width:0.264583px;stroke-linecap:butt;stroke-linejoin:miter;stroke-opacity:1"
       d="m 24.56354,69.147151 2,-3.20001 h -4 z"
       id="path12120"
       sodipodi:nodetypes="cccc"
       inkscape:transform-center-x="0.0896165"
       inkscape:transform-center-y="-1.6229397" />
    <rect
       style="display:inline;fill:#ffffff;stroke:#0044aa;stroke-width:0.7;stroke-linecap:butt;stroke-linejoin:miter;stroke-miterlimit:3.2;stroke-dasharray:2.1, 0.7;stroke-dashoffset:0;stroke-opacity:1"
       id="rect7865"
       width="44.000008"
       height="20.000004"
       x="85.063538"
       y="30.130617" />
    <g
       ns1:text="$\tilde{u}(k)$"
       transform="matrix(0.71098453,0,0,0.68437555,-21.59542,-9.8169379)"
       style="fill:#0044aa;fill-opacity:1;stroke-width:1.00351;stroke-miterlimit:3.2;stroke-dasharray:none;stroke-dashoffset:0"
       id="g12151">
      <g
         id="g12149"
         style="fill:#0044aa;fill-opacity:1">
        <g
           style="fill:#0044aa;fill-opacity:1"
           id="g12131">
          <path
             style="stroke:none;fill:#0044aa;fill-opacity:1"
             d="M 3.015625,-6.375 C 2.875,-6.015625 2.71875,-5.875 2.4375,-5.875 2.3125,-5.875 2.203125,-5.921875 1.96875,-6.03125 1.4375,-6.296875 1.3125,-6.328125 1.078125,-6.328125 c -0.546875,0 -0.921875,0.34375 -1.0625,1 H 0.3125 c 0.125,-0.3125 0.28125,-0.453125 0.53125,-0.453125 0.140625,0 0.328125,0.0625 0.703125,0.265625 0.296875,0.125 0.453125,0.1875 0.671875,0.1875 0.578125,0 1.046875,-0.46875 1.09375,-1.046875 z m 0,0"
             transform="translate(180.243,110.856)"
             id="path12129" />
        </g>
        <g
           style="fill:#0044aa;fill-opacity:1"
           id="g12135">
          <path
             style="stroke:none;fill:#0044aa;fill-opacity:1"
             d="M 3.3125,-0.96875 C 3.25,-0.734375 3.203125,-0.453125 3.203125,-0.3125 c 0,0.25 0.109375,0.40625 0.3125,0.40625 0.25,0 0.609375,-0.21875 1.59375,-0.9375 L 5,-1.03125 4.75,-0.859375 C 4.5,-0.703125 4.25,-0.59375 4.140625,-0.59375 4.0625,-0.59375 4,-0.65625 4,-0.75 4,-0.84375 4.03125,-0.953125 4.0625,-1.09375 v -0.0625 C 4.296875,-2.25 4.609375,-3.5625 4.90625,-4.71875 L 4.828125,-4.8125 4.15625,-4.640625 4.0625,-4.125 c -0.15625,0.78125 -0.40625,1.453125 -0.71875,1.921875 -0.578125,0.90625 -1.359375,1.609375 -1.765625,1.609375 -0.078125,0 -0.125,-0.078125 -0.125,-0.25 0,-0.140625 0.015625,-0.265625 0.078125,-0.515625 L 2.09375,-4.0625 C 2.125,-4.234375 2.140625,-4.359375 2.140625,-4.5 c 0,-0.1875 -0.09375,-0.3125 -0.234375,-0.3125 -0.1875,0 -0.578125,0.21875 -1.3125,0.75 L 0.3125,-3.875 0.390625,-3.671875 0.703125,-3.875 c 0.28125,-0.1875 0.390625,-0.234375 0.484375,-0.234375 0.09375,0 0.171875,0.09375 0.171875,0.203125 0,0.03125 -0.015625,0.140625 -0.03125,0.171875 l -0.625,2.96875 c -0.015625,0.09375 -0.03125,0.328125 -0.03125,0.46875 0,0.234375 0.140625,0.40625 0.34375,0.40625 C 1.640625,0.109375 2.84375,-1 3.6875,-2.375 Z m 0,0"
             transform="translate(178.585,110.99)"
             id="path12133" />
        </g>
        <g
           style="fill:#0044aa;fill-opacity:1"
           id="g12139">
          <path
             style="stroke:none;fill:#0044aa;fill-opacity:1"
             d="M 3,1.9375 C 2.28125,1.046875 2.03125,0.5625 1.765625,-0.328125 1.5625,-1.046875 1.453125,-1.796875 1.453125,-2.65625 1.453125,-3.484375 1.5625,-4.1875 1.75,-4.828125 2,-5.65625 2.265625,-6.125 3,-6.984375 l -0.1875,-0.25 c -1.03125,0.921875 -1.453125,1.46875 -1.828125,2.453125 -0.25,0.671875 -0.390625,1.375 -0.390625,2.125 0,1.078125 0.25,2.078125 0.734375,2.96875 C 1.671875,0.984375 2,1.375 2.8125,2.140625 Z m 0,0"
             transform="translate(184.124,110.99)"
             id="path12137" />
        </g>
        <g
           style="fill:#0044aa;fill-opacity:1"
           id="g12143">
          <path
             style="stroke:none;fill:#0044aa;fill-opacity:1"
             d="M 2.328125,-7.203125 2.21875,-7.3125 C 1.6875,-7.046875 1.328125,-6.953125 0.625,-6.890625 l -0.046875,0.21875 H 1.0625 c 0.234375,0 0.328125,0.0625 0.328125,0.234375 0,0.078125 0,0.171875 -0.015625,0.234375 L 0.890625,-3.53125 c -0.140625,0.75 -0.296875,1.4375 -0.8125,3.515625 L 0.171875,0.09375 0.84375,-0.078125 1.0625,-1.3125 c 0.09375,-0.484375 0.328125,-0.9375 0.671875,-1.265625 0.6875,1.984375 1,2.671875 1.25,2.671875 0.140625,0 0.375,-0.140625 0.8125,-0.4375 L 4.25,-0.671875 4.171875,-0.859375 3.75,-0.625 c -0.140625,0.09375 -0.21875,0.109375 -0.296875,0.109375 -0.09375,0 -0.15625,-0.0625 -0.25,-0.234375 C 2.84375,-1.390625 2.625,-1.921875 2.25,-3.15625 l 0.125,-0.140625 c 0.609375,-0.59375 1.078125,-0.84375 1.578125,-0.84375 0.078125,0 0.1875,0.015625 0.359375,0.046875 l 0.15625,-0.625 C 4.296875,-4.78125 4.109375,-4.8125 4,-4.8125 c -0.65625,0 -1.484375,0.78125 -2.734375,2.515625 z m 0,0"
             transform="translate(187.441,110.99)"
             id="path12141" />
        </g>
        <g
           style="fill:#0044aa;fill-opacity:1"
           id="g12147">
          <path
             style="stroke:none;fill:#0044aa;fill-opacity:1"
             d="m 0.515625,2.140625 c 0.6875,-0.640625 0.96875,-0.96875 1.28125,-1.46875 0.609375,-0.96875 0.921875,-2.125 0.921875,-3.3125 0,-0.765625 -0.125,-1.46875 -0.390625,-2.140625 -0.375,-0.96875 -0.78125,-1.515625 -1.8125,-2.453125 l -0.203125,0.25 c 0.734375,0.859375 1,1.328125 1.25,2.15625 0.203125,0.640625 0.296875,1.34375 0.296875,2.171875 0,0.859375 -0.09375,1.609375 -0.296875,2.328125 -0.265625,0.890625 -0.53125,1.375 -1.25,2.265625 z m 0,0"
             transform="translate(191.914,110.99)"
             id="path12145" />
        </g>
      </g>
    </g>
  </g>
  <g
     inkscape:groupmode="layer"
     id="layer3"
     inkscape:label="mr"
     style="display:inline">
    <path
       style="display:inline;fill:#0044aa;fill-opacity:1;stroke:none;stroke-width:0.264583px;stroke-linecap:butt;stroke-linejoin:miter;stroke-opacity:1"
       d="m 129.06354,40.480621 3.20001,-2 v 4 z"
       id="path8141"
       sodipodi:nodetypes="cccc"
       inkscape:transform-center-x="-1.6229395"
       inkscape:transform-center-y="0.089616257" />
    <g
       id="g12126"
       transform="matrix(0.50003,0,0,0.50003,92.026248,35.27284)"
       style="fill:#0044aa;fill-opacity:1">
      <path
         id="path6784"
         style="display:inline;fill:#0044aa;fill-opacity:1;stroke:none;stroke-width:0.423333;stroke-linecap:round;stroke-linejoin:bevel;stroke-miterlimit:4;stroke-dasharray:none;stroke-dashoffset:0;paint-order:fill markers stroke"
         d="m 181.56369,70.480621 a 2.5,2.5 0 0 0 2.50011,2.5001 2.5,2.5 0 0 0 2.49959,-2.5001 z" />
      <path
         id="path7867"
         style="display:inline;fill:#0044aa;fill-opacity:1;stroke:none;stroke-width:0.423333;stroke-linecap:round;stroke-linejoin:bevel;stroke-miterlimit:4;stroke-dasharray:none;stroke-dashoffset:0;paint-order:fill markers stroke"
         d="m 181.56369,70.480621 a 2.5,2.5 0 0 1 2.50011,-2.5001 2.5,2.5 0 0 1 2.49959,2.5001 z" />
    </g>
    <g
       ns1:text="$M^{-1}$"
       transform="matrix(0.96055789,0,0,0.96055789,-72.447322,-62.977165)"
       style="display:inline;fill:#0044aa;fill-opacity:1;stroke-width:0.786952;stroke-miterlimit:3.2;stroke-dasharray:none;stroke-dashoffset:0"
       id="g10922">
      <g
         id="g10920"
         style="fill:#0044aa;fill-opacity:1">
        <g
           style="fill:#0044aa;fill-opacity:1"
           id="g10910">
          <path
             style="fill:#0044aa;fill-opacity:1;stroke:none"
             d="M 9.34375,-6.625 9.375,-6.890625 H 9.09375 C 8.8125,-6.875 8.65625,-6.875 8.53125,-6.875 H 8.296875 l -0.59375,-0.015625 -0.15625,0.296875 c -0.265625,0.515625 -0.453125,0.859375 -0.6875,1.25 l -2.453125,4.203125 -1.5,-5.75 H 2.625 C 2.359375,-6.875 2.203125,-6.875 2.078125,-6.875 h -0.25 L 1.25,-6.890625 1.21875,-6.625 l 0.25,0.03125 C 2,-6.5625 2.171875,-6.453125 2.171875,-6.203125 c 0,0.0625 -0.015625,0.125 -0.03125,0.203125 l -1.4375,5.078125 c -0.171875,0.515625 -0.3125,0.640625 -0.859375,0.6875 L -0.1875,0.03125 0.203125,0.015625 C 0.53125,0.015625 0.78125,0 0.921875,0 c 0.140625,0 0.40625,0.015625 0.75,0.015625 L 2.03125,0.03125 2.046875,-0.25 1.671875,-0.28125 C 1.359375,-0.296875 1.1875,-0.40625 1.1875,-0.546875 c 0,-0.09375 0.015625,-0.234375 0.0625,-0.40625 l 1.25,-4.625 1.484375,5.75 h 0.21875 l 0.578125,-1.03125 c 0.765625,-1.40625 1.703125,-3.015625 2.375,-4.125 l 0.515625,-0.875 -0.359375,5.1875 C 7.265625,-0.390625 7.140625,-0.3125 6.640625,-0.28125 L 6.328125,-0.25 6.296875,0.03125 6.765625,0.015625 C 7.1875,0.015625 7.484375,0 7.640625,0 7.796875,0 8.09375,0.015625 8.5,0.015625 L 8.96875,0.03125 8.984375,-0.25 8.625,-0.28125 C 8.265625,-0.3125 8.078125,-0.421875 8.078125,-0.625 L 8.09375,-1 8.5,-6.296875 c 0.015625,-0.1875 0.171875,-0.28125 0.46875,-0.296875 z m 0,0"
             transform="translate(178.585,110.99)"
             id="path10908" />
        </g>
        <g
           style="fill:#0044aa;fill-opacity:1"
           id="g10914">
          <path
             style="fill:#0044aa;fill-opacity:1;stroke:none"
             d="M 4.203125,-1.671875 V -2.09375 h -3.75 v 0.421875 z m 0,0"
             transform="translate(187.989,107.374)"
             id="path10912" />
        </g>
        <g
           style="fill:#0044aa;fill-opacity:1"
           id="g10918">
          <path
             style="fill:#0044aa;fill-opacity:1;stroke:none"
             d="m 0.46875,-3.875 h 0.0625 L 1.4375,-4.265625 c 0,-0.015625 0.015625,-0.015625 0.015625,-0.015625 0.046875,0 0.0625,0.0625 0.0625,0.234375 v 3.375 c 0,0.359375 -0.078125,0.4375 -0.453125,0.46875 L 0.671875,-0.1875 V 0.015625 C 1.734375,0 1.734375,0 1.8125,0 1.90625,0 2.0625,0 2.296875,0 2.390625,0.015625 2.625,0.015625 2.90625,0.015625 V -0.1875 L 2.546875,-0.203125 C 2.171875,-0.234375 2.09375,-0.3125 2.09375,-0.671875 v -4.125 L 2,-4.84375 c -0.453125,0.25 -0.953125,0.453125 -1.578125,0.671875 z m 0,0"
             transform="translate(192.655,107.374)"
             id="path10916" />
        </g>
      </g>
    </g>
  </g>
  <g
     inkscape:label="real"
     inkscape:groupmode="layer"
     id="layer1"
     style="display:inline">
    <path
       style="fill:#0044aa;fill-opacity:1;fill-rule:evenodd;stroke:#0044aa;stroke-width:0.740493;stroke-linecap:butt;stroke-linejoin:miter;stroke-miterlimit:3.2;stroke-dasharray:2.22147, 0.740493;stroke-dashoffset:0;stroke-opacity:1"
       d="m 103.06354,70.480621 h 12.2994"
       id="path2081"
       inkscape:connector-type="polyline"
       inkscape:connector-curvature="0"
       sodipodi:nodetypes="cc" />
    <path
       style="fill:none;fill-rule:evenodd;stroke:#000000;stroke-width:0.757761;stroke-linecap:butt;stroke-linejoin:miter;stroke-miterlimit:3.2;stroke-dasharray:none;stroke-opacity:1"
       d="m 124.53843,70.480621 h 12.87104"
       id="path1786"
       inkscape:connector-type="polyline"
       inkscape:connector-curvature="0"
       sodipodi:nodetypes="cc" />
    <rect
       style="display:inline;fill:#ffffff;stroke:#000000;stroke-width:0.7;stroke-linejoin:miter;stroke-miterlimit:3.2;stroke-dasharray:none"
       id="rect1322"
       width="35.299995"
       height="19.300001"
       x="139.01543"
       y="60.561333" />
    <path
       style="fill:#000000;stroke:#000000;stroke-width:0.264583px;stroke-linecap:butt;stroke-linejoin:miter;stroke-opacity:1"
       d="m 138.15986,70.480621 -3.20001,-2 v 4 z"
       id="path6745"
       sodipodi:nodetypes="cccc"
       inkscape:transform-center-x="1.6229395"
       inkscape:transform-center-y="0.089616257" />
    <path
       style="fill:#000000;stroke:none;stroke-width:0.264583px;stroke-linecap:butt;stroke-linejoin:miter;stroke-opacity:1"
       d="m 196.83167,70.397152 -3.20001,-2 v 4 z"
       id="path6747"
       sodipodi:nodetypes="cccc"
       inkscape:transform-center-x="1.6229395"
       inkscape:transform-center-y="0.089616257" />
    <path
       style="fill:none;fill-rule:evenodd;stroke:#000000;stroke-width:0.8;stroke-linecap:butt;stroke-linejoin:miter;stroke-miterlimit:3.2;stroke-dasharray:none;stroke-dashoffset:0;stroke-opacity:1"
       d="m 174.40947,70.480621 h 20"
       id="path1784"
       inkscape:connector-curvature="0"
       inkscape:connector-type="polyline"
       sodipodi:nodetypes="cc" />
    <g
       ns1:text="$P$"
       transform="matrix(0.79999999,0,0,0.79999999,11.39118,-15.836379)"
       id="g11309"
       style="display:inline">
      <g
         id="g11307">
        <g
           style="fill:#000000;fill-opacity:1"
           id="g11305">
          <path
             style="stroke:none"
             d="m 1.046875,-6.625 0.546875,0.03125 c 0.234375,0 0.34375,0.078125 0.34375,0.265625 0,0.140625 -0.03125,0.453125 -0.078125,0.75 L 1.109375,-1.25 C 0.953125,-0.34375 0.9375,-0.3125 0.53125,-0.28125 L 0.125,-0.25 0.09375,0.03125 0.515625,0.015625 C 0.921875,0.015625 1.21875,0 1.40625,0 1.578125,0 1.859375,0.015625 2.265625,0.015625 L 2.796875,0.03125 2.828125,-0.25 2.171875,-0.28125 C 1.90625,-0.296875 1.8125,-0.375 1.8125,-0.578125 c 0,-0.09375 0.015625,-0.15625 0.046875,-0.34375 l 0.8125,-4.859375 c 0,-0.015625 0.046875,-0.203125 0.09375,-0.40625 0,-0.046875 0.03125,-0.140625 0.0625,-0.265625 0.359375,-0.0625 0.515625,-0.09375 0.703125,-0.09375 1.03125,0 1.515625,0.453125 1.515625,1.375 0,1.078125 -0.71875,1.953125 -1.59375,1.953125 -0.21875,0 -0.421875,-0.046875 -0.796875,-0.1875 l 0.03125,0.3125 C 3.046875,-2.921875 3.25,-2.875 3.53125,-2.875 c 1.296875,0 2.390625,-1.15625 2.390625,-2.515625 0,-1.015625 -0.625,-1.53125 -1.8125,-1.5 l -1.375,0.015625 -1.125,-0.015625 h -0.53125 z m 0,0"
             transform="translate(178.585,110.99)"
             id="path11303" />
        </g>
      </g>
    </g>
  </g>
</svg>
