<?xml version="1.0" encoding="UTF-8" standalone="no"?>
<svg
   xmlns:ns1="http://wanglongqi.github.io/WriteTeX"
   xmlns:dc="http://purl.org/dc/elements/1.1/"
   xmlns:cc="http://creativecommons.org/ns#"
   xmlns:rdf="http://www.w3.org/1999/02/22-rdf-syntax-ns#"
   xmlns:svg="http://www.w3.org/2000/svg"
   xmlns="http://www.w3.org/2000/svg"
   xmlns:sodipodi="http://sodipodi.sourceforge.net/DTD/sodipodi-0.dtd"
   xmlns:inkscape="http://www.inkscape.org/namespaces/inkscape"
   inkscape:version="1.0.2 (e86c870879, 2021-01-15, custom)"
   sodipodi:docname="diagrama_MR_planta.svg"
   id="svg8"
   version="1.1"
   viewBox="0 0 210 297"
   height="297mm"
   width="210mm">
  <defs
     id="defs2">
    <marker
       style="overflow:visible;"
       id="marker5676"
       refX="0.0"
       refY="0.0"
       orient="auto"
       inkscape:stockid="Arrow2Lend"
       inkscape:isstock="true">
      <path
         transform="scale(1.1) rotate(180) translate(1,0)"
         d="M 8.7185878,4.0337352 L -2.2072895,0.016013256 L 8.7185884,-4.0017078 C 6.9730900,-1.6296469 6.9831476,1.6157441 8.7185878,4.0337352 z "
         style="fill-rule:evenodd;stroke-width:0.625;stroke-linejoin:round;stroke:#000000;stroke-opacity:1;fill:#000000;fill-opacity:1"
         id="path5674" />
    </marker>
    <marker
       style="overflow:visible"
       id="TriangleInL"
       refX="0.0"
       refY="0.0"
       orient="auto"
       inkscape:stockid="TriangleInL"
       inkscape:isstock="true">
      <path
         transform="scale(-0.8)"
         style="fill-rule:evenodd;stroke:#000000;stroke-width:1pt;stroke-opacity:1;fill:#000000;fill-opacity:1"
         d="M 5.77,0.0 L -2.88,5.0 L -2.88,-5.0 L 5.77,0.0 z "
         id="path1501" />
    </marker>
    <marker
       style="overflow:visible"
       id="marker5212"
       refX="0.0"
       refY="0.0"
       orient="auto"
       inkscape:stockid="TriangleOutL"
       inkscape:isstock="true">
      <path
         transform="scale(0.8)"
         style="fill-rule:evenodd;stroke:#000000;stroke-width:1pt;stroke-opacity:1;fill:#000000;fill-opacity:1"
         d="M 5.77,0.0 L -2.88,5.0 L -2.88,-5.0 L 5.77,0.0 z "
         id="path5210" />
    </marker>
    <marker
       style="overflow:visible"
       id="marker5202"
       refX="0.0"
       refY="0.0"
       orient="auto"
       inkscape:stockid="TriangleOutL"
       inkscape:isstock="true">
      <path
         transform="scale(0.8)"
         style="fill-rule:evenodd;stroke:#000000;stroke-width:1pt;stroke-opacity:1;fill:#000000;fill-opacity:1"
         d="M 5.77,0.0 L -2.88,5.0 L -2.88,-5.0 L 5.77,0.0 z "
         id="path5200" />
    </marker>
    <marker
       style="overflow:visible"
       id="marker5192"
       refX="0.0"
       refY="0.0"
       orient="auto"
       inkscape:stockid="TriangleOutL"
       inkscape:isstock="true">
      <path
         transform="scale(0.8)"
         style="fill-rule:evenodd;stroke:#000000;stroke-width:1pt;stroke-opacity:1;fill:#000000;fill-opacity:1"
         d="M 5.77,0.0 L -2.88,5.0 L -2.88,-5.0 L 5.77,0.0 z "
         id="path5190" />
    </marker>
    <marker
       style="overflow:visible"
       id="marker5116"
       refX="0.0"
       refY="0.0"
       orient="auto"
       inkscape:stockid="TriangleOutL"
       inkscape:isstock="true">
      <path
         transform="scale(0.8)"
         style="fill-rule:evenodd;stroke:#000000;stroke-width:1pt;stroke-opacity:1;fill:#000000;fill-opacity:1"
         d="M 5.77,0.0 L -2.88,5.0 L -2.88,-5.0 L 5.77,0.0 z "
         id="path5114" />
    </marker>
    <marker
       style="overflow:visible"
       id="Arrow2Lstart"
       refX="0.0"
       refY="0.0"
       orient="auto"
       inkscape:stockid="Arrow2Lstart"
       inkscape:isstock="true">
      <path
         transform="scale(1.1) translate(1,0)"
         d="M 8.7185878,4.0337352 L -2.2072895,0.016013256 L 8.7185884,-4.0017078 C 6.9730900,-1.6296469 6.9831476,1.6157441 8.7185878,4.0337352 z "
         style="fill-rule:evenodd;stroke-width:0.625;stroke-linejoin:round;stroke:#000000;stroke-opacity:1;fill:#000000;fill-opacity:1"
         id="path1386" />
    </marker>
    <marker
       style="overflow:visible;"
       id="marker3912"
       refX="0.0"
       refY="0.0"
       orient="auto"
       inkscape:stockid="Arrow2Lend"
       inkscape:isstock="true">
      <path
         transform="scale(1.1) rotate(180) translate(1,0)"
         d="M 8.7185878,4.0337352 L -2.2072895,0.016013256 L 8.7185884,-4.0017078 C 6.9730900,-1.6296469 6.9831476,1.6157441 8.7185878,4.0337352 z "
         style="fill-rule:evenodd;stroke-width:0.625;stroke-linejoin:round;stroke:#000000;stroke-opacity:1;fill:#000000;fill-opacity:1"
         id="path3910" />
    </marker>
    <marker
       style="overflow:visible;"
       id="marker1834"
       refX="0.0"
       refY="0.0"
       orient="auto"
       inkscape:stockid="Arrow2Lend"
       inkscape:isstock="true">
      <path
         transform="scale(1.1) rotate(180) translate(1,0)"
         d="M 8.7185878,4.0337352 L -2.2072895,0.016013256 L 8.7185884,-4.0017078 C 6.9730900,-1.6296469 6.9831476,1.6157441 8.7185878,4.0337352 z "
         style="fill-rule:evenodd;stroke-width:0.625;stroke-linejoin:round;stroke:#000000;stroke-opacity:1;fill:#000000;fill-opacity:1"
         id="path1832" />
    </marker>
    <marker
       style="overflow:visible;"
       id="marker1690"
       refX="0.0"
       refY="0.0"
       orient="auto"
       inkscape:stockid="Arrow2Lend"
       inkscape:isstock="true">
      <path
         transform="scale(1.1) rotate(180) translate(1,0)"
         d="M 8.7185878,4.0337352 L -2.2072895,0.016013256 L 8.7185884,-4.0017078 C 6.9730900,-1.6296469 6.9831476,1.6157441 8.7185878,4.0337352 z "
         style="fill-rule:evenodd;stroke-width:0.625;stroke-linejoin:round;stroke:#000000;stroke-opacity:1;fill:#000000;fill-opacity:1"
         id="path1688" />
    </marker>
    <marker
       style="overflow:visible;"
       id="marker1680"
       refX="0.0"
       refY="0.0"
       orient="auto"
       inkscape:stockid="Arrow2Lend"
       inkscape:isstock="true">
      <path
         transform="scale(1.1) rotate(180) translate(1,0)"
         d="M 8.7185878,4.0337352 L -2.2072895,0.016013256 L 8.7185884,-4.0017078 C 6.9730900,-1.6296469 6.9831476,1.6157441 8.7185878,4.0337352 z "
         style="fill-rule:evenodd;stroke-width:0.625;stroke-linejoin:round;stroke:#000000;stroke-opacity:1;fill:#000000;fill-opacity:1"
         id="path1678" />
    </marker>
    <marker
       style="overflow:visible;"
       id="Arrow2Lend"
       refX="0.0"
       refY="0.0"
       orient="auto"
       inkscape:stockid="Arrow2Lend"
       inkscape:isstock="true">
      <path
         transform="scale(1.1) rotate(180) translate(1,0)"
         d="M 8.7185878,4.0337352 L -2.2072895,0.016013256 L 8.7185884,-4.0017078 C 6.9730900,-1.6296469 6.9831476,1.6157441 8.7185878,4.0337352 z "
         style="fill-rule:evenodd;stroke-width:0.625;stroke-linejoin:round;stroke:#000000;stroke-opacity:1;fill:#000000;fill-opacity:1"
         id="path1389" />
    </marker>
    <symbol
       id="LogicalAnd">
      <title
         id="title6402">Logical And</title>
      <desc
         id="desc6404">Summing junction. Shows when multiple branches converge.</desc>
      <circle
         cx="19.84375"
         cy="19.84375"
         r="5.2916665"
         style="stroke-width:2"
         id="circle6406" />
      <path
         d="m 16.139583,16.139583 7.408334,7.408334"
         style="stroke-width:2"
         id="path6408" />
      <path
         d="m 16.139583,23.547917 7.408334,-7.408334"
         style="stroke-width:2"
         id="path6410" />
    </symbol>
  </defs>
  <sodipodi:namedview
     id="base"
     pagecolor="#ffffff"
     bordercolor="#666666"
     borderopacity="1.0"
     inkscape:pageopacity="0.0"
     inkscape:pageshadow="2"
     inkscape:zoom="2.3087764"
     inkscape:cx="439.02093"
     inkscape:cy="245.00995"
     inkscape:document-units="mm"
     inkscape:current-layer="layer3"
     inkscape:document-rotation="0"
     showgrid="false"
     inkscape:window-width="1491"
     inkscape:window-height="1056"
     inkscape:window-x="0"
     inkscape:window-y="18"
     inkscape:window-maximized="0"
     inkscape:snap-intersection-paths="true"
     inkscape:object-paths="false"
     inkscape:snap-smooth-nodes="true"
     inkscape:snap-midpoints="true"
     inkscape:snap-object-midpoints="false"
     inkscape:snap-nodes="true"
     inkscape:object-nodes="true"
     inkscape:snap-others="true"
     showguides="false"
     inkscape:guide-bbox="true"
     inkscape:snap-grids="true"
     inkscape:snap-to-guides="true"
     inkscape:snap-global="true"
     inkscape:snap-bbox="true"
     inkscape:bbox-paths="false"
     inkscape:bbox-nodes="false"
     inkscape:snap-bbox-edge-midpoints="true"
     inkscape:snap-bbox-midpoints="true">
    <inkscape:grid
       type="xygrid"
       id="grid6019"
       units="mm"
       spacingx="1"
       spacingy="1" />
  </sodipodi:namedview>
  <metadata
     id="metadata5">
    <rdf:RDF>
      <cc:Work
         rdf:about="">
        <dc:format>image/svg+xml</dc:format>
        <dc:type
           rdf:resource="http://purl.org/dc/dcmitype/StillImage" />
        <dc:title></dc:title>
      </cc:Work>
    </rdf:RDF>
  </metadata>
  <g
     inkscape:groupmode="layer"
     id="layer2"
     inkscape:label="virtual"
     style="display:inline">
    <g
       id="g6699"
       transform="rotate(45,128.28633,52.101601)"
       style="stroke:#000080;stroke-width:0.7;stroke-miterlimit:3.2;stroke-dasharray:2.1, 0.7;stroke-dashoffset:0" />
  </g>
  <g
     inkscape:groupmode="layer"
     id="layer3"
     inkscape:label="mr"
     style="display:inline">
    <path
       style="display:inline;fill:none;fill-rule:evenodd;stroke:#0044aa;stroke-width:0.435276;stroke-linecap:butt;stroke-linejoin:miter;stroke-miterlimit:3.2;stroke-dasharray:1.30583, 0.435276;stroke-dashoffset:0;stroke-opacity:1"
       d="m 69.075551,50.869375 h 15.121551 l 73.201658,0.229522 v 18.529499"
       id="path7863"
       sodipodi:nodetypes="cccc" />
    <rect
       style="display:inline;fill:#ffffff;stroke:#0044aa;stroke-width:0.432785;stroke-linecap:butt;stroke-linejoin:miter;stroke-miterlimit:3.2;stroke-dasharray:1.29835, 0.432785;stroke-dashoffset:0;stroke-opacity:1"
       id="rect7865"
       width="27.203619"
       height="12.365282"
       x="104.93542"
       y="44.681442" />
    <path
       style="display:inline;fill:#0044aa;fill-opacity:1;stroke:none;stroke-width:0.163582px;stroke-linecap:butt;stroke-linejoin:miter;stroke-opacity:1"
       d="m 104.71903,50.864083 -1.97845,1.236528 v -2.473056 z"
       id="path8139"
       sodipodi:nodetypes="cccc" />
    <path
       style="display:inline;fill:#0044aa;fill-opacity:1;stroke:none;stroke-width:0.163582px;stroke-linecap:butt;stroke-linejoin:miter;stroke-opacity:1"
       d="m 157.39893,68.362973 -1.23652,-1.978451 h 2.47305 z"
       id="path8141"
       sodipodi:nodetypes="cccc"
       inkscape:transform-center-x="-0.089617087"
       inkscape:transform-center-y="-1.6229403" />
    <g
       ns1:text="$M^{-1}$"
       transform="matrix(0.58952442,0,0,0.58952442,8.3083233,-12.12428)"
       style="display:inline;fill:#0044aa;fill-opacity:1;stroke-width:0.786952;stroke-miterlimit:3.2;stroke-dasharray:none;stroke-dashoffset:0"
       id="g5301">
      <g
         id="g5299"
         style="fill:#0044aa;fill-opacity:1">
        <g
           style="fill:#0044aa;fill-opacity:1"
           id="g5289"
           transform="translate(3.8006178,-0.78456205)">
          <path
             style="fill:#0044aa;fill-opacity:1;stroke:none"
             d="M 9.34375,-6.625 9.375,-6.890625 H 9.09375 C 8.8125,-6.875 8.65625,-6.875 8.53125,-6.875 H 8.296875 l -0.59375,-0.015625 -0.15625,0.296875 c -0.265625,0.515625 -0.453125,0.859375 -0.6875,1.25 l -2.453125,4.203125 -1.5,-5.75 H 2.625 C 2.359375,-6.875 2.203125,-6.875 2.078125,-6.875 h -0.25 L 1.25,-6.890625 1.21875,-6.625 l 0.25,0.03125 C 2,-6.5625 2.171875,-6.453125 2.171875,-6.203125 c 0,0.0625 -0.015625,0.125 -0.03125,0.203125 l -1.4375,5.078125 c -0.171875,0.515625 -0.3125,0.640625 -0.859375,0.6875 L -0.1875,0.03125 0.203125,0.015625 C 0.53125,0.015625 0.78125,0 0.921875,0 c 0.140625,0 0.40625,0.015625 0.75,0.015625 L 2.03125,0.03125 2.046875,-0.25 1.671875,-0.28125 C 1.359375,-0.296875 1.1875,-0.40625 1.1875,-0.546875 c 0,-0.09375 0.015625,-0.234375 0.0625,-0.40625 l 1.25,-4.625 1.484375,5.75 h 0.21875 l 0.578125,-1.03125 c 0.765625,-1.40625 1.703125,-3.015625 2.375,-4.125 l 0.515625,-0.875 -0.359375,5.1875 C 7.265625,-0.390625 7.140625,-0.3125 6.640625,-0.28125 L 6.328125,-0.25 6.296875,0.03125 6.765625,0.015625 C 7.1875,0.015625 7.484375,0 7.640625,0 7.796875,0 8.09375,0.015625 8.5,0.015625 L 8.96875,0.03125 8.984375,-0.25 8.625,-0.28125 C 8.265625,-0.3125 8.078125,-0.421875 8.078125,-0.625 L 8.09375,-1 8.5,-6.296875 c 0.015625,-0.1875 0.171875,-0.28125 0.46875,-0.296875 z m 0,0"
             transform="translate(178.585,110.99)"
             id="path5287" />
        </g>
      </g>
    </g>
    <path
       style="display:inline;fill:#0044aa;fill-opacity:1;stroke:none;stroke-width:0.432785;stroke-linecap:round;stroke-linejoin:bevel;stroke-miterlimit:3.2;stroke-dasharray:none;stroke-dashoffset:0;paint-order:fill markers stroke"
       d="m 69.07631,50.869375 a 1.5456599,1.5456599 0 0 1 -1.54566,1.54566 1.5456599,1.5456599 0 0 1 -1.54566,-1.54566 1.5456599,1.5456599 0 0 1 1.54566,-1.54566 1.5456599,1.5456599 0 0 1 1.54566,1.54566 z"
       id="path1051" />
    <path
       id="path7867"
       style="display:inline;fill:#0044aa;fill-opacity:1;stroke:none;stroke-width:0.261732;stroke-linecap:round;stroke-linejoin:bevel;stroke-miterlimit:4;stroke-dasharray:none;stroke-dashoffset:0;paint-order:fill markers stroke"
       d="m 155.8532,69.628396 a 1.5456599,1.5456599 0 0 1 1.54573,-1.545722 1.5456599,1.5456599 0 0 1 1.5454,1.545722 z" />
    <g
       ns1:text="$\bm{r}_\theta$ ???"
       transform="matrix(0.4395761,0,0,0.42312476,-13.328859,0.48141118)"
       style="display:inline;fill:#0044aa;fill-opacity:1;stroke-width:1.00351;stroke-miterlimit:3.2;stroke-dasharray:none;stroke-dashoffset:0"
       id="g8102">
      <g
         id="surface1"
         style="fill:#0044aa;fill-opacity:1">
        <g
           style="fill:#0044aa;fill-opacity:1"
           id="g8087">
          <path
             style="stroke:none;fill:#0044aa;fill-opacity:1"
             d="M 4.421875,-4 C 3.875,-3.890625 3.8125,-3.40625 3.8125,-3.3125 c 0,0.21875 0.171875,0.46875 0.5,0.46875 0.34375,0 0.71875,-0.28125 0.71875,-0.796875 C 5.03125,-4.09375 4.671875,-4.5 4.0625,-4.5 3.5,-4.5 3.03125,-4.234375 2.734375,-3.90625 2.5,-4.359375 1.921875,-4.5 1.5625,-4.5 c -0.359375,0 -0.640625,0.203125 -0.859375,0.5625 -0.25,0.390625 -0.390625,0.921875 -0.390625,0.984375 0,0.140625 0.15625,0.140625 0.25,0.140625 0.109375,0 0.140625,0 0.1875,-0.046875 C 0.78125,-2.875 0.78125,-2.90625 0.84375,-3.15625 c 0.1875,-0.75 0.40625,-0.984375 0.671875,-0.984375 0.15625,0 0.234375,0.09375 0.234375,0.359375 0,0.171875 -0.03125,0.28125 -0.140625,0.75 -0.046875,0.171875 -0.21875,0.828125 -0.28125,1.078125 -0.046875,0.1875 -0.15625,0.640625 -0.203125,0.8125 -0.0625,0.265625 -0.171875,0.71875 -0.171875,0.78125 0,0.203125 0.15625,0.4375 0.46875,0.4375 0.1875,0 0.546875,-0.125 0.65625,-0.53125 0,-0.03125 0.6875,-2.734375 0.6875,-2.796875 C 2.8125,-3.40625 2.8125,-3.421875 2.9375,-3.5625 c 0.234375,-0.296875 0.59375,-0.578125 1.09375,-0.578125 0.25,0 0.359375,0.109375 0.390625,0.140625 z m 0,0"
             transform="translate(178.585,110.99)"
             id="path8085" />
        </g>
        <g
           style="fill:#0044aa;fill-opacity:1"
           id="g8091">
          <path
             style="stroke:none;fill:#0044aa;fill-opacity:1"
             d="m 4,-3.515625 c 0,-0.796875 -0.234375,-1.375 -1.125,-1.375 -1.8125,0 -2.375,2.015625 -2.375,3.5 0,0.828125 0.25,1.5 1.1875,1.5 1.65625,0 2.3125,-2.3125 2.3125,-3.625 z m -0.515625,-0.09375 c 0,0.3125 -0.0625,0.640625 -0.109375,0.953125 H 1.171875 C 1.34375,-3.375 1.84375,-4.703125 2.75,-4.703125 c 0.609375,0 0.734375,0.625 0.734375,1.09375 z M 3.34375,-2.4375 C 3.171875,-1.65625 2.796875,-0.09375 1.796875,-0.09375 1.09375,-0.09375 1.03125,-0.875 1.03125,-1.421875 1.03125,-1.75 1.09375,-2.09375 1.140625,-2.4375 Z m 0,0"
             transform="translate(183.852,112.485)"
             id="path8089" />
        </g>
        <g
           style="fill:#0044aa;fill-opacity:1"
           id="g8099">
          <path
             style="stroke:none;fill:#0044aa;fill-opacity:1"
             d="M 0.421875,-5.4375 0.71875,-5.359375 0.921875,-5.84375 c 0.109375,-0.265625 0.40625,-0.421875 0.859375,-0.421875 0.71875,0 1.234375,0.453125 1.234375,1.09375 0,0.390625 -0.1875,0.71875 -0.765625,1.359375 -0.609375,0.671875 -0.78125,0.9375 -0.78125,1.28125 0,0.296875 0.140625,0.53125 0.4375,0.734375 L 2.125,-1.9375 C 1.96875,-2.140625 1.90625,-2.265625 1.90625,-2.421875 c 0,-0.328125 0.125,-0.5 0.9375,-1.234375 0.84375,-0.765625 1.09375,-1.15625 1.09375,-1.734375 0,-0.859375 -0.78125,-1.53125 -1.8125,-1.53125 -0.4375,0 -0.796875,0.09375 -1.3125,0.359375 z m 1.546875,4.328125 c -0.296875,0 -0.5625,0.28125 -0.5625,0.578125 0,0.296875 0.265625,0.578125 0.5625,0.578125 0.3125,0 0.59375,-0.265625 0.59375,-0.578125 0,-0.296875 -0.28125,-0.578125 -0.59375,-0.578125 z m 0,0"
             transform="translate(191.122,110.99)"
             id="path8093" />
          <path
             style="stroke:none;fill:#0044aa;fill-opacity:1"
             d="M 0.421875,-5.4375 0.71875,-5.359375 0.921875,-5.84375 c 0.109375,-0.265625 0.40625,-0.421875 0.859375,-0.421875 0.71875,0 1.234375,0.453125 1.234375,1.09375 0,0.390625 -0.1875,0.71875 -0.765625,1.359375 -0.609375,0.671875 -0.78125,0.9375 -0.78125,1.28125 0,0.296875 0.140625,0.53125 0.4375,0.734375 L 2.125,-1.9375 C 1.96875,-2.140625 1.90625,-2.265625 1.90625,-2.421875 c 0,-0.328125 0.125,-0.5 0.9375,-1.234375 0.84375,-0.765625 1.09375,-1.15625 1.09375,-1.734375 0,-0.859375 -0.78125,-1.53125 -1.8125,-1.53125 -0.4375,0 -0.796875,0.09375 -1.3125,0.359375 z m 1.546875,4.328125 c -0.296875,0 -0.5625,0.28125 -0.5625,0.578125 0,0.296875 0.265625,0.578125 0.5625,0.578125 0.3125,0 0.59375,-0.265625 0.59375,-0.578125 0,-0.296875 -0.28125,-0.578125 -0.59375,-0.578125 z m 0,0"
             transform="translate(195.54539,110.99)"
             id="path8095" />
          <path
             style="stroke:none;fill:#0044aa;fill-opacity:1"
             d="M 0.421875,-5.4375 0.71875,-5.359375 0.921875,-5.84375 c 0.109375,-0.265625 0.40625,-0.421875 0.859375,-0.421875 0.71875,0 1.234375,0.453125 1.234375,1.09375 0,0.390625 -0.1875,0.71875 -0.765625,1.359375 -0.609375,0.671875 -0.78125,0.9375 -0.78125,1.28125 0,0.296875 0.140625,0.53125 0.4375,0.734375 L 2.125,-1.9375 C 1.96875,-2.140625 1.90625,-2.265625 1.90625,-2.421875 c 0,-0.328125 0.125,-0.5 0.9375,-1.234375 0.84375,-0.765625 1.09375,-1.15625 1.09375,-1.734375 0,-0.859375 -0.78125,-1.53125 -1.8125,-1.53125 -0.4375,0 -0.796875,0.09375 -1.3125,0.359375 z m 1.546875,4.328125 c -0.296875,0 -0.5625,0.28125 -0.5625,0.578125 0,0.296875 0.265625,0.578125 0.5625,0.578125 0.3125,0 0.59375,-0.265625 0.59375,-0.578125 0,-0.296875 -0.28125,-0.578125 -0.59375,-0.578125 z m 0,0"
             transform="translate(199.96879,110.99)"
             id="path8097" />
        </g>
      </g>
    </g>
  </g>
  <g
     inkscape:label="real"
     inkscape:groupmode="layer"
     id="layer1"
     style="display:inline">
    <g
       inkscape:groupmode="layer"
       id="layer4"
       inkscape:label="MF"
       style="display:inline"
       transform="matrix(0.8,0,0,0.8,21.174011,12.465023)" />
    <path
       style="fill:none;fill-rule:evenodd;stroke:#000000;stroke-width:0.494611;stroke-linecap:butt;stroke-linejoin:miter;stroke-miterlimit:3.2;stroke-dasharray:none;stroke-opacity:1"
       d="m 116.86886,69.637724 10.94233,-0.0093"
       id="path1786"
       inkscape:connector-type="polyline"
       inkscape:connector-curvature="0"
       sodipodi:nodetypes="cc" />
    <path
       style="fill:#000000;stroke:#000000;stroke-width:0.163582px;stroke-linecap:butt;stroke-linejoin:miter;stroke-opacity:1"
       d="m 128.27513,69.628396 -1.97845,-1.236528 v 2.473056 z"
       id="path6745"
       sodipodi:nodetypes="cccc"
       inkscape:transform-center-x="1.6229395"
       inkscape:transform-center-y="0.089616257" />
    <path
       style="fill:#000000;stroke:none;stroke-width:0.163582px;stroke-linecap:butt;stroke-linejoin:miter;stroke-opacity:1"
       d="m 164.54979,69.57679 -1.97845,-1.236528 v 2.473056 z"
       id="path6747"
       sodipodi:nodetypes="cccc"
       inkscape:transform-center-x="1.6229395"
       inkscape:transform-center-y="0.089616257" />
    <rect
       style="display:inline;fill:#ffffff;stroke:#000000;stroke-width:0.432785;stroke-linejoin:miter;stroke-miterlimit:3.2;stroke-dasharray:none"
       id="rect1322"
       width="21.824715"
       height="11.932495"
       x="128.64584"
       y="63.662148" />
    <path
       style="fill:#0044aa;fill-opacity:1;fill-rule:evenodd;stroke:#000000;stroke-width:0.494611;stroke-linecap:butt;stroke-linejoin:miter;stroke-miterlimit:3.2;stroke-dasharray:none;stroke-dashoffset:0;stroke-opacity:1"
       d="m 150.68695,69.628396 h 12.36528"
       id="path1784"
       inkscape:connector-curvature="0"
       inkscape:connector-type="polyline"
       sodipodi:nodetypes="cc" />
    <g
       id="g5136"
       transform="matrix(0.58952442,0,0,0.58952442,32.504809,6.2193594)">
      <g
         style="fill:#000000;fill-opacity:1"
         id="g5134">
        <path
           style="stroke:none"
           d="m 1.046875,-6.625 0.546875,0.03125 c 0.234375,0 0.34375,0.078125 0.34375,0.265625 0,0.140625 -0.03125,0.453125 -0.078125,0.75 L 1.109375,-1.25 C 0.953125,-0.34375 0.9375,-0.3125 0.53125,-0.28125 L 0.125,-0.25 0.09375,0.03125 0.515625,0.015625 C 0.921875,0.015625 1.21875,0 1.40625,0 1.578125,0 1.859375,0.015625 2.265625,0.015625 L 2.796875,0.03125 2.828125,-0.25 2.171875,-0.28125 C 1.90625,-0.296875 1.8125,-0.375 1.8125,-0.578125 c 0,-0.09375 0.015625,-0.15625 0.046875,-0.34375 l 0.8125,-4.859375 c 0,-0.015625 0.046875,-0.203125 0.09375,-0.40625 0,-0.046875 0.03125,-0.140625 0.0625,-0.265625 0.359375,-0.0625 0.515625,-0.09375 0.703125,-0.09375 1.03125,0 1.515625,0.453125 1.515625,1.375 0,1.078125 -0.71875,1.953125 -1.59375,1.953125 -0.21875,0 -0.421875,-0.046875 -0.796875,-0.1875 l 0.03125,0.3125 C 3.046875,-2.921875 3.25,-2.875 3.53125,-2.875 c 1.296875,0 2.390625,-1.15625 2.390625,-2.515625 0,-1.015625 -0.625,-1.53125 -1.8125,-1.5 l -1.375,0.015625 -1.125,-0.015625 h -0.53125 z m 0,0"
           transform="translate(178.585,110.99)"
           id="path5132" />
      </g>
    </g>
    <g
       ns1:text="$\bm{y}_\theta$"
       transform="matrix(0.43957611,0,0,0.42312475,82.025275,20.010703)"
       style="display:inline;fill:#0044aa;fill-opacity:1;stroke-width:1.00351;stroke-miterlimit:3.2;stroke-dasharray:none;stroke-dashoffset:0"
       id="g8028">
      <g
         id="g8026">
        <g
           style="fill:#000000;fill-opacity:1"
           id="g8020">
          <path
             style="stroke:none"
             d="m 5.75,-3.765625 c 0.046875,-0.171875 0.046875,-0.1875 0.046875,-0.21875 0,-0.21875 -0.15625,-0.4375 -0.46875,-0.4375 -0.515625,0 -0.640625,0.46875 -0.703125,0.734375 L 4.359375,-2.65625 C 4.25,-2.171875 4.0625,-1.40625 3.953125,-1 3.890625,-0.78125 3.59375,-0.53125 3.5625,-0.515625 3.453125,-0.453125 3.203125,-0.28125 2.875,-0.28125 c -0.578125,0 -0.59375,-0.5 -0.59375,-0.71875 0,-0.609375 0.3125,-1.390625 0.59375,-2.109375 C 2.96875,-3.375 3,-3.4375 3,-3.609375 3,-4.1875 2.421875,-4.5 1.875,-4.5 c -1.0625,0 -1.5625,1.34375 -1.5625,1.546875 0,0.140625 0.15625,0.140625 0.25,0.140625 0.109375,0 0.1875,0 0.21875,-0.125 0.328125,-1.109375 0.890625,-1.203125 1.03125,-1.203125 0.078125,0 0.171875,0 0.171875,0.203125 0,0.234375 -0.109375,0.484375 -0.171875,0.640625 -0.390625,1 -0.59375,1.578125 -0.59375,2.078125 0,1.140625 1,1.296875 1.578125,1.296875 0.25,0 0.59375,-0.03125 0.96875,-0.296875 C 3.484375,1 2.734375,1.65625 2.046875,1.65625 1.90625,1.65625 1.640625,1.640625 1.4375,1.515625 1.75,1.390625 1.90625,1.109375 1.90625,0.84375 1.90625,0.484375 1.625,0.390625 1.421875,0.390625 c -0.359375,0 -0.71875,0.3125 -0.71875,0.75 0,0.515625 0.53125,0.875 1.34375,0.875 1.140625,0 2.453125,-0.765625 2.765625,-2 z m 0,0"
             transform="translate(178.585,110.99)"
             id="path8018" />
        </g>
        <g
           style="fill:#000000;fill-opacity:1"
           id="g8024">
          <path
             style="stroke:none"
             d="m 4,-3.515625 c 0,-0.796875 -0.234375,-1.375 -1.125,-1.375 -1.8125,0 -2.375,2.015625 -2.375,3.5 0,0.828125 0.25,1.5 1.1875,1.5 1.65625,0 2.3125,-2.3125 2.3125,-3.625 z m -0.515625,-0.09375 c 0,0.3125 -0.0625,0.640625 -0.109375,0.953125 H 1.171875 C 1.34375,-3.375 1.84375,-4.703125 2.75,-4.703125 c 0.609375,0 0.734375,0.625 0.734375,1.09375 z M 3.34375,-2.4375 C 3.171875,-1.65625 2.796875,-0.09375 1.796875,-0.09375 1.09375,-0.09375 1.03125,-0.875 1.03125,-1.421875 1.03125,-1.75 1.09375,-2.09375 1.140625,-2.4375 Z m 0,0"
             transform="translate(184.465,112.485)"
             id="path8022" />
        </g>
      </g>
    </g>
    <g
       ns1:text="$\bm{u}_\theta$"
       transform="matrix(0.43957611,0,0,0.42312475,40.398378,20.351186)"
       style="display:inline;fill:#0044aa;fill-opacity:1;stroke-width:1.00351;stroke-miterlimit:3.2;stroke-dasharray:none;stroke-dashoffset:0"
       id="g8359">
      <g
         id="g8357">
        <g
           style="fill:#000000;fill-opacity:1"
           id="g8351">
          <path
             style="stroke:none"
             d="m 5.609375,-3.15625 c 0.078125,-0.28125 0.1875,-0.765625 0.1875,-0.828125 0,-0.21875 -0.15625,-0.4375 -0.46875,-0.4375 -0.15625,0 -0.515625,0.078125 -0.65625,0.53125 -0.03125,0.125 -0.484375,1.9375 -0.5625,2.265625 -0.0625,0.234375 -0.125,0.515625 -0.15625,0.703125 C 3.78125,-0.6875 3.390625,-0.28125 2.875,-0.28125 c -0.578125,0 -0.59375,-0.5 -0.59375,-0.71875 0,-0.609375 0.3125,-1.390625 0.59375,-2.109375 C 2.96875,-3.375 3,-3.4375 3,-3.609375 3,-4.1875 2.421875,-4.5 1.875,-4.5 c -1.0625,0 -1.5625,1.34375 -1.5625,1.546875 0,0.140625 0.15625,0.140625 0.25,0.140625 0.109375,0 0.1875,0 0.21875,-0.125 0.328125,-1.109375 0.875,-1.203125 1.03125,-1.203125 0.078125,0 0.171875,0 0.171875,0.203125 0,0.234375 -0.125,0.515625 -0.15625,0.625 -0.421875,1.046875 -0.609375,1.609375 -0.609375,2.09375 0,1.140625 1,1.296875 1.578125,1.296875 0.296875,0 0.734375,-0.03125 1.265625,-0.546875 0.328125,0.484375 0.90625,0.546875 1.140625,0.546875 0.375,0 0.65625,-0.203125 0.875,-0.5625 0.234375,-0.40625 0.375,-0.9375 0.375,-0.984375 0,-0.140625 -0.15625,-0.140625 -0.25,-0.140625 -0.109375,0 -0.140625,0 -0.1875,0.046875 -0.03125,0.015625 -0.03125,0.03125 -0.078125,0.28125 -0.203125,0.78125 -0.421875,1 -0.6875,1 -0.140625,0 -0.21875,-0.09375 -0.21875,-0.359375 0,-0.171875 0.03125,-0.34375 0.125,-0.734375 0.078125,-0.28125 0.171875,-0.671875 0.234375,-0.890625 z m 0,0"
             transform="translate(178.585,110.99)"
             id="path8349" />
        </g>
        <g
           style="fill:#000000;fill-opacity:1"
           id="g8355">
          <path
             style="stroke:none"
             d="m 4,-3.515625 c 0,-0.796875 -0.234375,-1.375 -1.125,-1.375 -1.8125,0 -2.375,2.015625 -2.375,3.5 0,0.828125 0.25,1.5 1.1875,1.5 1.65625,0 2.3125,-2.3125 2.3125,-3.625 z m -0.515625,-0.09375 c 0,0.3125 -0.0625,0.640625 -0.109375,0.953125 H 1.171875 C 1.34375,-3.375 1.84375,-4.703125 2.75,-4.703125 c 0.609375,0 0.734375,0.625 0.734375,1.09375 z M 3.34375,-2.4375 C 3.171875,-1.65625 2.796875,-0.09375 1.796875,-0.09375 1.09375,-0.09375 1.03125,-0.875 1.03125,-1.421875 1.03125,-1.75 1.09375,-2.09375 1.140625,-2.4375 Z m 0,0"
             transform="translate(185.369,112.485)"
             id="path8353" />
        </g>
      </g>
    </g>
  </g>
</svg>
