<?xml version="1.0" encoding="UTF-8" standalone="no"?>
<svg
   xmlns:ns1="http://wanglongqi.github.io/WriteTeX"
   xmlns:dc="http://purl.org/dc/elements/1.1/"
   xmlns:cc="http://creativecommons.org/ns#"
   xmlns:rdf="http://www.w3.org/1999/02/22-rdf-syntax-ns#"
   xmlns:svg="http://www.w3.org/2000/svg"
   xmlns="http://www.w3.org/2000/svg"
   xmlns:sodipodi="http://sodipodi.sourceforge.net/DTD/sodipodi-0.dtd"
   xmlns:inkscape="http://www.inkscape.org/namespaces/inkscape"
   inkscape:version="1.0.2 (e86c870879, 2021-01-15, custom)"
   sodipodi:docname="diagrama_VRFT_maps_new.svg"
   id="svg8"
   version="1.1"
   viewBox="0 0 104.56231 54.985172"
   height="54.985172mm"
   width="104.56231mm">
  <defs
     id="defs2">
    <marker
       style="overflow:visible"
       id="marker5676"
       refX="0"
       refY="0"
       orient="auto"
       inkscape:stockid="Arrow2Lend"
       inkscape:isstock="true">
      <path
         transform="matrix(-1.1,0,0,-1.1,-1.1,0)"
         d="M 8.7185878,4.0337352 -2.2072895,0.01601326 8.7185884,-4.0017078 c -1.7454984,2.3720609 -1.7354408,5.6174519 -6e-7,8.035443 z"
         style="fill:#000000;fill-opacity:1;fill-rule:evenodd;stroke:#000000;stroke-width:0.625;stroke-linejoin:round;stroke-opacity:1"
         id="path5674" />
    </marker>
    <marker
       style="overflow:visible"
       id="TriangleInL"
       refX="0"
       refY="0"
       orient="auto"
       inkscape:stockid="TriangleInL"
       inkscape:isstock="true">
      <path
         transform="scale(-0.8)"
         style="fill:#000000;fill-opacity:1;fill-rule:evenodd;stroke:#000000;stroke-width:1pt;stroke-opacity:1"
         d="M 5.77,0 -2.88,5 V -5 Z"
         id="path1501" />
    </marker>
    <marker
       style="overflow:visible"
       id="marker5212"
       refX="0"
       refY="0"
       orient="auto"
       inkscape:stockid="TriangleOutL"
       inkscape:isstock="true">
      <path
         transform="scale(0.8)"
         style="fill:#000000;fill-opacity:1;fill-rule:evenodd;stroke:#000000;stroke-width:1pt;stroke-opacity:1"
         d="M 5.77,0 -2.88,5 V -5 Z"
         id="path5210" />
    </marker>
    <marker
       style="overflow:visible"
       id="marker5202"
       refX="0"
       refY="0"
       orient="auto"
       inkscape:stockid="TriangleOutL"
       inkscape:isstock="true">
      <path
         transform="scale(0.8)"
         style="fill:#000000;fill-opacity:1;fill-rule:evenodd;stroke:#000000;stroke-width:1pt;stroke-opacity:1"
         d="M 5.77,0 -2.88,5 V -5 Z"
         id="path5200" />
    </marker>
    <marker
       style="overflow:visible"
       id="marker5192"
       refX="0"
       refY="0"
       orient="auto"
       inkscape:stockid="TriangleOutL"
       inkscape:isstock="true">
      <path
         transform="scale(0.8)"
         style="fill:#000000;fill-opacity:1;fill-rule:evenodd;stroke:#000000;stroke-width:1pt;stroke-opacity:1"
         d="M 5.77,0 -2.88,5 V -5 Z"
         id="path5190" />
    </marker>
    <marker
       style="overflow:visible"
       id="marker5116"
       refX="0"
       refY="0"
       orient="auto"
       inkscape:stockid="TriangleOutL"
       inkscape:isstock="true">
      <path
         transform="scale(0.8)"
         style="fill:#000000;fill-opacity:1;fill-rule:evenodd;stroke:#000000;stroke-width:1pt;stroke-opacity:1"
         d="M 5.77,0 -2.88,5 V -5 Z"
         id="path5114" />
    </marker>
    <marker
       style="overflow:visible"
       id="Arrow2Lstart"
       refX="0"
       refY="0"
       orient="auto"
       inkscape:stockid="Arrow2Lstart"
       inkscape:isstock="true">
      <path
         transform="matrix(1.1,0,0,1.1,1.1,0)"
         d="M 8.7185878,4.0337352 -2.2072895,0.01601326 8.7185884,-4.0017078 c -1.7454984,2.3720609 -1.7354408,5.6174519 -6e-7,8.035443 z"
         style="fill:#000000;fill-opacity:1;fill-rule:evenodd;stroke:#000000;stroke-width:0.625;stroke-linejoin:round;stroke-opacity:1"
         id="path1386" />
    </marker>
    <marker
       style="overflow:visible"
       id="marker3912"
       refX="0"
       refY="0"
       orient="auto"
       inkscape:stockid="Arrow2Lend"
       inkscape:isstock="true">
      <path
         transform="matrix(-1.1,0,0,-1.1,-1.1,0)"
         d="M 8.7185878,4.0337352 -2.2072895,0.01601326 8.7185884,-4.0017078 c -1.7454984,2.3720609 -1.7354408,5.6174519 -6e-7,8.035443 z"
         style="fill:#000000;fill-opacity:1;fill-rule:evenodd;stroke:#000000;stroke-width:0.625;stroke-linejoin:round;stroke-opacity:1"
         id="path3910" />
    </marker>
    <marker
       style="overflow:visible"
       id="marker1834"
       refX="0"
       refY="0"
       orient="auto"
       inkscape:stockid="Arrow2Lend"
       inkscape:isstock="true">
      <path
         transform="matrix(-1.1,0,0,-1.1,-1.1,0)"
         d="M 8.7185878,4.0337352 -2.2072895,0.01601326 8.7185884,-4.0017078 c -1.7454984,2.3720609 -1.7354408,5.6174519 -6e-7,8.035443 z"
         style="fill:#000000;fill-opacity:1;fill-rule:evenodd;stroke:#000000;stroke-width:0.625;stroke-linejoin:round;stroke-opacity:1"
         id="path1832" />
    </marker>
    <marker
       style="overflow:visible"
       id="marker1690"
       refX="0"
       refY="0"
       orient="auto"
       inkscape:stockid="Arrow2Lend"
       inkscape:isstock="true">
      <path
         transform="matrix(-1.1,0,0,-1.1,-1.1,0)"
         d="M 8.7185878,4.0337352 -2.2072895,0.01601326 8.7185884,-4.0017078 c -1.7454984,2.3720609 -1.7354408,5.6174519 -6e-7,8.035443 z"
         style="fill:#000000;fill-opacity:1;fill-rule:evenodd;stroke:#000000;stroke-width:0.625;stroke-linejoin:round;stroke-opacity:1"
         id="path1688" />
    </marker>
    <marker
       style="overflow:visible"
       id="marker1680"
       refX="0"
       refY="0"
       orient="auto"
       inkscape:stockid="Arrow2Lend"
       inkscape:isstock="true">
      <path
         transform="matrix(-1.1,0,0,-1.1,-1.1,0)"
         d="M 8.7185878,4.0337352 -2.2072895,0.01601326 8.7185884,-4.0017078 c -1.7454984,2.3720609 -1.7354408,5.6174519 -6e-7,8.035443 z"
         style="fill:#000000;fill-opacity:1;fill-rule:evenodd;stroke:#000000;stroke-width:0.625;stroke-linejoin:round;stroke-opacity:1"
         id="path1678" />
    </marker>
    <marker
       style="overflow:visible"
       id="Arrow2Lend"
       refX="0"
       refY="0"
       orient="auto"
       inkscape:stockid="Arrow2Lend"
       inkscape:isstock="true">
      <path
         transform="matrix(-1.1,0,0,-1.1,-1.1,0)"
         d="M 8.7185878,4.0337352 -2.2072895,0.01601326 8.7185884,-4.0017078 c -1.7454984,2.3720609 -1.7354408,5.6174519 -6e-7,8.035443 z"
         style="fill:#000000;fill-opacity:1;fill-rule:evenodd;stroke:#000000;stroke-width:0.625;stroke-linejoin:round;stroke-opacity:1"
         id="path1389" />
    </marker>
    <symbol
       id="LogicalAnd">
      <title
         id="title6402">Logical And</title>
      <desc
         id="desc6404">Summing junction. Shows when multiple branches converge.</desc>
      <circle
         cx="19.84375"
         cy="19.84375"
         r="5.2916665"
         style="stroke-width:2"
         id="circle6406" />
      <path
         d="m 16.139583,16.139583 7.408334,7.408334"
         style="stroke-width:2"
         id="path6408" />
      <path
         d="m 16.139583,23.547917 7.408334,-7.408334"
         style="stroke-width:2"
         id="path6410" />
    </symbol>
  </defs>
  <sodipodi:namedview
     id="base"
     pagecolor="#ffffff"
     bordercolor="#666666"
     borderopacity="1.0"
     inkscape:pageopacity="0.0"
     inkscape:pageshadow="2"
     inkscape:zoom="2.4098773"
     inkscape:cx="241.05711"
     inkscape:cy="148.67289"
     inkscape:document-units="mm"
     inkscape:current-layer="layer2"
     inkscape:document-rotation="0"
     showgrid="false"
     inkscape:window-width="1920"
     inkscape:window-height="1062"
     inkscape:window-x="0"
     inkscape:window-y="18"
     inkscape:window-maximized="1"
     inkscape:snap-intersection-paths="true"
     inkscape:object-paths="false"
     inkscape:snap-smooth-nodes="true"
     inkscape:snap-midpoints="false"
     inkscape:snap-object-midpoints="false"
     inkscape:snap-nodes="true"
     inkscape:object-nodes="true"
     inkscape:snap-others="true"
     showguides="true"
     inkscape:guide-bbox="true"
     inkscape:snap-grids="true"
     inkscape:snap-to-guides="true"
     inkscape:snap-global="true"
     inkscape:snap-bbox="true"
     inkscape:bbox-paths="false"
     inkscape:bbox-nodes="false"
     inkscape:snap-bbox-edge-midpoints="true"
     inkscape:snap-bbox-midpoints="true"
     fit-margin-top="0"
     fit-margin-left="0"
     fit-margin-right="0"
     fit-margin-bottom="0">
    <inkscape:grid
       type="xygrid"
       id="grid6019"
       units="mm"
       spacingx="1"
       spacingy="1"
       originx="-55.242324"
       originy="-31.535441" />
  </sodipodi:namedview>
  <metadata
     id="metadata5">
    <rdf:RDF>
      <cc:Work
         rdf:about="">
        <dc:format>image/svg+xml</dc:format>
        <dc:type
           rdf:resource="http://purl.org/dc/dcmitype/StillImage" />
        <dc:title></dc:title>
      </cc:Work>
    </rdf:RDF>
  </metadata>
  <g
     inkscape:groupmode="layer"
     id="layer2"
     inkscape:label="virtual"
     style="display:inline"
     transform="translate(-55.242324,-31.535442)">
    <g
       id="g6699"
       transform="rotate(45,128.28633,52.101601)"
       style="stroke:#000080;stroke-width:0.7;stroke-miterlimit:3.2;stroke-dasharray:2.1, 0.7;stroke-dashoffset:0" />
  </g>
  <g
     inkscape:groupmode="layer"
     id="layer3"
     inkscape:label="mr"
     style="display:inline"
     transform="translate(-55.242324,-31.535442)" />
  <g
     inkscape:label="real"
     inkscape:groupmode="layer"
     id="layer1"
     style="display:inline"
     transform="translate(-55.242324,-31.535442)">
    <path
       id="path6784"
       style="display:inline;fill:#0044aa;fill-opacity:1;stroke:none;stroke-width:0.261732;stroke-linecap:round;stroke-linejoin:bevel;stroke-miterlimit:4;stroke-dasharray:none;stroke-dashoffset:0;paint-order:fill markers stroke"
       d="m 149.79989,63.708805 a 1.5456599,1.5456599 0 0 0 1.54573,1.545722 1.5456599,1.5456599 0 0 0 1.54541,-1.545722 z" />
    <path
       style="display:inline;fill:#333333;fill-rule:evenodd;stroke:#0044aa;stroke-width:0.432785;stroke-linecap:butt;stroke-linejoin:bevel;stroke-miterlimit:3.2;stroke-dasharray:1.29835, 0.432785;stroke-dashoffset:0;stroke-opacity:1"
       d="m 61.2163,63.657199 h 8.655696"
       id="path2252"
       sodipodi:nodetypes="cc" />
    <path
       style="display:inline;fill:none;fill-rule:evenodd;stroke:#0044aa;stroke-width:0.432785;stroke-linecap:butt;stroke-linejoin:miter;stroke-miterlimit:3.2;stroke-dasharray:1.29835, 0.432785;stroke-dashoffset:0;stroke-opacity:1"
       d="m 73.58158,67.366783 v 11.747015 l 77.76388,0.05161 V 63.708805"
       id="path2334"
       sodipodi:nodetypes="cccc" />
    <circle
       style="display:inline;fill:#ffffff;stroke:#0044aa;stroke-width:0.432785;stroke-miterlimit:3.2;stroke-dasharray:1.29835, 0.432785;stroke-dashoffset:0"
       id="path2248"
       cx="7.0175958"
       cy="97.042473"
       r="2.960454"
       transform="rotate(-45)"
       inkscape:transform-center-x="0.47720466"
       inkscape:transform-center-y="5.2243011" />
    <g
       aria-label="+"
       id="text6703"
       style="font-style:normal;font-weight:normal;font-size:4.28937px;line-height:1.25;font-family:sans-serif;display:inline;fill:#0044aa;fill-opacity:1;stroke:none;stroke-width:0.7;stroke-miterlimit:3.2;stroke-dasharray:2.1, 0.7;stroke-dashoffset:0"
       transform="matrix(0.61826397,0,0,0.61826397,43.641152,1.3838118)">
      <path
         d="m 42.147171,103.69475 v 1.16659 h 1.166592 v 0.35605 h -1.166592 v 1.16659 h -0.351862 v -1.16659 h -1.166591 v -0.35605 h 1.166591 v -1.16659 z"
         style="fill:#0044aa;fill-opacity:1;stroke:none;stroke-width:0.7;stroke-miterlimit:3.2;stroke-dasharray:2.1, 0.7;stroke-dashoffset:0"
         id="path6859" />
    </g>
    <g
       aria-label="-"
       id="text6711"
       style="font-style:normal;font-weight:normal;font-size:4.28937px;line-height:1.25;font-family:sans-serif;display:inline;fill:#0044aa;fill-opacity:1;stroke:none;stroke-width:0.4597;stroke-miterlimit:3.2;stroke-dasharray:1.3791, 0.4597;stroke-dashoffset:0"
       transform="matrix(1.1518091,0,0,0.76951162,24.562184,-15.052975)">
      <path
         d="m 44.141269,107.56655 h 1.128892 v 0.34348 h -1.128892 z"
         style="fill:#0044aa;fill-opacity:1;stroke:none;stroke-width:0.4597;stroke-miterlimit:3.2;stroke-dasharray:1.3791, 0.4597;stroke-dashoffset:0"
         id="path6856" />
    </g>
    <rect
       style="display:inline;fill:#ffffff;stroke:#c83737;stroke-width:0.459685;stroke-linecap:butt;stroke-linejoin:miter;stroke-miterlimit:3.2;stroke-dasharray:1.37906, 0.459685;stroke-dashoffset:0;stroke-opacity:1"
       id="rect833"
       width="24.677658"
       height="11.939309"
       x="86.667076"
       y="57.743813"
       ry="2.2772419e-06"
       rx="2.2772419e-06" />
    <path
       style="display:inline;fill:#0044aa;fill-opacity:1;stroke:none;stroke-width:0.163582px;stroke-linecap:butt;stroke-linejoin:miter;stroke-opacity:1"
       d="m 73.581649,66.98826 -1.236527,1.978451 h 2.473055 z"
       id="path6735"
       sodipodi:nodetypes="cccc" />
    <g
       id="g1582"
       transform="matrix(0.61826397,0,0,0.61826397,41.912742,20.430327)">
      <path
         style="display:inline;fill:none;fill-rule:evenodd;stroke:#0044aa;stroke-width:0.681089;stroke-linecap:butt;stroke-linejoin:bevel;stroke-miterlimit:3.2;stroke-dasharray:2.04327, 0.681089;stroke-dashoffset:0;stroke-opacity:1"
         d="m 56.222616,69.958608 12.677623,-0.0421"
         id="path6151"
         inkscape:connector-curvature="0"
         inkscape:connector-type="polyline"
         sodipodi:nodetypes="cc" />
      <path
         style="display:inline;fill:#0044aa;fill-opacity:1;stroke:none;stroke-width:0.264583px;stroke-linecap:butt;stroke-linejoin:miter;stroke-opacity:1"
         d="m 72.015338,70.007543 -3.20001,-2 v 4 z"
         id="path6741"
         sodipodi:nodetypes="cccc"
         inkscape:transform-center-x="1.6229395"
         inkscape:transform-center-y="0.089616257" />
    </g>
    <path
       style="display:inline;fill:#0044aa;fill-opacity:1;stroke:none;stroke-width:0.432785;stroke-linecap:round;stroke-linejoin:bevel;stroke-miterlimit:3.2;stroke-dasharray:none;stroke-dashoffset:0;paint-order:fill markers stroke"
       d="m 63.551981,63.708805 a 1.5456599,1.5456599 0 0 1 -1.54566,1.54566 1.5456599,1.5456599 0 0 1 -1.54566,-1.54566 1.5456599,1.5456599 0 0 1 1.54566,-1.54566 1.5456599,1.5456599 0 0 1 1.54566,1.54566 z"
       id="path6786" />
    <path
       style="display:inline;fill:#0044aa;fill-opacity:1;stroke:none;stroke-width:0.163582px;stroke-linecap:butt;stroke-linejoin:miter;stroke-opacity:1"
       d="m 70.49026,63.657199 -1.978451,-1.236528 v 2.473056 z"
       id="path7074"
       sodipodi:nodetypes="cccc"
       inkscape:transform-center-x="1.6229395"
       inkscape:transform-center-y="0.089616257" />
    <g
       ns1:text="$\bar{e}(k)$"
       transform="matrix(0.43957611,0,0,0.42312475,-0.73404324,14.091112)"
       style="display:inline;fill:#000000;fill-opacity:0;stroke-width:1.00351;stroke-miterlimit:3.2;stroke-dasharray:none;stroke-dashoffset:0"
       id="g7305">
      <g
         id="g7303"
         style="fill:#000000;fill-opacity:0;stroke-width:1.00351">
        <g
           style="fill:#000000;fill-opacity:0;stroke-width:1.00351"
           id="g7285">
          <path
             style="fill:#000000;fill-opacity:0;stroke:none;stroke-width:1.00351"
             d="M 4.28125,-5.578125 V -5.875 H 0.6875 v 0.296875 z m 0,0"
             transform="translate(178.967,110.99)"
             id="path7283" />
        </g>
        <g
           style="fill:#000000;fill-opacity:0;stroke-width:1.00351"
           id="g7289">
          <path
             style="fill:#000000;fill-opacity:0;stroke:none;stroke-width:1.00351"
             d="m 1.859375,-2.296875 c 0.296875,0 1.03125,-0.03125 1.53125,-0.234375 0.703125,-0.296875 0.75,-0.890625 0.75,-1.03125 0,-0.4375 -0.375,-0.84375 -1.0625,-0.84375 -1.109375,0 -2.625,0.96875 -2.625,2.71875 0,1.015625 0.59375,1.796875 1.578125,1.796875 1.421875,0 2.25,-1.0625 2.25,-1.171875 0,-0.0625 -0.046875,-0.140625 -0.109375,-0.140625 -0.0625,0 -0.078125,0.03125 -0.140625,0.109375 -0.78125,0.984375 -1.875,0.984375 -1.984375,0.984375 -0.78125,0 -0.875,-0.84375 -0.875,-1.15625 0,-0.125 0.015625,-0.421875 0.15625,-1.03125 z m -0.46875,-0.21875 C 1.78125,-4.03125 2.8125,-4.1875 3.078125,-4.1875 c 0.453125,0 0.734375,0.296875 0.734375,0.625 0,1.046875 -1.59375,1.046875 -2.015625,1.046875 z m 0,0"
             transform="translate(178.584,110.99)"
             id="path7287" />
        </g>
        <g
           style="fill:#000000;fill-opacity:0;stroke-width:1.00351"
           id="g7293">
          <path
             style="fill:#000000;fill-opacity:0;stroke:none;stroke-width:1.00351"
             d="m 3.296875,2.390625 c 0,-0.03125 0,-0.046875 -0.171875,-0.21875 C 1.890625,0.921875 1.5625,-0.96875 1.5625,-2.5 c 0,-1.734375 0.375,-3.46875 1.609375,-4.703125 0.125,-0.125 0.125,-0.140625 0.125,-0.171875 0,-0.078125 -0.03125,-0.109375 -0.09375,-0.109375 -0.109375,0 -1,0.6875 -1.59375,1.953125 -0.5,1.09375 -0.625,2.203125 -0.625,3.03125 0,0.78125 0.109375,1.984375 0.65625,3.125 C 2.25,1.84375 3.09375,2.5 3.203125,2.5 c 0.0625,0 0.09375,-0.03125 0.09375,-0.109375 z m 0,0"
             transform="translate(183.223,110.99)"
             id="path7291" />
        </g>
        <g
           style="fill:#000000;fill-opacity:0;stroke-width:1.00351"
           id="g7297">
          <path
             style="fill:#000000;fill-opacity:0;stroke:none;stroke-width:1.00351"
             d="m 2.859375,-6.8125 c 0,0 0,-0.109375 -0.125,-0.109375 -0.234375,0 -0.953125,0.078125 -1.21875,0.109375 -0.078125,0 -0.1875,0.015625 -0.1875,0.1875 0,0.125 0.09375,0.125 0.234375,0.125 0.484375,0 0.5,0.0625 0.5,0.171875 L 2.03125,-6.125 0.59375,-0.390625 c -0.046875,0.140625 -0.046875,0.15625 -0.046875,0.21875 0,0.234375 0.203125,0.28125 0.296875,0.28125 0.125,0 0.265625,-0.09375 0.328125,-0.203125 0.046875,-0.09375 0.5,-1.9375 0.5625,-2.1875 0.34375,0.03125 1.15625,0.1875 1.15625,0.84375 0,0.078125 0,0.109375 -0.03125,0.21875 -0.015625,0.109375 -0.03125,0.234375 -0.03125,0.34375 0,0.578125 0.390625,0.984375 0.90625,0.984375 0.296875,0 0.578125,-0.15625 0.796875,-0.53125 0.25,-0.4375 0.359375,-0.984375 0.359375,-1 0,-0.109375 -0.09375,-0.109375 -0.125,-0.109375 -0.09375,0 -0.109375,0.046875 -0.140625,0.1875 -0.203125,0.71875 -0.421875,1.234375 -0.859375,1.234375 -0.203125,0 -0.328125,-0.109375 -0.328125,-0.46875 0,-0.171875 0.046875,-0.40625 0.078125,-0.5625 C 3.5625,-1.3125 3.5625,-1.34375 3.5625,-1.453125 3.5625,-2.09375 2.9375,-2.375 2.078125,-2.5 2.390625,-2.671875 2.71875,-2.984375 2.9375,-3.234375 3.421875,-3.765625 3.875,-4.1875 4.359375,-4.1875 c 0.0625,0 0.078125,0 0.09375,0.015625 0.125,0.015625 0.125,0.015625 0.21875,0.078125 0.015625,0 0.015625,0.015625 0.03125,0.03125 -0.46875,0.03125 -0.5625,0.421875 -0.5625,0.546875 0,0.15625 0.109375,0.34375 0.375,0.34375 0.265625,0 0.546875,-0.21875 0.546875,-0.609375 0,-0.296875 -0.234375,-0.625 -0.671875,-0.625 -0.28125,0 -0.734375,0.078125 -1.453125,0.875 -0.34375,0.375 -0.734375,0.78125 -1.109375,0.921875 z m 0,0"
             transform="translate(187.098,110.99)"
             id="path7295" />
        </g>
        <g
           style="fill:#000000;fill-opacity:0;stroke-width:1.00351"
           id="g7301">
          <path
             style="fill:#000000;fill-opacity:0;stroke:none;stroke-width:1.00351"
             d="m 2.875,-2.5 c 0,-0.765625 -0.109375,-1.96875 -0.65625,-3.109375 -0.59375,-1.21875 -1.453125,-1.875 -1.546875,-1.875 -0.0625,0 -0.109375,0.046875 -0.109375,0.109375 0,0.03125 0,0.046875 0.1875,0.234375 0.984375,0.984375 1.546875,2.5625 1.546875,4.640625 0,1.71875 -0.359375,3.46875 -1.59375,4.71875 C 0.5625,2.34375 0.5625,2.359375 0.5625,2.390625 0.5625,2.453125 0.609375,2.5 0.671875,2.5 0.765625,2.5 1.671875,1.8125 2.25,0.546875 2.765625,-0.546875 2.875,-1.65625 2.875,-2.5 Z m 0,0"
             transform="translate(192.598,110.99)"
             id="path7299" />
        </g>
      </g>
    </g>
    <path
       style="display:inline;fill:none;fill-rule:evenodd;stroke:#0044aa;stroke-width:0.432785;stroke-linecap:butt;stroke-linejoin:miter;stroke-miterlimit:3.2;stroke-dasharray:1.29835, 0.432785;stroke-dashoffset:0;stroke-opacity:1"
       d="M 62.006321,61.445758 V 45.160886 h 89.339139 v 18.317769"
       id="path7863"
       sodipodi:nodetypes="cccc" />
    <rect
       style="display:inline;fill:#ffffff;stroke:#0044aa;stroke-width:0.432785;stroke-linecap:butt;stroke-linejoin:miter;stroke-miterlimit:3.2;stroke-dasharray:1.29835, 0.432785;stroke-dashoffset:0;stroke-opacity:1"
       id="rect7865"
       width="27.203619"
       height="12.365282"
       x="99.411293"
       y="38.761848" />
    <path
       style="display:inline;fill:#0044aa;fill-opacity:1;stroke:none;stroke-width:0.163582px;stroke-linecap:butt;stroke-linejoin:miter;stroke-opacity:1"
       d="m 62.006321,62.163145 -1.236528,-1.978451 h 2.473056 z"
       id="path8139"
       sodipodi:nodetypes="cccc" />
    <path
       style="display:inline;fill:#0044aa;fill-opacity:1;stroke:none;stroke-width:0.163582px;stroke-linecap:butt;stroke-linejoin:miter;stroke-opacity:1"
       d="m 126.6149,45.160886 1.97845,-1.236528 v 2.473056 z"
       id="path8141"
       sodipodi:nodetypes="cccc"
       inkscape:transform-center-x="-1.6229395"
       inkscape:transform-center-y="0.089616257" />
    <path
       id="path7867"
       style="display:inline;fill:#0044aa;fill-opacity:1;stroke:none;stroke-width:0.261732;stroke-linecap:round;stroke-linejoin:bevel;stroke-miterlimit:4;stroke-dasharray:none;stroke-dashoffset:0;paint-order:fill markers stroke"
       d="m 149.79989,63.708805 a 1.5456599,1.5456599 0 0 1 1.54573,-1.545722 1.5456599,1.5456599 0 0 1 1.54541,1.545722 z" />
    <path
       style="fill:none;fill-rule:evenodd;stroke:#000000;stroke-width:0.494611;stroke-linecap:butt;stroke-linejoin:miter;stroke-miterlimit:3.2;stroke-dasharray:none;stroke-opacity:1"
       d="m 111.34473,63.718133 10.94232,-0.0093"
       id="path1786"
       inkscape:connector-type="polyline"
       inkscape:connector-curvature="0"
       sodipodi:nodetypes="cc" />
    <path
       style="fill:#000000;stroke:#000000;stroke-width:0.163582px;stroke-linecap:butt;stroke-linejoin:miter;stroke-opacity:1"
       d="m 122.75099,63.708805 -1.97845,-1.236528 v 2.473056 z"
       id="path6745"
       sodipodi:nodetypes="cccc"
       inkscape:transform-center-x="1.6229395"
       inkscape:transform-center-y="0.089616257" />
    <path
       style="fill:#000000;stroke:none;stroke-width:0.163582px;stroke-linecap:butt;stroke-linejoin:miter;stroke-opacity:1"
       d="m 159.02566,63.657199 -1.97845,-1.236528 v 2.473056 z"
       id="path6747"
       sodipodi:nodetypes="cccc"
       inkscape:transform-center-x="1.6229395"
       inkscape:transform-center-y="0.089616257" />
    <rect
       style="display:inline;fill:#ffffff;stroke:#000000;stroke-width:0.432785;stroke-linejoin:miter;stroke-miterlimit:3.2;stroke-dasharray:none"
       id="rect1322"
       width="21.824715"
       height="11.932495"
       x="123.12171"
       y="57.742558" />
    <path
       style="fill:#0044aa;fill-opacity:1;fill-rule:evenodd;stroke:#000000;stroke-width:0.494611;stroke-linecap:butt;stroke-linejoin:miter;stroke-miterlimit:3.2;stroke-dasharray:none;stroke-dashoffset:0;stroke-opacity:1"
       d="M 145.16282,63.708805 H 157.5281"
       id="path1784"
       inkscape:connector-curvature="0"
       inkscape:connector-type="polyline"
       sodipodi:nodetypes="cc" />
    <g
       ns1:text="$C$"
       transform="matrix(0.58952442,0,0,0.58952442,-8.3192296,0.30403791)"
       style="fill:#c83737;fill-opacity:1"
       id="g4969">
      <g
         id="surface1"
         style="fill:#c83737;fill-opacity:1">
        <g
           style="fill:#c83737;fill-opacity:1"
           id="g4966">
          <path
             style="fill:#c83737;fill-opacity:1;stroke:none"
             d="M 5.953125,-5.171875 H 6.21875 c 0.046875,-0.5625 0.125,-1 0.265625,-1.453125 -0.75,-0.296875 -1.328125,-0.40625 -1.9375,-0.40625 -0.8125,0 -1.640625,0.25 -2.328125,0.71875 -1.171875,0.78125 -1.765625,1.953125 -1.765625,3.484375 0,1.9375 1.0625,3 2.96875,3 0.953125,0 1.65625,-0.21875 2.5625,-0.84375 l 0.09375,-0.359375 -0.09375,-0.0625 c -0.9375,0.5625 -1.453125,0.75 -2.234375,0.75 -1.5625,0 -2.421875,-0.96875 -2.421875,-2.734375 0,-1.109375 0.34375,-2.09375 0.9375,-2.71875 0.46875,-0.46875 1.109375,-0.71875 1.90625,-0.71875 0.703125,0 1.21875,0.140625 1.78125,0.5 z m 0,0"
             transform="translate(178.585,110.99)"
             id="path4964" />
        </g>
      </g>
    </g>
    <g
       ns1:text="$P$"
       transform="matrix(0.58952442,0,0,0.58952442,26.980679,0.29976881)"
       id="g5138">
      <g
         id="g5136">
        <g
           style="fill:#000000;fill-opacity:1"
           id="g5134">
          <path
             style="stroke:none"
             d="m 1.046875,-6.625 0.546875,0.03125 c 0.234375,0 0.34375,0.078125 0.34375,0.265625 0,0.140625 -0.03125,0.453125 -0.078125,0.75 L 1.109375,-1.25 C 0.953125,-0.34375 0.9375,-0.3125 0.53125,-0.28125 L 0.125,-0.25 0.09375,0.03125 0.515625,0.015625 C 0.921875,0.015625 1.21875,0 1.40625,0 1.578125,0 1.859375,0.015625 2.265625,0.015625 L 2.796875,0.03125 2.828125,-0.25 2.171875,-0.28125 C 1.90625,-0.296875 1.8125,-0.375 1.8125,-0.578125 c 0,-0.09375 0.015625,-0.15625 0.046875,-0.34375 l 0.8125,-4.859375 c 0,-0.015625 0.046875,-0.203125 0.09375,-0.40625 0,-0.046875 0.03125,-0.140625 0.0625,-0.265625 0.359375,-0.0625 0.515625,-0.09375 0.703125,-0.09375 1.03125,0 1.515625,0.453125 1.515625,1.375 0,1.078125 -0.71875,1.953125 -1.59375,1.953125 -0.21875,0 -0.421875,-0.046875 -0.796875,-0.1875 l 0.03125,0.3125 C 3.046875,-2.921875 3.25,-2.875 3.53125,-2.875 c 1.296875,0 2.390625,-1.15625 2.390625,-2.515625 0,-1.015625 -0.625,-1.53125 -1.8125,-1.5 l -1.375,0.015625 -1.125,-0.015625 h -0.53125 z m 0,0"
             transform="translate(178.585,110.99)"
             id="path5132" />
        </g>
      </g>
    </g>
    <g
       ns1:text="$M^{-1}$"
       transform="matrix(0.58952442,0,0,0.58952442,2.7841934,-18.043871)"
       style="display:inline;fill:#0044aa;fill-opacity:1;stroke-width:0.786952;stroke-miterlimit:3.2;stroke-dasharray:none;stroke-dashoffset:0"
       id="g5301">
      <g
         id="g5299"
         style="fill:#0044aa;fill-opacity:1">
        <g
           style="fill:#0044aa;fill-opacity:1"
           id="g5289">
          <path
             style="fill:#0044aa;fill-opacity:1;stroke:none"
             d="M 9.34375,-6.625 9.375,-6.890625 H 9.09375 C 8.8125,-6.875 8.65625,-6.875 8.53125,-6.875 H 8.296875 l -0.59375,-0.015625 -0.15625,0.296875 c -0.265625,0.515625 -0.453125,0.859375 -0.6875,1.25 l -2.453125,4.203125 -1.5,-5.75 H 2.625 C 2.359375,-6.875 2.203125,-6.875 2.078125,-6.875 h -0.25 L 1.25,-6.890625 1.21875,-6.625 l 0.25,0.03125 C 2,-6.5625 2.171875,-6.453125 2.171875,-6.203125 c 0,0.0625 -0.015625,0.125 -0.03125,0.203125 l -1.4375,5.078125 c -0.171875,0.515625 -0.3125,0.640625 -0.859375,0.6875 L -0.1875,0.03125 0.203125,0.015625 C 0.53125,0.015625 0.78125,0 0.921875,0 c 0.140625,0 0.40625,0.015625 0.75,0.015625 L 2.03125,0.03125 2.046875,-0.25 1.671875,-0.28125 C 1.359375,-0.296875 1.1875,-0.40625 1.1875,-0.546875 c 0,-0.09375 0.015625,-0.234375 0.0625,-0.40625 l 1.25,-4.625 1.484375,5.75 h 0.21875 l 0.578125,-1.03125 c 0.765625,-1.40625 1.703125,-3.015625 2.375,-4.125 l 0.515625,-0.875 -0.359375,5.1875 C 7.265625,-0.390625 7.140625,-0.3125 6.640625,-0.28125 L 6.328125,-0.25 6.296875,0.03125 6.765625,0.015625 C 7.1875,0.015625 7.484375,0 7.640625,0 7.796875,0 8.09375,0.015625 8.5,0.015625 L 8.96875,0.03125 8.984375,-0.25 8.625,-0.28125 C 8.265625,-0.3125 8.078125,-0.421875 8.078125,-0.625 L 8.09375,-1 8.5,-6.296875 c 0.015625,-0.1875 0.171875,-0.28125 0.46875,-0.296875 z m 0,0"
             transform="translate(178.585,110.99)"
             id="path5287" />
        </g>
        <g
           style="fill:#0044aa;fill-opacity:1"
           id="g5293">
          <path
             style="fill:#0044aa;fill-opacity:1;stroke:none"
             d="M 4.203125,-1.671875 V -2.09375 h -3.75 v 0.421875 z m 0,0"
             transform="translate(187.989,107.374)"
             id="path5291" />
        </g>
        <g
           style="fill:#0044aa;fill-opacity:1"
           id="g5297">
          <path
             style="fill:#0044aa;fill-opacity:1;stroke:none"
             d="m 0.46875,-3.875 h 0.0625 L 1.4375,-4.265625 c 0,-0.015625 0.015625,-0.015625 0.015625,-0.015625 0.046875,0 0.0625,0.0625 0.0625,0.234375 v 3.375 c 0,0.359375 -0.078125,0.4375 -0.453125,0.46875 L 0.671875,-0.1875 V 0.015625 C 1.734375,0 1.734375,0 1.8125,0 1.90625,0 2.0625,0 2.296875,0 2.390625,0.015625 2.625,0.015625 2.90625,0.015625 V -0.1875 L 2.546875,-0.203125 C 2.171875,-0.234375 2.09375,-0.3125 2.09375,-0.671875 v -4.125 L 2,-4.84375 c -0.453125,0.25 -0.953125,0.453125 -1.578125,0.671875 z m 0,0"
             transform="translate(192.655,107.374)"
             id="path5295" />
        </g>
      </g>
    </g>
    <g
       ns1:text="$\tilde{\bm{r}}$"
       transform="matrix(0.43957611,0,0,0.42312475,-21.497457,14.910916)"
       style="display:inline;fill:#0044aa;fill-opacity:1;stroke-width:1.00351;stroke-miterlimit:3.2;stroke-dasharray:none;stroke-dashoffset:0"
       id="g11631">
      <g
         id="g11629"
         style="fill:#0044aa;fill-opacity:1">
        <g
           style="fill:#0044aa;fill-opacity:1"
           id="g11623">
          <path
             style="fill:#0044aa;fill-opacity:1;stroke:none"
             d="M 3.015625,-6.375 C 2.875,-6.015625 2.71875,-5.875 2.4375,-5.875 2.3125,-5.875 2.203125,-5.921875 1.96875,-6.03125 1.4375,-6.296875 1.3125,-6.328125 1.078125,-6.328125 c -0.546875,0 -0.921875,0.34375 -1.0625,1 H 0.3125 c 0.125,-0.3125 0.28125,-0.453125 0.53125,-0.453125 0.140625,0 0.328125,0.0625 0.703125,0.265625 0.296875,0.125 0.453125,0.1875 0.671875,0.1875 0.578125,0 1.046875,-0.46875 1.09375,-1.046875 z m 0,0"
             transform="translate(180.355,110.99)"
             id="path11621" />
        </g>
        <g
           style="fill:#0044aa;fill-opacity:1"
           id="g11627">
          <path
             style="fill:#0044aa;fill-opacity:1;stroke:none"
             d="M 4.421875,-4 C 3.875,-3.890625 3.8125,-3.40625 3.8125,-3.3125 c 0,0.21875 0.171875,0.46875 0.5,0.46875 0.34375,0 0.71875,-0.28125 0.71875,-0.796875 C 5.03125,-4.09375 4.671875,-4.5 4.0625,-4.5 3.5,-4.5 3.03125,-4.234375 2.734375,-3.90625 2.5,-4.359375 1.921875,-4.5 1.5625,-4.5 c -0.359375,0 -0.640625,0.203125 -0.859375,0.5625 -0.25,0.390625 -0.390625,0.921875 -0.390625,0.984375 0,0.140625 0.15625,0.140625 0.25,0.140625 0.109375,0 0.140625,0 0.1875,-0.046875 C 0.78125,-2.875 0.78125,-2.90625 0.84375,-3.15625 c 0.1875,-0.75 0.40625,-0.984375 0.671875,-0.984375 0.15625,0 0.234375,0.09375 0.234375,0.359375 0,0.171875 -0.03125,0.28125 -0.140625,0.75 -0.046875,0.171875 -0.21875,0.828125 -0.28125,1.078125 -0.046875,0.1875 -0.15625,0.640625 -0.203125,0.8125 -0.0625,0.265625 -0.171875,0.71875 -0.171875,0.78125 0,0.203125 0.15625,0.4375 0.46875,0.4375 0.1875,0 0.546875,-0.125 0.65625,-0.53125 0,-0.03125 0.6875,-2.734375 0.6875,-2.796875 C 2.8125,-3.40625 2.8125,-3.421875 2.9375,-3.5625 c 0.234375,-0.296875 0.59375,-0.578125 1.09375,-0.578125 0.25,0 0.359375,0.109375 0.390625,0.140625 z m 0,0"
             transform="translate(178.584,110.99)"
             id="path11625" />
        </g>
      </g>
    </g>
    <g
       ns1:text="$\tilde{\bm{e}}$"
       transform="matrix(0.43957611,0,0,0.42312475,0.51141306,14.910916)"
       style="display:inline;fill:#0044aa;fill-opacity:1;stroke-width:1.00351;stroke-miterlimit:3.2;stroke-dasharray:none;stroke-dashoffset:0"
       id="g11786">
      <g
         id="g11784"
         style="fill:#0044aa;fill-opacity:1">
        <g
           style="fill:#0044aa;fill-opacity:1"
           id="g11778">
          <path
             style="fill:#0044aa;fill-opacity:1;stroke:none"
             d="M 3.015625,-6.375 C 2.875,-6.015625 2.71875,-5.875 2.4375,-5.875 2.3125,-5.875 2.203125,-5.921875 1.96875,-6.03125 1.4375,-6.296875 1.3125,-6.328125 1.078125,-6.328125 c -0.546875,0 -0.921875,0.34375 -1.0625,1 H 0.3125 c 0.125,-0.3125 0.28125,-0.453125 0.53125,-0.453125 0.140625,0 0.328125,0.0625 0.703125,0.265625 0.296875,0.125 0.453125,0.1875 0.671875,0.1875 0.578125,0 1.046875,-0.46875 1.09375,-1.046875 z m 0,0"
             transform="translate(180.32,110.99)"
             id="path11776" />
        </g>
        <g
           style="fill:#0044aa;fill-opacity:1"
           id="g11782">
          <path
             style="fill:#0044aa;fill-opacity:1;stroke:none"
             d="m 2.21875,-2.171875 c 0.65625,0 1.3125,-0.0625 1.734375,-0.203125 C 4.796875,-2.65625 4.9375,-3.234375 4.9375,-3.546875 4.9375,-4.125 4.390625,-4.5 3.5625,-4.5 c -1.796875,0 -3.078125,1.234375 -3.078125,2.78125 0,1.15625 0.765625,1.796875 2.09375,1.796875 0.25,0 0.9375,-0.015625 1.53125,-0.234375 0.578125,-0.234375 0.984375,-0.640625 0.984375,-0.765625 0,-0.078125 -0.15625,-0.25 -0.25,-0.25 -0.0625,0 -0.078125,0.03125 -0.15625,0.109375 C 4.15625,-0.5 3.375,-0.28125 2.609375,-0.28125 1.890625,-0.28125 1.625,-0.671875 1.625,-1.25 c 0,-0.1875 0.046875,-0.515625 0.15625,-0.921875 z M 1.859375,-2.53125 c 0.1875,-0.734375 0.421875,-1 0.59375,-1.15625 0.34375,-0.34375 0.8125,-0.453125 1.109375,-0.453125 0.359375,0 0.78125,0.15625 0.78125,0.609375 0,1 -1.515625,1 -2.484375,1 z m 0,0"
             transform="translate(178.585,110.99)"
             id="path11780" />
        </g>
      </g>
    </g>
    <g
       ns1:text="$\tilde{\bm{u}}$"
       transform="matrix(0.43957611,0,0,0.42312475,36.200205,14.910916)"
       style="display:inline;fill:#0044aa;fill-opacity:1;stroke-width:1.00351;stroke-miterlimit:3.2;stroke-dasharray:none;stroke-dashoffset:0"
       id="g11935">
      <g
         id="g11933">
        <g
           style="fill:#000000;fill-opacity:1"
           id="g11927">
          <path
             style="stroke:none"
             d="M 3.015625,-6.375 C 2.875,-6.015625 2.71875,-5.875 2.4375,-5.875 2.3125,-5.875 2.203125,-5.921875 1.96875,-6.03125 1.4375,-6.296875 1.3125,-6.328125 1.078125,-6.328125 c -0.546875,0 -0.921875,0.34375 -1.0625,1 H 0.3125 c 0.125,-0.3125 0.28125,-0.453125 0.53125,-0.453125 0.140625,0 0.328125,0.0625 0.703125,0.265625 0.296875,0.125 0.453125,0.1875 0.671875,0.1875 0.578125,0 1.046875,-0.46875 1.09375,-1.046875 z m 0,0"
             transform="translate(180.636,110.99)"
             id="path11925" />
        </g>
        <g
           style="fill:#000000;fill-opacity:1"
           id="g11931">
          <path
             style="stroke:none"
             d="m 5.609375,-3.15625 c 0.078125,-0.28125 0.1875,-0.765625 0.1875,-0.828125 0,-0.21875 -0.15625,-0.4375 -0.46875,-0.4375 -0.15625,0 -0.515625,0.078125 -0.65625,0.53125 -0.03125,0.125 -0.484375,1.9375 -0.5625,2.265625 -0.0625,0.234375 -0.125,0.515625 -0.15625,0.703125 C 3.78125,-0.6875 3.390625,-0.28125 2.875,-0.28125 c -0.578125,0 -0.59375,-0.5 -0.59375,-0.71875 0,-0.609375 0.3125,-1.390625 0.59375,-2.109375 C 2.96875,-3.375 3,-3.4375 3,-3.609375 3,-4.1875 2.421875,-4.5 1.875,-4.5 c -1.0625,0 -1.5625,1.34375 -1.5625,1.546875 0,0.140625 0.15625,0.140625 0.25,0.140625 0.109375,0 0.1875,0 0.21875,-0.125 0.328125,-1.109375 0.875,-1.203125 1.03125,-1.203125 0.078125,0 0.171875,0 0.171875,0.203125 0,0.234375 -0.125,0.515625 -0.15625,0.625 -0.421875,1.046875 -0.609375,1.609375 -0.609375,2.09375 0,1.140625 1,1.296875 1.578125,1.296875 0.296875,0 0.734375,-0.03125 1.265625,-0.546875 0.328125,0.484375 0.90625,0.546875 1.140625,0.546875 0.375,0 0.65625,-0.203125 0.875,-0.5625 0.234375,-0.40625 0.375,-0.9375 0.375,-0.984375 0,-0.140625 -0.15625,-0.140625 -0.25,-0.140625 -0.109375,0 -0.140625,0 -0.1875,0.046875 -0.03125,0.015625 -0.03125,0.03125 -0.078125,0.28125 -0.203125,0.78125 -0.421875,1 -0.6875,1 -0.140625,0 -0.21875,-0.09375 -0.21875,-0.359375 0,-0.171875 0.03125,-0.34375 0.125,-0.734375 0.078125,-0.28125 0.171875,-0.671875 0.234375,-0.890625 z m 0,0"
             transform="translate(178.585,110.99)"
             id="path11929" />
        </g>
      </g>
    </g>
    <g
       ns1:text="$\tilde{\bm{y}}$"
       transform="matrix(0.43957611,0,0,0.42312475,76.501145,14.091112)"
       style="display:inline;fill:#0044aa;fill-opacity:1;stroke-width:1.00351;stroke-miterlimit:3.2;stroke-dasharray:none;stroke-dashoffset:0"
       id="g12078">
      <g
         id="g12076">
        <g
           style="fill:#000000;fill-opacity:1"
           id="g12070">
          <path
             style="stroke:none"
             d="M 3.015625,-6.375 C 2.875,-6.015625 2.71875,-5.875 2.4375,-5.875 2.3125,-5.875 2.203125,-5.921875 1.96875,-6.03125 1.4375,-6.296875 1.3125,-6.328125 1.078125,-6.328125 c -0.546875,0 -0.921875,0.34375 -1.0625,1 H 0.3125 c 0.125,-0.3125 0.28125,-0.453125 0.53125,-0.453125 0.140625,0 0.328125,0.0625 0.703125,0.265625 0.296875,0.125 0.453125,0.1875 0.671875,0.1875 0.578125,0 1.046875,-0.46875 1.09375,-1.046875 z m 0,0"
             transform="translate(180.687,110.99)"
             id="path12068" />
        </g>
        <g
           style="fill:#000000;fill-opacity:1"
           id="g12074">
          <path
             style="stroke:none"
             d="m 5.75,-3.765625 c 0.046875,-0.171875 0.046875,-0.1875 0.046875,-0.21875 0,-0.21875 -0.15625,-0.4375 -0.46875,-0.4375 -0.515625,0 -0.640625,0.46875 -0.703125,0.734375 L 4.359375,-2.65625 C 4.25,-2.171875 4.0625,-1.40625 3.953125,-1 3.890625,-0.78125 3.59375,-0.53125 3.5625,-0.515625 3.453125,-0.453125 3.203125,-0.28125 2.875,-0.28125 c -0.578125,0 -0.59375,-0.5 -0.59375,-0.71875 0,-0.609375 0.3125,-1.390625 0.59375,-2.109375 C 2.96875,-3.375 3,-3.4375 3,-3.609375 3,-4.1875 2.421875,-4.5 1.875,-4.5 c -1.0625,0 -1.5625,1.34375 -1.5625,1.546875 0,0.140625 0.15625,0.140625 0.25,0.140625 0.109375,0 0.1875,0 0.21875,-0.125 0.328125,-1.109375 0.890625,-1.203125 1.03125,-1.203125 0.078125,0 0.171875,0 0.171875,0.203125 0,0.234375 -0.109375,0.484375 -0.171875,0.640625 -0.390625,1 -0.59375,1.578125 -0.59375,2.078125 0,1.140625 1,1.296875 1.578125,1.296875 0.25,0 0.59375,-0.03125 0.96875,-0.296875 C 3.484375,1 2.734375,1.65625 2.046875,1.65625 1.90625,1.65625 1.640625,1.640625 1.4375,1.515625 1.75,1.390625 1.90625,1.109375 1.90625,0.84375 1.90625,0.484375 1.625,0.390625 1.421875,0.390625 c -0.359375,0 -0.71875,0.3125 -0.71875,0.75 0,0.515625 0.53125,0.875 1.34375,0.875 1.140625,0 2.453125,-0.765625 2.765625,-2 z m 0,0"
             transform="translate(178.585,110.99)"
             id="path12072" />
        </g>
      </g>
    </g>
  </g>
</svg>
