<?xml version="1.0" encoding="UTF-8" standalone="no"?>
<svg
   xmlns:ns1="http://wanglongqi.github.io/WriteTeX"
   xmlns:dc="http://purl.org/dc/elements/1.1/"
   xmlns:cc="http://creativecommons.org/ns#"
   xmlns:rdf="http://www.w3.org/1999/02/22-rdf-syntax-ns#"
   xmlns:svg="http://www.w3.org/2000/svg"
   xmlns="http://www.w3.org/2000/svg"
   xmlns:sodipodi="http://sodipodi.sourceforge.net/DTD/sodipodi-0.dtd"
   xmlns:inkscape="http://www.inkscape.org/namespaces/inkscape"
   sodipodi:docname="JVR_JRM_plot.svg"
   id="svg8"
   version="1.1"
   viewBox="0 0 210 297"
   height="297mm"
   width="210mm"
   inkscape:version="1.0.2 (e86c870879, 2021-01-15, custom)">
  <defs
     id="defs2">
    <marker
       style="overflow:visible;"
       id="Arrow2Lend"
       refX="0.0"
       refY="0.0"
       orient="auto"
       inkscape:stockid="Arrow2Lend"
       inkscape:isstock="true">
      <path
         transform="scale(1.1) rotate(180) translate(1,0)"
         d="M 8.7185878,4.0337352 L -2.2072895,0.016013256 L 8.7185884,-4.0017078 C 6.9730900,-1.6296469 6.9831476,1.6157441 8.7185878,4.0337352 z "
         style="fill-rule:evenodd;stroke-width:0.625;stroke-linejoin:round;stroke:#000000;stroke-opacity:1;fill:#000000;fill-opacity:1"
         id="path1048" />
    </marker>
    <marker
       style="overflow:visible;"
       id="Arrow1Lend"
       refX="0.0"
       refY="0.0"
       orient="auto"
       inkscape:stockid="Arrow1Lend"
       inkscape:isstock="true">
      <path
         transform="scale(0.8) rotate(180) translate(12.5,0)"
         style="fill-rule:evenodd;stroke:#000000;stroke-width:1pt;stroke-opacity:1;fill:#000000;fill-opacity:1"
         d="M 0.0,0.0 L 5.0,-5.0 L -12.5,0.0 L 5.0,5.0 L 0.0,0.0 z "
         id="path1030" />
    </marker>
    <clipPath
       clipPathUnits="userSpaceOnUse"
       id="clipPath885">
      <rect
         style="fill:#000000;stroke:#000000;stroke-width:0.549722;stroke-miterlimit:4;stroke-dasharray:none"
         id="rect887"
         width="131.05855"
         height="66.662453"
         x="39.194393"
         y="59.127155" />
    </clipPath>
    <clipPath
       clipPathUnits="userSpaceOnUse"
       id="clipPath1849">
      <rect
         style="fill:#000000;fill-opacity:1;stroke:none;stroke-width:0.999998;stroke-miterlimit:4;stroke-dasharray:none;stroke-dashoffset:0"
         id="rect1851"
         width="128.73051"
         height="85.375069"
         x="39.587742"
         y="36.153069" />
    </clipPath>
  </defs>
  <sodipodi:namedview
     id="base"
     pagecolor="#ffffff"
     bordercolor="#666666"
     borderopacity="1.0"
     inkscape:pageopacity="0.0"
     inkscape:pageshadow="2"
     inkscape:zoom="3.8592274"
     inkscape:cx="386.49091"
     inkscape:cy="189.07233"
     inkscape:document-units="mm"
     inkscape:current-layer="g3474"
     inkscape:document-rotation="0"
     showgrid="false"
     inkscape:window-width="1920"
     inkscape:window-height="1062"
     inkscape:window-x="0"
     inkscape:window-y="18"
     inkscape:window-maximized="1"
     inkscape:snap-global="true"
     inkscape:snap-midpoints="true"
     inkscape:object-paths="false"
     inkscape:snap-bbox="true"
     inkscape:snap-bbox-edge-midpoints="true" />
  <metadata
     id="metadata5">
    <rdf:RDF>
      <cc:Work
         rdf:about="">
        <dc:format>image/svg+xml</dc:format>
        <dc:type
           rdf:resource="http://purl.org/dc/dcmitype/StillImage" />
        <dc:title></dc:title>
      </cc:Work>
    </rdf:RDF>
  </metadata>
  <g
     inkscape:label="Layer 1"
     inkscape:groupmode="layer"
     id="layer1">
    <g
       id="g2042"
       transform="matrix(0.53812751,0,0,0.53812751,73.966789,4.0514104)">
      <g
         id="g3218">
        <g
           id="g3305">
          <g
             id="g3474"
             transform="translate(-51.043596,5.1332489)">
            <path
               style="fill:none;stroke:#000000;stroke-width:0.705556;stroke-linecap:butt;stroke-linejoin:miter;stroke-miterlimit:4;stroke-dasharray:none;stroke-opacity:1"
               d="M 36.597471,121.84532 H 168.70995"
               id="path847" />
            <path
               style="fill:none;stroke:#000000;stroke-width:0.705556;stroke-linecap:butt;stroke-linejoin:miter;stroke-miterlimit:4;stroke-dasharray:none;stroke-opacity:1"
               d="M 39.243466,125.74054 V 31.855068"
               id="path849" />
            <ellipse
               style="fill:none;stroke:#ff0000;stroke-width:1.30081;stroke-linecap:round;stroke-linejoin:miter;stroke-miterlimit:2.75;stroke-dasharray:5.20324, 5.20324;stroke-dashoffset:0"
               id="path869"
               cx="103.34208"
               cy="67.072815"
               rx="69.796486"
               ry="54.213688"
               clip-path="url(#clipPath885)"
               transform="translate(0.52916667,0.52916667)" />
            <path
               style="fill:none;stroke:#0000ff;stroke-width:1.30081;stroke-linecap:round;stroke-linejoin:miter;stroke-miterlimit:2.75;stroke-dasharray:none;stroke-opacity:1"
               d="m 39.631029,44.117038 c 15.558917,-8.868631 16.052482,-2.186877 16.487108,2.305909 1.42695,14.750555 3.853703,29.272401 11.083297,22.536849 25.255808,-23.529924 19.196434,52.712244 34.729446,52.712244 11.62922,0 11.60276,-36.595058 36.49346,-39.7941 6.73207,-0.86523 17.01322,9.811305 20.57015,-9.365293 3.53537,-19.060326 10.60908,-36.818443 10.60908,-36.818443"
               id="path891"
               sodipodi:nodetypes="csssssc" />
            <path
               style="fill:none;stroke:#000000;stroke-width:1;stroke-linecap:butt;stroke-linejoin:miter;stroke-miterlimit:4;stroke-dasharray:none;stroke-opacity:1"
               d="m 102.04493,119.51552 v 4.59785"
               id="path1335" />
            <path
               id="path1812"
               style="fill:#000000;stroke:none;stroke-width:0.264582px;stroke-linecap:butt;stroke-linejoin:miter;stroke-opacity:1"
               d="M 39.243467,27.9357 36.9472,31.855068 h 2.296267 2.296266 z" />
            <path
               id="path1817"
               style="fill:#000000;stroke:none;stroke-width:0.264582px;stroke-linecap:butt;stroke-linejoin:miter;stroke-opacity:1"
               d="m 172.62931,121.84532 -3.91936,-2.29627 v 2.29627 2.29627 z" />
            <g
               ns1:text="$0$"
               transform="matrix(0.7,0,0,0.7,-93.247968,46.487476)"
               id="g1985">
              <g
                 id="g1983">
                <g
                   style="fill:#000000;fill-opacity:1"
                   id="g1981">
                  <path
                     style="stroke:none"
                     d="m 2.625,-6.875 c -1.546875,0 -2.328125,1.234375 -2.328125,3.640625 C 0.296875,-2.0625 0.5,-1.0625 0.84375,-0.5625 1.203125,-0.078125 1.75,0.203125 2.375,0.203125 c 1.5,0 2.265625,-1.296875 2.265625,-3.859375 0,-2.171875 -0.65625,-3.21875 -2.015625,-3.21875 z m -0.1875,0.359375 c 0.96875,0 1.359375,0.96875 1.359375,3.359375 0,2.125 -0.375,3 -1.296875,3 -0.96875,0 -1.375,-1 -1.375,-3.4375 0,-2.09375 0.375,-2.921875 1.3125,-2.921875 z m 0,0"
                     transform="translate(178.585,110.99)"
                     id="path1979" />
                </g>
              </g>
            </g>
            <g
               ns1:text="$J_{VR}(\bm{\theta})$"
               transform="matrix(0.83912372,0,0,0.83912372,-98.453169,4.9077343)"
               id="g2595"
               style="fill:#ff0000;fill-opacity:1">
              <g
                 id="g2593"
                 style="fill:#ff0000;fill-opacity:1">
                <g
                   style="fill:#ff0000;fill-opacity:1"
                   id="g2571">
                  <path
                     style="fill:#ff0000;fill-opacity:1;stroke:none"
                     d="M 3.53125,-6.625 3.5625,-6.890625 H 3.328125 L 2.4375,-6.875 c -0.171875,0 -0.34375,0 -0.765625,0 L 1.03125,-6.890625 1,-6.625 1.46875,-6.59375 c 0.234375,0 0.34375,0.078125 0.34375,0.265625 0,0.046875 0,0.078125 -0.015625,0.125 l -0.9375,6.40625 c -0.15625,1.03125 -0.453125,1.53125 -0.921875,1.53125 -0.109375,0 -0.203125,-0.015625 -0.28125,-0.046875 l 0.03125,0.265625 c 0.109375,0.078125 0.21875,0.09375 0.34375,0.09375 0.53125,0 1.0625,-0.46875 1.390625,-1.265625 0.15625,-0.375 0.25,-0.703125 0.34375,-1.3125 l 0.84375,-5.578125 c 0.0625,-0.375 0.125,-0.453125 0.515625,-0.484375 z m 0,0"
                     transform="translate(179.083,110.99)"
                     id="path2569" />
                </g>
                <g
                   style="fill:#ff0000;fill-opacity:1"
                   id="g2575">
                  <path
                     style="fill:#ff0000;fill-opacity:1;stroke:none"
                     d="M 2.15625,-0.671875 1.671875,-4.34375 1.65625,-4.390625 C 1.640625,-4.53125 1.75,-4.609375 1.953125,-4.609375 L 2.25,-4.625 V -4.828125 L 1.96875,-4.8125 c -0.265625,0 -0.453125,0.015625 -0.578125,0.015625 -0.125,0 -0.328125,-0.015625 -0.578125,-0.015625 L 0.515625,-4.828125 V -4.625 l 0.1875,0.015625 C 1,-4.59375 1.0625,-4.53125 1.109375,-4.28125 L 1.71875,0.0625 H 2.0625 L 4.703125,-4.265625 C 4.875,-4.53125 4.921875,-4.578125 5.125,-4.609375 L 5.25,-4.625 V -4.828125 L 5.046875,-4.8125 c -0.1875,0 -0.34375,0.015625 -0.46875,0.015625 -0.0625,0 -0.25,-0.015625 -0.53125,-0.015625 L 3.71875,-4.828125 V -4.625 l 0.1875,0.015625 c 0.265625,0.015625 0.390625,0.09375 0.390625,0.21875 0,0.078125 -0.03125,0.15625 -0.109375,0.296875 z m 0,0"
                     transform="translate(182.4,112.485)"
                     id="path2573" />
                </g>
                <g
                   style="fill:#ff0000;fill-opacity:1"
                   id="g2579">
                  <path
                     style="fill:#ff0000;fill-opacity:1;stroke:none"
                     d="M 0.734375,-4.625 1.125,-4.609375 c 0.171875,0 0.234375,0.0625 0.234375,0.1875 0,0.09375 -0.015625,0.3125 -0.0625,0.53125 L 0.78125,-0.875 C 0.671875,-0.234375 0.65625,-0.21875 0.375,-0.1875 L 0.09375,-0.171875 0.0625,0.015625 H 0.359375 C 0.6875,0 0.8125,0 0.984375,0 L 1.65625,0.015625 h 0.1875 l 0.015625,-0.1875 -0.34375,-0.015625 c -0.1875,-0.015625 -0.25,-0.078125 -0.25,-0.21875 0,-0.0625 0.015625,-0.125 0.03125,-0.234375 l 0.59375,-3.40625 c 0,-0.015625 0.03125,-0.140625 0.0625,-0.28125 C 1.96875,-4.375 1.984375,-4.421875 2,-4.515625 c 0.203125,-0.046875 0.34375,-0.0625 0.53125,-0.0625 0.609375,0 0.921875,0.28125 0.921875,0.796875 0,0.65625 -0.546875,1.140625 -1.265625,1.140625 H 1.875 L 1.859375,-2.5625 c 0.9375,1.359375 1.15625,1.703125 1.671875,2.578125 L 4,0 h 0.125 c 0,0 0.109375,0 0.234375,0.015625 h 0.09375 v -0.1875 c -0.28125,-0.03125 -0.359375,-0.09375 -0.5625,-0.375 L 2.609375,-2.46875 C 3,-2.53125 3.203125,-2.625 3.453125,-2.796875 3.859375,-3.09375 4.0625,-3.484375 4.0625,-3.90625 4.0625,-4.5 3.625,-4.84375 2.84375,-4.828125 l -1.03125,0.03125 c -0.109375,0 -0.234375,0 -1.0625,-0.03125 z m 0,0"
                     transform="translate(187.65824,112.485)"
                     id="path2577" />
                </g>
                <g
                   style="fill:#ff0000;fill-opacity:1"
                   id="g2583">
                  <path
                     style="fill:#ff0000;fill-opacity:1;stroke:none"
                     d="M 3,1.9375 C 2.28125,1.046875 2.03125,0.5625 1.765625,-0.328125 1.5625,-1.046875 1.453125,-1.796875 1.453125,-2.65625 1.453125,-3.484375 1.5625,-4.1875 1.75,-4.828125 2,-5.65625 2.265625,-6.125 3,-6.984375 l -0.1875,-0.25 c -1.03125,0.921875 -1.453125,1.46875 -1.828125,2.453125 -0.25,0.671875 -0.390625,1.375 -0.390625,2.125 0,1.078125 0.25,2.078125 0.734375,2.96875 C 1.671875,0.984375 2,1.375 2.8125,2.140625 Z m 0,0"
                     transform="translate(192.808,110.99)"
                     id="path2581" />
                </g>
                <g
                   style="fill:#ff0000;fill-opacity:1"
                   id="g2587">
                  <path
                     style="fill:#ff0000;fill-opacity:1;stroke:none"
                     d="M 5.453125,-4.890625 C 5.453125,-6.640625 4.421875,-7 3.8125,-7 c -0.796875,0 -1.78125,0.515625 -2.53125,1.875 -0.515625,0.9375 -0.828125,2.296875 -0.828125,3.09375 0,1.453125 0.765625,2.109375 1.65625,2.109375 0.671875,0 1.546875,-0.390625 2.234375,-1.40625 0.84375,-1.21875 1.109375,-2.8125 1.109375,-3.5625 z m -3.484375,1.1875 c 0.140625,-0.578125 0.40625,-1.484375 0.703125,-2 0.234375,-0.40625 0.640625,-0.9375 1.109375,-0.9375 0.421875,0 0.609375,0.4375 0.609375,1.03125 0,0.625 -0.21875,1.5 -0.328125,1.90625 z M 3.9375,-3.21875 c -0.625,2.671875 -1.453125,2.9375 -1.796875,2.9375 C 2,-0.28125 1.78125,-0.3125 1.640625,-0.625 1.53125,-0.890625 1.53125,-1.28125 1.53125,-1.296875 c 0,-0.5625 0.21875,-1.5 0.328125,-1.921875 z m 0,0"
                     transform="translate(196.126,110.99)"
                     id="path2585" />
                </g>
                <g
                   style="fill:#ff0000;fill-opacity:1"
                   id="g2591">
                  <path
                     style="fill:#ff0000;fill-opacity:1;stroke:none"
                     d="m 0.515625,2.140625 c 0.6875,-0.640625 0.96875,-0.96875 1.28125,-1.46875 0.609375,-0.96875 0.921875,-2.125 0.921875,-3.3125 0,-0.765625 -0.125,-1.46875 -0.390625,-2.140625 -0.375,-0.96875 -0.78125,-1.515625 -1.8125,-2.453125 l -0.203125,0.25 c 0.734375,0.859375 1,1.328125 1.25,2.15625 0.203125,0.640625 0.296875,1.34375 0.296875,2.171875 0,0.859375 -0.09375,1.609375 -0.296875,2.328125 -0.265625,0.890625 -0.53125,1.375 -1.25,2.265625 z m 0,0"
                     transform="translate(202.041,110.99)"
                     id="path2589" />
                </g>
              </g>
            </g>
            <g
               ns1:text="$\bm{\theta}$"
               transform="matrix(1.0188036,0,0,1.0188036,-10.904993,17.495619)"
               id="g2773">
              <g
                 id="g2771">
                <g
                   style="fill:#000000;fill-opacity:1"
                   id="g2769">
                  <path
                     style="stroke:none"
                     d="M 5.453125,-4.890625 C 5.453125,-6.640625 4.421875,-7 3.8125,-7 c -0.796875,0 -1.78125,0.515625 -2.53125,1.875 -0.515625,0.9375 -0.828125,2.296875 -0.828125,3.09375 0,1.453125 0.765625,2.109375 1.65625,2.109375 0.671875,0 1.546875,-0.390625 2.234375,-1.40625 0.84375,-1.21875 1.109375,-2.8125 1.109375,-3.5625 z m -3.484375,1.1875 c 0.140625,-0.578125 0.40625,-1.484375 0.703125,-2 0.234375,-0.40625 0.640625,-0.9375 1.109375,-0.9375 0.421875,0 0.609375,0.4375 0.609375,1.03125 0,0.625 -0.21875,1.5 -0.328125,1.90625 z M 3.9375,-3.21875 c -0.625,2.671875 -1.453125,2.9375 -1.796875,2.9375 C 2,-0.28125 1.78125,-0.3125 1.640625,-0.625 1.53125,-0.890625 1.53125,-1.28125 1.53125,-1.296875 c 0,-0.5625 0.21875,-1.5 0.328125,-1.921875 z m 0,0"
                     transform="translate(178.585,110.99)"
                     id="path2767" />
                </g>
              </g>
            </g>
            <g
               ns1:text="$\bm{\theta}_0$"
               transform="matrix(0.98688285,0,0,0.98688285,-77.724134,24.253146)"
               id="g2963">
              <g
                 id="g2961">
                <g
                   style="fill:#000000;fill-opacity:1"
                   id="g2955">
                  <path
                     style="stroke:none"
                     d="M 5.453125,-4.890625 C 5.453125,-6.640625 4.421875,-7 3.8125,-7 c -0.796875,0 -1.78125,0.515625 -2.53125,1.875 -0.515625,0.9375 -0.828125,2.296875 -0.828125,3.09375 0,1.453125 0.765625,2.109375 1.65625,2.109375 0.671875,0 1.546875,-0.390625 2.234375,-1.40625 0.84375,-1.21875 1.109375,-2.8125 1.109375,-3.5625 z m -3.484375,1.1875 c 0.140625,-0.578125 0.40625,-1.484375 0.703125,-2 0.234375,-0.40625 0.640625,-0.9375 1.109375,-0.9375 0.421875,0 0.609375,0.4375 0.609375,1.03125 0,0.625 -0.21875,1.5 -0.328125,1.90625 z M 3.9375,-3.21875 c -0.625,2.671875 -1.453125,2.9375 -1.796875,2.9375 C 2,-0.28125 1.78125,-0.3125 1.640625,-0.625 1.53125,-0.890625 1.53125,-1.28125 1.53125,-1.296875 c 0,-0.5625 0.21875,-1.5 0.328125,-1.921875 z m 0,0"
                     transform="translate(178.585,110.99)"
                     id="path2953" />
                </g>
                <g
                   style="fill:#000000;fill-opacity:1"
                   id="g2959">
                  <path
                     style="stroke:none"
                     d="m 1.828125,-4.796875 c -1.078125,0 -1.625,0.859375 -1.625,2.53125 0,0.828125 0.140625,1.53125 0.390625,1.875 0.25,0.328125 0.625,0.53125 1.0625,0.53125 1.046875,0 1.578125,-0.90625 1.578125,-2.6875 0,-1.53125 -0.453125,-2.25 -1.40625,-2.25 z m -0.125,0.234375 c 0.6875,0 0.953125,0.6875 0.953125,2.359375 0,1.484375 -0.265625,2.09375 -0.90625,2.09375 -0.671875,0 -0.96875,-0.703125 -0.96875,-2.40625 0,-1.46875 0.265625,-2.046875 0.921875,-2.046875 z m 0,0"
                     transform="translate(184.182,112.485)"
                     id="path2957" />
                </g>
              </g>
            </g>
            <g
               ns1:text="$J$"
               transform="matrix(0.8801997,0,0,0.8801997,-126.68197,-66.429697)"
               id="g3060">
              <g
                 id="g3058">
                <g
                   style="fill:#000000;fill-opacity:1"
                   id="g3056">
                  <path
                     style="stroke:none"
                     d="M 3.53125,-6.625 3.5625,-6.890625 H 3.328125 L 2.4375,-6.875 c -0.171875,0 -0.34375,0 -0.765625,0 L 1.03125,-6.890625 1,-6.625 1.46875,-6.59375 c 0.234375,0 0.34375,0.078125 0.34375,0.265625 0,0.046875 0,0.078125 -0.015625,0.125 l -0.9375,6.40625 c -0.15625,1.03125 -0.453125,1.53125 -0.921875,1.53125 -0.109375,0 -0.203125,-0.015625 -0.28125,-0.046875 l 0.03125,0.265625 c 0.109375,0.078125 0.21875,0.09375 0.34375,0.09375 0.53125,0 1.0625,-0.46875 1.390625,-1.265625 0.15625,-0.375 0.25,-0.703125 0.34375,-1.3125 l 0.84375,-5.578125 c 0.0625,-0.375 0.125,-0.453125 0.515625,-0.484375 z m 0,0"
                     transform="translate(179.083,110.99)"
                     id="path3054" />
                </g>
              </g>
            </g>
            <g
               ns1:text="$J_{RM}(\bm{\theta})$"
               transform="matrix(0.83912372,0,0,0.83912372,-23.985373,-17.467478)"
               style="fill:#0000ff;fill-opacity:1"
               id="g6334">
              <g
                 id="surface1"
                 style="fill:#0000ff;fill-opacity:1">
                <g
                   style="fill:#0000ff;fill-opacity:1"
                   id="g6313">
                  <path
                     style="stroke:none;fill:#0000ff;fill-opacity:1"
                     d="M 3.53125,-6.625 3.5625,-6.890625 H 3.328125 L 2.4375,-6.875 c -0.171875,0 -0.34375,0 -0.765625,0 L 1.03125,-6.890625 1,-6.625 1.46875,-6.59375 c 0.234375,0 0.34375,0.078125 0.34375,0.265625 0,0.046875 0,0.078125 -0.015625,0.125 l -0.9375,6.40625 c -0.15625,1.03125 -0.453125,1.53125 -0.921875,1.53125 -0.109375,0 -0.203125,-0.015625 -0.28125,-0.046875 l 0.03125,0.265625 c 0.109375,0.078125 0.21875,0.09375 0.34375,0.09375 0.53125,0 1.0625,-0.46875 1.390625,-1.265625 0.15625,-0.375 0.25,-0.703125 0.34375,-1.3125 l 0.84375,-5.578125 c 0.0625,-0.375 0.125,-0.453125 0.515625,-0.484375 z m 0,0"
                     transform="translate(179.083,110.99)"
                     id="path6311" />
                </g>
                <g
                   style="fill:#0000ff;fill-opacity:1"
                   id="g6319">
                  <path
                     style="stroke:none;fill:#0000ff;fill-opacity:1"
                     d="M 0.734375,-4.625 1.125,-4.609375 c 0.171875,0 0.234375,0.0625 0.234375,0.1875 0,0.09375 -0.015625,0.3125 -0.0625,0.53125 L 0.78125,-0.875 C 0.671875,-0.234375 0.65625,-0.21875 0.375,-0.1875 L 0.09375,-0.171875 0.0625,0.015625 H 0.359375 C 0.6875,0 0.8125,0 0.984375,0 L 1.65625,0.015625 h 0.1875 l 0.015625,-0.1875 -0.34375,-0.015625 c -0.1875,-0.015625 -0.25,-0.078125 -0.25,-0.21875 0,-0.0625 0.015625,-0.125 0.03125,-0.234375 l 0.59375,-3.40625 c 0,-0.015625 0.03125,-0.140625 0.0625,-0.28125 C 1.96875,-4.375 1.984375,-4.421875 2,-4.515625 c 0.203125,-0.046875 0.34375,-0.0625 0.53125,-0.0625 0.609375,0 0.921875,0.28125 0.921875,0.796875 0,0.65625 -0.546875,1.140625 -1.265625,1.140625 H 1.875 L 1.859375,-2.5625 c 0.9375,1.359375 1.15625,1.703125 1.671875,2.578125 L 4,0 h 0.125 c 0,0 0.109375,0 0.234375,0.015625 h 0.09375 v -0.1875 c -0.28125,-0.03125 -0.359375,-0.09375 -0.5625,-0.375 L 2.609375,-2.46875 C 3,-2.53125 3.203125,-2.625 3.453125,-2.796875 3.859375,-3.09375 4.0625,-3.484375 4.0625,-3.90625 4.0625,-4.5 3.625,-4.84375 2.84375,-4.828125 l -1.03125,0.03125 c -0.109375,0 -0.234375,0 -1.0625,-0.03125 z m 0,0"
                     transform="translate(182.4,112.485)"
                     id="path6315" />
                  <path
                     style="stroke:none;fill:#0000ff;fill-opacity:1"
                     d="M 6.53125,-4.625 6.546875,-4.828125 6.359375,-4.8125 C 6.15625,-4.796875 6.0625,-4.796875 5.96875,-4.796875 H 5.796875 l -0.40625,-0.03125 -0.109375,0.21875 c -0.1875,0.359375 -0.328125,0.59375 -0.484375,0.875 l -1.71875,2.9375 L 2.03125,-4.828125 1.84375,-4.8125 C 1.640625,-4.796875 1.546875,-4.796875 1.453125,-4.796875 H 1.28125 L 0.875,-4.828125 0.84375,-4.625 l 0.1875,0.015625 c 0.359375,0.03125 0.484375,0.09375 0.484375,0.28125 0,0.03125 0,0.078125 -0.015625,0.140625 L 0.484375,-0.640625 C 0.375,-0.28125 0.265625,-0.1875 -0.109375,-0.15625 L -0.125,0.015625 H 0.140625 C 0.375,0 0.546875,0 0.640625,0 0.75,0 0.921875,0 1.171875,0.015625 h 0.25 L 1.4375,-0.171875 1.171875,-0.1875 c -0.21875,-0.015625 -0.34375,-0.09375 -0.34375,-0.203125 0,-0.0625 0.015625,-0.15625 0.046875,-0.28125 L 1.734375,-3.90625 2.78125,0.125 H 2.9375 L 3.34375,-0.59375 C 3.875,-1.578125 4.53125,-2.703125 5,-3.484375 l 0.359375,-0.609375 -0.25,3.625 C 5.078125,-0.265625 5,-0.21875 4.640625,-0.1875 l -0.21875,0.015625 -0.015625,0.1875 H 4.734375 C 5.03125,0 5.234375,0 5.34375,0 5.453125,0 5.65625,0 5.9375,0.015625 h 0.328125 l 0.015625,-0.1875 -0.25,-0.015625 c -0.25,-0.03125 -0.375,-0.109375 -0.375,-0.25 v -0.265625 l 0.28125,-3.6875 c 0.015625,-0.140625 0.125,-0.203125 0.328125,-0.21875 z m 0,0"
                     transform="translate(187.05152,112.485)"
                     id="path6317" />
                </g>
                <g
                   style="fill:#0000ff;fill-opacity:1"
                   id="g6323">
                  <path
                     style="stroke:none;fill:#0000ff;fill-opacity:1"
                     d="M 3,1.9375 C 2.28125,1.046875 2.03125,0.5625 1.765625,-0.328125 1.5625,-1.046875 1.453125,-1.796875 1.453125,-2.65625 1.453125,-3.484375 1.5625,-4.1875 1.75,-4.828125 2,-5.65625 2.265625,-6.125 3,-6.984375 l -0.1875,-0.25 c -1.03125,0.921875 -1.453125,1.46875 -1.828125,2.453125 -0.25,0.671875 -0.390625,1.375 -0.390625,2.125 0,1.078125 0.25,2.078125 0.734375,2.96875 C 1.671875,0.984375 2,1.375 2.8125,2.140625 Z m 0,0"
                     transform="translate(194.133,110.99)"
                     id="path6321" />
                </g>
                <g
                   style="fill:#0000ff;fill-opacity:1"
                   id="g6327">
                  <path
                     style="stroke:none;fill:#0000ff;fill-opacity:1"
                     d="M 5.453125,-4.890625 C 5.453125,-6.640625 4.421875,-7 3.8125,-7 c -0.796875,0 -1.78125,0.515625 -2.53125,1.875 -0.515625,0.9375 -0.828125,2.296875 -0.828125,3.09375 0,1.453125 0.765625,2.109375 1.65625,2.109375 0.671875,0 1.546875,-0.390625 2.234375,-1.40625 0.84375,-1.21875 1.109375,-2.8125 1.109375,-3.5625 z m -3.484375,1.1875 c 0.140625,-0.578125 0.40625,-1.484375 0.703125,-2 0.234375,-0.40625 0.640625,-0.9375 1.109375,-0.9375 0.421875,0 0.609375,0.4375 0.609375,1.03125 0,0.625 -0.21875,1.5 -0.328125,1.90625 z M 3.9375,-3.21875 c -0.625,2.671875 -1.453125,2.9375 -1.796875,2.9375 C 2,-0.28125 1.78125,-0.3125 1.640625,-0.625 1.53125,-0.890625 1.53125,-1.28125 1.53125,-1.296875 c 0,-0.5625 0.21875,-1.5 0.328125,-1.921875 z m 0,0"
                     transform="translate(197.451,110.99)"
                     id="path6325" />
                </g>
                <g
                   style="fill:#0000ff;fill-opacity:1"
                   id="g6331">
                  <path
                     style="stroke:none;fill:#0000ff;fill-opacity:1"
                     d="m 0.515625,2.140625 c 0.6875,-0.640625 0.96875,-0.96875 1.28125,-1.46875 0.609375,-0.96875 0.921875,-2.125 0.921875,-3.3125 0,-0.765625 -0.125,-1.46875 -0.390625,-2.140625 -0.375,-0.96875 -0.78125,-1.515625 -1.8125,-2.453125 l -0.203125,0.25 c 0.734375,0.859375 1,1.328125 1.25,2.15625 0.203125,0.640625 0.296875,1.34375 0.296875,2.171875 0,0.859375 -0.09375,1.609375 -0.296875,2.328125 -0.265625,0.890625 -0.53125,1.375 -1.25,2.265625 z m 0,0"
                     transform="translate(203.366,110.99)"
                     id="path6329" />
                </g>
              </g>
            </g>
          </g>
        </g>
      </g>
    </g>
  </g>
</svg>
